<?xml version="1.0" encoding="utf-8"?>
<!-- Generator: Adobe Illustrator 27.7.0, SVG Export Plug-In . SVG Version: 6.00 Build 0)  -->
<svg version="1.1" id="Layer_1" xmlns="http://www.w3.org/2000/svg" xmlns:xlink="http://www.w3.org/1999/xlink" x="0px" y="0px"
	 viewBox="0 0 1229.7 1229.7" style="enable-background:new 0 0 1229.7 1229.7;" xml:space="preserve">
<style type="text/css">
	.st0{display:none;fill:#FFFFFF;}
	.st1{font-family:'VT323-Regular';}
	.st2{font-size:1296px;}
	.st3{display:none;}
	.st4{display:inline;}
</style>
<circle class="st0" cx="623" cy="618.9" r="597.3"/>
<text transform="matrix(1.9462 0 0 1 119.65 977.0165)" class="st1 st2">M</text>
<g class="st3">
	<path class="st4" d="M609.4,238c-16.4,30.3-21.6,65.6-15.5,104.9c7.3,47.1,28.6,81.2,65.1,104.3c32.5,20.5,72,29.6,106.9,37.5
		c39.9,9.1,74.4,17,88.5,40.5c6.8,11.3,8.1,25.2,3.8,41.1c-5.6,20.9-16.2,35.1-31.5,42c-35.1,15.9-86.2-9.1-150.8-40.9
		c-70-34.4-149.4-73.3-227.2-70.6c-34.8,1.3-66.5,8.3-94.4,21c-25.6,11.7-47.5,27.8-64.9,47.9c-31.1,35.9-46.1,83.3-41,130.1
		c5.3,49.5,25.2,85.2,60.8,109.3c32,21.6,73.1,31.6,109.3,40.5c27.2,6.6,52.8,12.9,73,23.3c24.6,12.7,38.2,30.2,41.4,53.5
		c2.6,18.6-7.1,36.6-26,48.2c-14.2,8.7-32.5,13.3-52.9,13.3c-6.5,0-13.1-0.5-20-1.4c-29.8-4-62-17-93.6-37.6l20.9-16.8
		c26.1,16,52.1,26.1,76.1,29.3c22.5,3.1,42.4,0.1,56.1-8.3c10.2-6.3,15.3-14.7,14.2-23.1c-4.4-31.8-39.1-41.9-95.3-55.6
		c-38.3-9.4-81.8-20-117.5-44.2c-42.1-28.5-65.6-70.2-71.8-127.6c-5.8-53.7,11.4-108.2,47.1-149.5c19.8-22.9,44.6-41.2,73.6-54.4
		c30.9-14.1,65.9-21.9,104-23.3c84.2-3,170.2,39.2,239.3,73.2c53.9,26.5,104.9,51.5,129.1,40.5c8.1-3.7,13.8-12,17.4-25.5
		c2.5-9.1,2.1-16.1-1.1-21.4c-8.6-14.2-39.6-21.3-72.4-28.8c-36.9-8.4-78.7-18-114.8-40.8c-43.1-27.2-68.2-67.1-76.7-121.8
		c-7-44.9-0.9-85.5,18.2-120.9c17.2-32,45.3-58.9,81.1-77.8c51.5-27.3,116.2-37.5,182.2-28.9c65.4,8.6,126.6,35.6,173.5,76.5
		l-20.1,16.2c-42.6-36-97.8-59.8-156.7-67.5c-60.8-8-120.1,1.3-167,26.2C648.7,187.2,624.3,210.5,609.4,238z"/>
	<path class="st4" d="M644.2,348.4c8.8,32.5,26.1,54.8,54.5,70.2c25.6,13.9,56.7,20.2,86.7,26.2c30.5,6.1,59.3,11.9,82,25.3
		c26.8,15.8,40.6,40,42,73.9c1.6,38.6-9.7,68.2-33.7,88.1c-15.3,12.7-35.9,21-59.5,24.1c-18.2,2.3-38.4,1.4-55.3-2.4
		c-41.3-9.4-79.1-27.1-119.1-45.8C577.6,578,511.4,547,427,550.6c-43,1.9-86.2,25.9-110,61.4c-15.5,23.1-30,61.9-10.7,115.4
		c8.2,22.9,24.4,39.7,50.9,53.1c24.5,12.4,54.8,20,84.1,27.4c35.9,9.1,73,18.5,99.9,36.9c31.8,21.8,45.4,53,41.6,95.6
		c-3.2,35.1-24.1,62.7-58.9,77.9c-19.1,8.3-41.8,12.5-66.2,12.5c-13.8,0-28.2-1.4-42.8-4.1c-40.2-7.5-79.4-24.8-113.7-50.1
		l18.2-14.6c30.5,21.4,64.7,36,99.7,42.6c36,6.8,70,4.3,95.8-7c19-8.3,42.4-25.3,45.5-59.3c3.1-34.2-7-58.1-31.9-75
		c-23.6-16.1-57.2-24.6-92.7-33.6c-30.5-7.7-61.9-15.7-88.7-29.2c-31.6-15.9-51.8-37.4-62-65.6c-22.4-62.3-5.2-108.1,13.2-135.5
		c27.6-41.2,77.8-69.2,127.7-71.3c89.9-3.9,158.6,28.3,225.1,59.4c38.9,18.2,75.6,35.4,114.6,44.3c14.5,3.3,31.8,4.1,47.5,2.1
		c19.4-2.5,35.9-9.1,48-19.1c18.3-15.2,26.9-38.7,25.6-69.9c-1.1-26.3-10.6-43.4-30.9-55.4c-19.4-11.5-46.4-16.9-75-22.6
		c-31.7-6.4-64.4-13-93-28.5c-33.6-18.3-55-45.8-65.4-84c-18-66.3,5.2-123.9,63.9-157.8c42.8-24.8,101-34.5,159.7-26.7
		c52,7,100.2,27,138.8,57.3l-18,14.5c-34.7-26-77.6-43.3-123.7-49.5c-53.8-7.2-106.9,1.5-145.5,23.8
		C647.8,244.8,628.8,291.9,644.2,348.4z"/>
	<path class="st4" d="M961.1,560.8c-2.9,51.4-20.5,90.2-52.2,115.4c-19.6,15.6-44.2,25.5-73.2,29.7c-24.4,3.5-51.2,2.7-79.6-2.2
		c-52.8-9.2-106.6-32-158.7-54c-71.5-30.3-139-58.9-188.9-45.1c-41.1,11.4-54.3,40.1-58.4,56.2c-6.5,25.1-0.3,52.4,15.5,67.9
		c19.4,19.1,56,29.3,94.8,40c36.9,10.2,75,20.8,106.9,40.5c37.7,23.3,59.3,55.3,66,97.7c3.8,24.3-0.5,51.3-12.2,76
		c-12.4,26.3-32.3,48.7-57.4,64.7c-28.6,18.3-63.1,27.7-100.9,27.7c-8.8,0-17.8-0.5-26.9-1.5c-52.9-5.9-110.6-28.6-171.4-67.5
		l18.5-14.9c55.5,34.5,107.7,54.7,155.4,60c43.3,4.8,82.4-3,113.2-22.7c21.5-13.8,38.5-32.9,49.2-55.4c9.8-20.7,13.4-43,10.3-62.9
		c-12.6-80-85.9-100.4-156.7-120c-41.7-11.5-81-22.5-104.6-45.7c-21.6-21.3-30-56.5-21.4-89.6c9.2-35.3,36.2-61.6,74.2-72.2
		c57.4-15.9,128.5,14.2,203.7,46c50.9,21.6,103.5,43.9,153.8,52.6c32.5,5.6,93.3,10.2,135-22.9c26.5-21,41.2-54.4,43.7-99.1
		c2.5-43.6-9.3-73.5-37.1-93.9c-25.4-18.7-61.6-27.5-96.6-36c-33-8-67.1-16.4-92.4-33.2c-29.9-19.9-43.8-48.9-42.5-88.7
		c1.2-33.2,18.9-60.2,49.9-76c57.7-29.3,150.3-16.3,220.6,30.9l-18.4,14.8h0c-30.2-19.1-65.5-32.1-100.2-36.8
		c-35.6-4.9-68.2-0.9-91.8,11.1c-16.6,8.4-36.5,25.1-37.6,56.7c-1.1,31.8,9.2,53.7,32.4,69.2c22,14.7,52.8,22.1,85.3,30.1
		c37.1,9.1,75.5,18.4,104.6,39.7C948.9,472.5,964,509.6,961.1,560.8z"/>
	<path class="st4" d="M1011.7,557.4c-4.3,75.2-31,130.1-79.2,163.3c-34.7,23.9-79.6,35.9-133.6,35.9c-1,0-1.9,0-2.9,0
		c-72.2-0.6-149.8-33.4-218.2-62.3c-67-28.3-130.3-55.1-165.4-40.2c-9.3,4-16,12.9-17,22.6c-1.1,11,4.8,21.4,16.6,29.4
		c14.4,9.8,36.7,14.7,62.5,20.4c45.7,10.1,102.6,22.6,151.4,69.7c38.9,37.5,58.7,86.6,55.8,138.3c-3.1,54-30.5,104.5-75.2,138.6
		c-37.8,28.8-81.1,45-128.7,48c-5.6,0.4-11.2,0.5-16.9,0.5c-34,0-69.9-6.4-106.9-19c-53.6-18.3-98.9-46.1-126.3-66.6l18.1-14.6
		c25.6,18.5,66.6,43.3,115.4,60c40.4,13.8,79.2,19.6,115.1,17.3c43.1-2.8,82.4-17.4,116.6-43.5c39.4-30.1,63.6-74.5,66.4-122
		c2.6-45-14.8-87.9-48.9-120.8c-44.3-42.6-95.5-53.9-140.6-63.9c-28.1-6.2-52.3-11.6-70.3-23.7c-18.6-12.6-28.2-30.9-26.4-50.2
		c1.8-18.1,13.5-33.9,30.5-41.2c43.9-18.6,108.3,8.6,183,40.2c66.5,28.1,141.9,60,209.7,60.5c50.6,0.4,92.2-10.4,123.6-32
		c42.2-29.1,65.6-78.2,69.5-146.1c3.1-53.6-13.7-93.2-51.2-121.1c-33.6-25-78.9-37.4-118.8-48.4c-48.7-13.4-90.8-25-100-56.7
		c-5.4-18.5,1.7-37.1,18.9-49.7c17.2-12.7,43.5-18.6,72-16.3c29.7,2.4,60.8,13.2,90.2,31.4l-18.7,15c-30.2-17.2-56.1-22.6-73.3-24
		c-23.2-1.9-44,2.6-57,12.1c-6.8,5-14.1,13.4-10.6,25.4c5.7,19.7,43.9,30.2,84.4,41.3c41.8,11.5,89.3,24.6,126.3,52
		c20.5,15.2,36,33.8,46,55.1C1008.8,496.2,1013.6,524.9,1011.7,557.4z"/>
	<path class="st4" d="M609.4,238c-16.4,30.3-21.6,65.6-15.5,104.9c7.3,47.1,28.6,81.2,65.1,104.3c32.5,20.5,72,29.6,106.9,37.5
		c39.9,9.1,74.4,17,88.5,40.5c6.8,11.3,8.1,25.2,3.8,41.1c-5.6,20.9-16.2,35.1-31.5,42c-35.1,15.9-86.2-9.1-150.8-40.9
		c-70-34.4-149.4-73.3-227.2-70.6c-34.8,1.3-66.5,8.3-94.4,21c-25.6,11.7-47.5,27.8-64.9,47.9c-31.1,35.9-46.1,83.3-41,130.1
		c5.3,49.5,25.2,85.2,60.8,109.3c32,21.6,73.1,31.6,109.3,40.5c27.2,6.6,52.8,12.9,73,23.3c24.6,12.7,38.2,30.2,41.4,53.5
		c2.6,18.6-7.1,36.6-26,48.2c-14.2,8.7-32.5,13.3-52.9,13.3c-6.5,0-13.1-0.5-20-1.4c-29.8-4-62-17-93.6-37.6l20.9-16.8
		c26.1,16,52.1,26.1,76.1,29.3c22.5,3.1,42.4,0.1,56.1-8.3c10.2-6.3,15.3-14.7,14.2-23.1c-4.4-31.8-39.1-41.9-95.3-55.6
		c-38.3-9.4-81.8-20-117.5-44.2c-42.1-28.5-65.6-70.2-71.8-127.6c-5.8-53.7,11.4-108.2,47.1-149.5c19.8-22.9,44.6-41.2,73.6-54.4
		c30.9-14.1,65.9-21.9,104-23.3c84.2-3,170.2,39.2,239.3,73.2c53.9,26.5,104.9,51.5,129.1,40.5c8.1-3.7,13.8-12,17.4-25.5
		c2.5-9.1,2.1-16.1-1.1-21.4c-8.6-14.2-39.6-21.3-72.4-28.8c-36.9-8.4-78.7-18-114.8-40.8c-43.1-27.2-68.2-67.1-76.7-121.8
		c-7-44.9-0.9-85.5,18.2-120.9c17.2-32,45.3-58.9,81.1-77.8c51.5-27.3,116.2-37.5,182.2-28.9c65.4,8.6,126.6,35.6,173.5,76.5
		l-20.1,16.2c-42.6-36-97.8-59.8-156.7-67.5c-60.8-8-120.1,1.3-167,26.2C648.7,187.2,624.3,210.5,609.4,238z"/>
	<path class="st4" d="M644.2,348.4c8.8,32.5,26.1,54.8,54.5,70.2c25.6,13.9,56.7,20.2,86.7,26.2c30.5,6.1,59.3,11.9,82,25.3
		c26.8,15.8,40.6,40,42,73.9c1.6,38.6-9.7,68.2-33.7,88.1c-15.3,12.7-35.9,21-59.5,24.1c-18.2,2.3-38.4,1.4-55.3-2.4
		c-41.3-9.4-79.1-27.1-119.1-45.8C577.6,578,511.4,547,427,550.6c-43,1.9-86.2,25.9-110,61.4c-15.5,23.1-30,61.9-10.7,115.4
		c8.2,22.9,24.4,39.7,50.9,53.1c24.5,12.4,54.8,20,84.1,27.4c35.9,9.1,73,18.5,99.9,36.9c31.8,21.8,45.4,53,41.6,95.6
		c-3.2,35.1-24.1,62.7-58.9,77.9c-19.1,8.3-41.8,12.5-66.2,12.5c-13.8,0-28.2-1.4-42.8-4.1c-40.2-7.5-79.4-24.8-113.7-50.1
		l18.2-14.6c30.5,21.4,64.7,36,99.7,42.6c36,6.8,70,4.3,95.8-7c19-8.3,42.4-25.3,45.5-59.3c3.1-34.2-7-58.1-31.9-75
		c-23.6-16.1-57.2-24.6-92.7-33.6c-30.5-7.7-61.9-15.7-88.7-29.2c-31.6-15.9-51.8-37.4-62-65.6c-22.4-62.3-5.2-108.1,13.2-135.5
		c27.6-41.2,77.8-69.2,127.7-71.3c89.9-3.9,158.6,28.3,225.1,59.4c38.9,18.2,75.6,35.4,114.6,44.3c14.5,3.3,31.8,4.1,47.5,2.1
		c19.4-2.5,35.9-9.1,48-19.1c18.3-15.2,26.9-38.7,25.6-69.9c-1.1-26.3-10.6-43.4-30.9-55.4c-19.4-11.5-46.4-16.9-75-22.6
		c-31.7-6.4-64.4-13-93-28.5c-33.6-18.3-55-45.8-65.4-84c-18-66.3,5.2-123.9,63.9-157.8c42.8-24.8,101-34.5,159.7-26.7
		c52,7,100.2,27,138.8,57.3l-18,14.5c-34.7-26-77.6-43.3-123.7-49.5c-53.8-7.2-106.9,1.5-145.5,23.8
		C647.8,244.8,628.8,291.9,644.2,348.4z"/>
	<path class="st4" d="M961.1,560.8c-2.9,51.4-20.5,90.2-52.2,115.4c-19.6,15.6-44.2,25.5-73.2,29.7c-24.4,3.5-51.2,2.7-79.6-2.2
		c-52.8-9.2-106.6-32-158.7-54c-71.5-30.3-139-58.9-188.9-45.1c-41.1,11.4-54.3,40.1-58.4,56.2c-6.5,25.1-0.3,52.4,15.5,67.9
		c19.4,19.1,56,29.3,94.8,40c36.9,10.2,75,20.8,106.9,40.5c37.7,23.3,59.3,55.3,66,97.7c3.8,24.3-0.5,51.3-12.2,76
		c-12.4,26.3-32.3,48.7-57.4,64.7c-28.6,18.3-63.1,27.7-100.9,27.7c-8.8,0-17.8-0.5-26.9-1.5c-52.9-5.9-110.6-28.6-171.4-67.5
		l18.5-14.9c55.5,34.5,107.7,54.7,155.4,60c43.3,4.8,82.4-3,113.2-22.7c21.5-13.8,38.5-32.9,49.2-55.4c9.8-20.7,13.4-43,10.3-62.9
		c-12.6-80-85.9-100.4-156.7-120c-41.7-11.5-81-22.5-104.6-45.7c-21.6-21.3-30-56.5-21.4-89.6c9.2-35.3,36.2-61.6,74.2-72.2
		c57.4-15.9,128.5,14.2,203.7,46c50.9,21.6,103.5,43.9,153.8,52.6c32.5,5.6,93.3,10.2,135-22.9c26.5-21,41.2-54.4,43.7-99.1
		c2.5-43.6-9.3-73.5-37.1-93.9c-25.4-18.7-61.6-27.5-96.6-36c-33-8-67.1-16.4-92.4-33.2c-29.9-19.9-43.8-48.9-42.5-88.7
		c1.2-33.2,18.9-60.2,49.9-76c57.7-29.3,150.3-16.3,220.6,30.9l-18.4,14.8h0c-30.2-19.1-65.5-32.1-100.2-36.8
		c-35.6-4.9-68.2-0.9-91.8,11.1c-16.6,8.4-36.5,25.1-37.6,56.7c-1.1,31.8,9.2,53.7,32.4,69.2c22,14.7,52.8,22.1,85.3,30.1
		c37.1,9.1,75.5,18.4,104.6,39.7C948.9,472.5,964,509.6,961.1,560.8z"/>
	<path class="st4" d="M1011.7,557.4c-4.3,75.2-31,130.1-79.2,163.3c-34.7,23.9-79.6,35.9-133.6,35.9c-1,0-1.9,0-2.9,0
		c-72.2-0.6-149.8-33.4-218.2-62.3c-67-28.3-130.3-55.1-165.4-40.2c-9.3,4-16,12.9-17,22.6c-1.1,11,4.8,21.4,16.6,29.4
		c14.4,9.8,36.7,14.7,62.5,20.4c45.7,10.1,102.6,22.6,151.4,69.7c38.9,37.5,58.7,86.6,55.8,138.3c-3.1,54-30.5,104.5-75.2,138.6
		c-37.8,28.8-81.1,45-128.7,48c-5.6,0.4-11.2,0.5-16.9,0.5c-34,0-69.9-6.4-106.9-19c-53.6-18.3-98.9-46.1-126.3-66.6l18.1-14.6
		c25.6,18.5,66.6,43.3,115.4,60c40.4,13.8,79.2,19.6,115.1,17.3c43.1-2.8,82.4-17.4,116.6-43.5c39.4-30.1,63.6-74.5,66.4-122
		c2.6-45-14.8-87.9-48.9-120.8c-44.3-42.6-95.5-53.9-140.6-63.9c-28.1-6.2-52.3-11.6-70.3-23.7c-18.6-12.6-28.2-30.9-26.4-50.2
		c1.8-18.1,13.5-33.9,30.5-41.2c43.9-18.6,108.3,8.6,183,40.2c66.5,28.1,141.9,60,209.7,60.5c50.6,0.4,92.2-10.4,123.6-32
		c42.2-29.1,65.6-78.2,69.5-146.1c3.1-53.6-13.7-93.2-51.2-121.1c-33.6-25-78.9-37.4-118.8-48.4c-48.7-13.4-90.8-25-100-56.7
		c-5.4-18.5,1.7-37.1,18.9-49.7c17.2-12.7,43.5-18.6,72-16.3c29.7,2.4,60.8,13.2,90.2,31.4l-18.7,15c-30.2-17.2-56.1-22.6-73.3-24
		c-23.2-1.9-44,2.6-57,12.1c-6.8,5-14.1,13.4-10.6,25.4c5.7,19.7,43.9,30.2,84.4,41.3c41.8,11.5,89.3,24.6,126.3,52
		c20.5,15.2,36,33.8,46,55.1C1008.8,496.2,1013.6,524.9,1011.7,557.4z"/>
</g>
</svg>
