<?xml version="1.0" encoding="UTF-8"?><svg id="Layer_1" xmlns="http://www.w3.org/2000/svg" width="1229.7" height="1229.7" viewBox="0 0 1229.7 1229.7"><path d="m163.93,285.24v-34.88h174.38v34.88h34.88v209.26h34.88v209.26h34.88v-139.51h34.88v-174.38h34.88v-104.63h34.88v-34.88h174.38v34.88h34.88v104.63h34.88v174.38h34.88v139.51h34.88v-209.26h34.88v-209.26h34.88v-34.88h174.38v34.88h34.88v209.26h-34.88v209.26h-34.88v139.51h-34.88v104.63h-34.88v34.88h-34.88v34.88h-209.26v-34.88h-34.88v-34.88h-34.88v-104.63h-34.88v-104.63h-34.88v104.63h-34.88v104.63h-34.88v34.88h-34.88v34.88h-209.26v-34.88h-34.88v-34.88h-34.88v-104.63h-34.88v-139.51h-34.88v-209.26h-34.88v-209.26h34.88Zm34.88,34.88h-34.88v139.51h34.88v-139.51Zm0,0h104.63v-34.88h-104.63v34.88Zm0,348.77h34.88v139.51h34.88v69.75h34.88v-69.75h-34.88v-139.51h-34.88v-209.26h-34.88v209.26Zm209.26,104.63h69.75v-34.88h-69.75v34.88Zm69.75-34.88h34.88v-139.51h-34.88v139.51Zm34.88-313.89v174.38h34.88v-174.38h-34.88Zm34.88,0h34.88v-104.63h-34.88v104.63Zm34.88-104.63h104.63v-34.88h-104.63v34.88Zm139.51,418.52h-34.88v69.75h34.88v-69.75Zm0,139.51h34.88v-69.75h-34.88v69.75Zm104.63-104.63h69.75v-34.88h-69.75v34.88Zm69.75-244.14v209.26h34.88v-209.26h-34.88Zm34.88-209.26v209.26h34.88v-209.26h-34.88Zm34.88,0h104.63v-34.88h-104.63v34.88Z"/></svg>