<?xml version="1.0" encoding="utf-8"?>
<!-- Generator: Adobe Illustrator 27.7.0, SVG Export Plug-In . SVG Version: 6.00 Build 0)  -->
<svg version="1.1" id="Layer_1" xmlns="http://www.w3.org/2000/svg" xmlns:xlink="http://www.w3.org/1999/xlink" x="0px" y="0px"
	 viewBox="0 0 1929.4 988.8" style="enable-background:new 0 0 1929.4 988.8;" xml:space="preserve">
<style type="text/css">
	.st0{fill:url(#SVGID_1_);}
	.st1{fill:#FFFFFF;}
</style>
<g>
	
		<image style="overflow:visible;opacity:0.75;" width="1886" height="947" xlink:href="4D6AC2ADBD79258C.png"  transform="matrix(1 0 0 1 25.6889 28.7851)">
	</image>
	<g>
		
			<linearGradient id="SVGID_1_" gradientUnits="userSpaceOnUse" x1="236.0895" y1="-225.5412" x2="1641.2347" y2="285.8933" gradientTransform="matrix(0.9939 -0.1101 -0.1101 -0.9939 31.7936 686.3873)">
			<stop  offset="0" style="stop-color:#FFF33B"/>
			<stop  offset="9.000000e-02" style="stop-color:#F5D955"/>
			<stop  offset="0.18" style="stop-color:#EFC667"/>
			<stop  offset="0.28" style="stop-color:#EBBB73"/>
			<stop  offset="0.38" style="stop-color:#EAB877"/>
			<stop  offset="0.9" style="stop-color:#EF4136"/>
		</linearGradient>
		<path class="st0" d="M1784,640.5c-25.9-15.3-61.2-23.9-90.1-31.4c-14.2-3.7-29.2-5.3-43.7-7.7c-12.1-2-24.6-1.7-36.7-3
			c28.4-76.5-23-168.3-88.1-207.5c-69-41.6-164.8-56.5-238.3-17.8c0-75.1-34.8-150.6-83.2-205.9c-32.8-37.5-70.3-66.8-114.7-89.4
			c-49.2-25.1-103.6-33-157.9-37.8C836.7,31.6,733,56.5,653,107.3c-39.9,25.4-71.4,56.3-97.2,95.9c-21.4,32.8-40.6,68.4-48.6,106.8
			c-26-54.8-88.9-82.4-148.1-70c-28.5,6-54,23.2-67.6,49.3c-6.9,13.2-11.4,26.3-13.6,40.9c-0.4,2.9-0.3,5.5-0.1,8.1
			c-48.6-15.2-94.3-29.4-146.1-32.4c-30.4-1.8-94.1-0.6-96.8,43.2c-2.8,46.2,44.7,64.6,79.8,79.9c27.1,11.7,56.2,19.9,84.9,27
			c27.3,6.7,53,20.9,81,23.6c-11.3,57.8-3.7,116.3,27.2,167.7c31.2,51.9,87.6,80,140.9,103.2c81.1,35.2,170.4,30.1,247.2-5.8
			c3.9,13.9,7.4,27.5,14.2,40.9c11.2,22.5,29.5,40.5,47.3,57.8c38.5,37.4,85.1,55.1,135.6,70.2c78.1,23.4,202.7-19.8,232.1-101.8
			c1.7,5.2,3.2,10.6,5,14.8c5.2,11.7,12.1,23.2,19.1,34c13.8,21.1,36.9,36.6,57.6,50.1c44.6,29.2,99.2,39.4,151.8,37.1
			c108.8-4.8,186.9-90.2,214.9-190.2c16.7,12.8,44.5,14.7,64.2,18.4c36.8,6.8,72.9,16,110.2,21.1c37.7,5.2,123,19.9,135.1-34.6
			C1896,702.9,1825.9,665.3,1784,640.5L1784,640.5z"/>
	</g>
</g>
<path class="st1" d="M308.4,323.3c3.5-8.1,9.3-15.4,11.6-23.8c1.1-3.9-3.4-6.6-6.2-3.5c-13.8,15.6-20.4,36.7-17.1,57.3
	c0.4,2.7,4.2,2.4,4.6-0.1C303.1,343.2,304.4,332.6,308.4,323.3L308.4,323.3z"/>
<path class="st1" d="M333,275.2c-3.4,1.5-5.4,3.4-7.7,6.2c-2.1,2.6-4.8,5.2-4.1,8.7c0.4,2.2,3,3.2,4.8,1.9c4.5-3.5,8.2-8,10.8-13.1
	C338,276.6,335.2,274.3,333,275.2L333,275.2z"/>
<path class="st1" d="M356,261.4c-5,1.7-9.6,3.4-13.8,6.8c-3.3,2.7,0,7.2,3.7,6c5.3-1.7,10.1-4.1,13.6-8.5
	C361.4,263.3,358.5,260.5,356,261.4L356,261.4z"/>
<path class="st1" d="M448.8,274.7c-16.7-15.3-57.3-25.8-78.2-14.4c-1.9,1-1.9,4.7,0.7,4.6c11.7-0.1,22.8-0.1,34.4,1.5
	c14.5,2,27,10.5,40.9,14C449.9,281.1,450.8,276.5,448.8,274.7L448.8,274.7z"/>
<path class="st1" d="M462.3,288.1c-1-2.9-3.1-5.2-5.7-6.8c-2.7-1.6-6.5,1.5-4.1,4.2c2,2.3,3.3,5,6.2,6.3
	C461.2,292.8,463.1,290.2,462.3,288.1L462.3,288.1z"/>
<path class="st1" d="M395.7,273.5c-37.8-10.4-85.8,24.6-84.1,65.3c0.1,3,4.3,2.4,4.8-0.1c4-18,16.2-33.2,29.3-45.7
	c15.5-14.8,30.6-11,49.5-14.7C397.4,277.9,398.2,274.2,395.7,273.5L395.7,273.5z"/>
<path class="st1" d="M420.2,277.1c-4-3.9-13.1-5.8-17.2-1.4c-1.1,1.2-0.3,3.3,1.1,3.8c4.3,1.5,9.4,4.1,14,3.1
	C420.3,282.2,422.2,279,420.2,277.1z"/>
<path class="st1" d="M479.2,324.8c-1.5-9.9-8.5-18.4-15.8-24.9c-8.9-8-20.6-17.6-33-18.4c-2.2-0.1-3.6,2.8-1.6,4.2
	c8.4,5.7,17,10.1,24.8,16.7c8.4,7,12.7,17.3,20.4,24.8C476,329,479.7,328,479.2,324.8L479.2,324.8z"/>
<path class="st1" d="M381.5,285.6c-10.8-2.1-22,4.6-30.7,10.2c-9.6,6.2-15.8,13.2-17.9,24.7c-0.4,2.3,2.7,2.7,3.6,0.9
	c4.7-9,12.8-14.9,21.3-20c7.9-4.8,17.9-5.4,25.2-10.9C385,288.9,383.8,286,381.5,285.6L381.5,285.6z"/>
<path class="st1" d="M411,288.4c-6.1-2.4-11.7-3.4-18.3-2.3c-3.3,0.6-3.5,4.9-0.7,6.2c2.5,1.2,5.3,1.1,8,1.3c3.7,0.2,6.7,0.6,10.4,0
	C413.1,293.3,413.6,289.4,411,288.4z"/>
<path class="st1" d="M434.8,297.1c-3.8-4-9.5-5.1-14.9-5.5c-3.7-0.3-4.5,4.4-1.5,6c4,2.1,8.8,4.6,13.4,5
	C434.5,302.7,437,299.3,434.8,297.1z"/>
<path class="st1" d="M475.6,352.3c-0.8-10.6-5.9-20.3-11.7-29c-4.5-6.7-13.6-19.5-22.8-19.5c-1.8,0-2.8,1.7-1.8,3.2
	c4.5,7.1,11.2,12.6,16.3,19.4c6.3,8.5,9.5,18.1,13.6,27.7C470.9,357.8,475.9,355.9,475.6,352.3L475.6,352.3z"/>
<path class="st1" d="M447,324.4c-9.2-17.1-29.5-23.6-47.8-24.2c-8.3-0.3-37.4-1.7-38,11.3c-0.1,1.2,1.1,2.3,2.3,1.7
	c9.1-4.8,20.8-4.8,30.9-5c20.2-0.5,33.2,7.3,47.9,19.9C444.6,330.1,448.4,327.1,447,324.4L447,324.4z"/>
<path class="st1" d="M457.7,344.1c-0.8-5.1-3.3-10.8-8.3-13c-2-0.9-3.8,1-3.6,2.9c0.4,5,4,9.5,7.6,12.7
	C455.3,348.3,458.1,346.2,457.7,344.1z"/>
<path class="st1" d="M462.1,352.7c-2.2-3.3-7.1,0-5.8,3.5c2.5,6.2,3.6,12.7,6,19c1.2,3.3,5.9,2.1,6.4-1
	C470.1,366.3,466.4,359,462.1,352.7z"/>
<path class="st1" d="M778.9,476.4c-24.4,8.8-50.9,41.8-41.5,68.5c0.9,2.5,5.1,1.9,5.2-0.8c0.2-14.5,5-27.2,14-38.5
	c7.8-9.8,17.6-15.7,26.1-24.5C785.1,478.7,781.6,475.5,778.9,476.4L778.9,476.4z"/>
<path class="st1" d="M805.8,460.4c-5.8,2.2-11.4,4.4-17,7c-5.5,2.4-1.8,10.9,3.8,8.6c6.3-2.7,11.6-5.2,16.5-10.1
	C811.6,463.3,809.3,459.1,805.8,460.4L805.8,460.4z"/>
<path class="st1" d="M832.4,456.5c-5.3-0.1-11.7-0.5-16.3,2.6c-3,2-0.5,6.5,2.7,6c2.3-0.4,4.6-0.2,6.8-0.5c2.9-0.5,4.9-1.7,7.6-2.9
	C835.6,460.7,835.2,456.5,832.4,456.5L832.4,456.5z"/>
<path class="st1" d="M902.1,507.2c-6.7-31.5-30.9-49.6-62.4-51.1c-4.7-0.2-5.5,6.6-0.8,7.3c15.3,2,30.8,6.2,41.2,18.4
	c7.2,8.4,11,18.4,16.8,27.7C898.5,512,902.7,509.9,902.1,507.2L902.1,507.2z"/>
<path class="st1" d="M835.2,472.2c-17.8-6.9-34.1,7.2-49.1,14.4c-14.5,6.9-28.3,23.9-30,39.9c0,0.4,0.5,0.7,0.8,0.3
	c8.3-12,20.2-24.5,32.8-32c6.6-3.9,13.4-7.8,20.3-11.1c7.9-3.8,16.2-3.1,24.4-5.1C837.5,477.9,838.4,473.5,835.2,472.2L835.2,472.2z
	"/>
<path class="st1" d="M861.7,476.7c-3.3-4.2-12.5-5.6-17.4-3.8c-1.7,0.6-2,2.8-1,4.2c3.4,4.7,13,7.5,17.9,4
	C862.6,480.1,862.7,478,861.7,476.7L861.7,476.7z"/>
<path class="st1" d="M878.3,493.9c-1.6-5.4-5.6-8.9-11.3-9.9c-2.6-0.5-4.1,3.4-1.9,4.8c3.6,2.2,5.4,6.1,9,8.5
	C876.6,498.8,879.1,496.5,878.3,493.9L878.3,493.9z"/>
<path class="st1" d="M895.4,516.9c-1.6-5.1-4.6-14.3-10.3-16.1c-2.5-0.8-5.9,1.7-4.3,4.5c6.2,10.6,8,21.5,10.2,33.4
	c0.7,3.9,6,3.5,6.7-0.2C899.2,531.2,897.6,524.1,895.4,516.9L895.4,516.9z"/>
<path class="st1" d="M882.3,521.1c-2.6-21.1-23.8-33.7-43.3-35.4c-7.4-0.6-56.6,5.1-49.3,20.6c0.4,0.9,1.5,1.4,2.5,1
	c15.7-7.3,27.7-14.6,45.9-13.4c20.3,1.3,28.1,14.9,39.3,29.4C879.1,525.6,882.6,523.8,882.3,521.1z"/>
<path class="st1" d="M881,528.8c-2.5-2.3-5.4,1.1-4.6,3.7c1.4,4.4,2.2,8.9,3.7,13.2c1,3,4.8,1.5,5.4-0.8
	C886.9,538.8,885.8,533.2,881,528.8z"/>
<path class="st1" d="M885.1,553.5c-2.1-2.4-5.5-0.6-5.3,2.4c0.1,2.7,0.6,5.3,0.4,8.1c-0.1,3.2-0.1,5.5,1,8.5
	c0.9,2.7,4.3,1.8,5.4-0.1C889.5,566.9,889.4,558.3,885.1,553.5L885.1,553.5z"/>
<path class="st1" d="M1022.2,478.7c-34.9,12-69.1,37.4-84.7,71.9c-1.3,2.8,2.7,6,5,3.7c8.9-8.8,18.3-19.1,25.8-29.1
	c14.8-19.8,37.9-27.4,57.2-41C1028.7,481.9,1025.4,477.5,1022.2,478.7L1022.2,478.7z"/>
<path class="st1" d="M1051.5,465.8c-6.1,0.8-13.6,3-18.2,7.3c-3.7,3.5,0.7,9.2,4.9,6.2c4.9-3.5,11.1-3.9,15.5-8.4
	C1055.6,468.9,1054.6,465.3,1051.5,465.8L1051.5,465.8z"/>
<path class="st1" d="M1209,485.6c-20.8-17.9-53.3-24.2-80-26.9c-20.4-2.1-48.5-5.2-66.9,6c-2.2,1.3-1.6,5.5,1.4,4.7
	c47.1-13.2,99.8,2.6,142.7,21.2C1209.4,492,1211.4,487.6,1209,485.6L1209,485.6z"/>
<path class="st1" d="M1232.1,502.6c-3-5.9-8.2-12.4-15.3-13.1c-3.3-0.4-5.8,4.6-2.5,6.5c4.7,2.7,7.7,8,12.4,11
	C1229.5,508.8,1233.8,506.1,1232.1,502.6L1232.1,502.6z"/>
<path class="st1" d="M1275.3,568.1c-2.9-15-6.9-26.7-14.8-39.7c-3.8-6.2-9.5-11.4-14.3-16.8c-3.1-3.5-5.9-5.1-10.4-4.4
	c-1.9,0.3-2.5,2.4-1.5,3.9c5.9,8.8,14.5,15.7,19.9,25c6.3,10.8,10.4,22.3,15.2,33.8C1270.8,573,1276,571.5,1275.3,568.1z"/>
<path class="st1" d="M1004,504.8c-5.5,2.7-13.8,6.4-14.8,13.3c-0.3,2.3,2.9,4.5,4.7,2.6c1.8-1.8,4.7-3.1,6.7-4.7
	c2.6-2,4.6-4.4,6.9-6.8C1009.6,507.1,1006.5,503.6,1004,504.8L1004,504.8z"/>
<path class="st1" d="M1125.7,475.8c-18.4-8.5-39.9-4.6-59.1-0.7c-18.8,3.8-39.8,10.8-53.3,24.9c-1.7,1.8,0.9,4.5,2.9,3.6
	c17.1-7.8,33.5-15,51.8-19.6c19.5-4.9,37.6-2.2,57.1-2.7C1128.1,481.2,1128,476.8,1125.7,475.8L1125.7,475.8z"/>
<path class="st1" d="M1153.7,480.8c-5.2-4.2-11.3-4-17.7-4.7c-4.3-0.5-6.4,6.5-1.9,7.7c5.7,1.5,12.4,3,18.3,2.4
	C1155.1,485.9,1155.7,482.3,1153.7,480.8L1153.7,480.8z"/>
<path class="st1" d="M1176.3,487.7c-3.8-2.5-7.3-3.8-11.8-4.4c-4.1-0.6-5.2,5.2-1.7,6.8c3.9,1.8,7.3,2.6,11.6,2.5
	C1176.8,492.5,1178.8,489.4,1176.3,487.7z"/>
<path class="st1" d="M1252.2,551.5c-3.8-27.4-41.1-58.2-67.5-61c-2.1-0.2-3.6,2.8-1.6,4c13.6,8.3,26.6,16,38.9,26.3
	c10.9,9.2,16.2,22.2,24.9,33C1248.8,556.2,1252.6,554.5,1252.2,551.5L1252.2,551.5z"/>
<path class="st1" d="M1263.2,568.6c-1.3-4.1-3.4-6.2-6.4-9.2c-2.1-2-5.2-0.2-4.2,2.6c1.8,5.6,3.4,11.2,5.6,16.6
	c1.1,2.8,4.9,1.8,5.3-0.8C1264,574.4,1264.2,572,1263.2,568.6L1263.2,568.6z"/>
<path class="st1" d="M1263.8,586.6c-1.5-1.7-5.2-1.2-5.2,1.5c-0.1,6,0.1,11.7-0.7,17.6c-0.9,5.9-3.9,11.4-2.8,17.5
	c0.5,2.7,3.6,3.1,5.3,1.3C1267.9,616.6,1271.4,595.2,1263.8,586.6L1263.8,586.6z"/>
<path class="st1" d="M1193.2,511.3c-20.5-18.2-58.7-28.9-86.1-24.4c-14,2.3-28.5,1.1-42.9,3.9c-7.6,1.5-22.7,4.2-26.8,11.3
	c-1.3,2.2,1,4.6,3.2,3.1c15.9-10.9,45.6-9.5,63.6-9.9c32.5-0.8,56.3,9.4,86.1,21C1193.6,517.6,1195.6,513.5,1193.2,511.3
	L1193.2,511.3z"/>
<path class="st1" d="M1213.9,524.9c-2.9-3.7-7.9-6.7-12.2-8.4c-3.5-1.4-6.1,3.4-3.2,5.7c3.8,3.1,7.4,7.5,12.6,7.8
	C1213.8,530.2,1215.7,527.2,1213.9,524.9L1213.9,524.9z"/>
<path class="st1" d="M1228.5,543.2c-2-4.9-5.8-9.5-10.9-11.4c-2.3-0.8-3.8,1.3-3.2,3.3c1.5,5,6,8.4,10,11.3
	C1226.6,548.2,1229.5,545.8,1228.5,543.2L1228.5,543.2z"/>
<path class="st1" d="M1235.2,549c-1.6-1.9-4.9-0.6-4.5,2c0.7,4.5,2.6,8,4.6,12.2c5.2,11.3,6.7,22.7,6.5,35
	c-0.3,19-4.4,36.6-6.4,55.3c-0.3,2.7,3.6,4.5,5.2,2C1258.2,628.1,1256.7,574.1,1235.2,549L1235.2,549z"/>
<path class="st1" d="M1217.4,555.1c-14-34.7-78.8-64.3-114.7-50.8c-1.8,0.7-1.1,3.1,0.5,3.4c42.9,7.2,80,14,108.3,51
	C1214,561.8,1218.8,558.7,1217.4,555.1L1217.4,555.1z"/>
<path class="st1" d="M1229.2,580c-0.3-3.4-0.9-6.6-2.8-9.5c-1.8-2.8-2.9-6-5.4-8.3c-2.2-1.9-5.9,1-4.5,3.6c1.4,2.4,1.3,5,2.8,7.5
	c1.6,2.6,2.3,5.8,3.8,8.5C1224.9,585,1229.5,583.7,1229.2,580L1229.2,580z"/>
<path class="st1" d="M1230.7,587.1c-1.2-2.8-5.8-2.2-6,0.9c-0.3,4.6,0.2,9.1,2,13.4c1.2,2.8,4.8,1.7,5.3-0.8
	C1233,596.1,1232.5,591.5,1230.7,587.1L1230.7,587.1z"/>
<path class="st1" d="M1230.6,610.6c-1.3-2.4-4.6-1.3-4.5,1.3c1,24.4-10.4,45.1-14.9,68.3c-0.7,3.5,4.6,5.5,6.5,2.6
	C1229.1,665.6,1241.5,630.5,1230.6,610.6L1230.6,610.6z"/>
<path class="st1" d="M1339.4,674.3c-9.9-4-23.3,0-33,3.3c-7.3,2.5-18.5,6.8-20.3,15.4c-0.3,1.6,1.2,2.5,2.6,2.4
	c2.2-0.1,3.7-1.1,5.4-2.3c4-2.8,8.6-5,13.1-6.4c10.6-3.4,20.7-4,31.4-5.8C1342,680.2,1342.5,675.5,1339.4,674.3L1339.4,674.3z"/>
<path class="st1" d="M1365.6,679.8c-2.8-5.3-12.3-7.2-17.7-4.6c-3.7,1.8-1.8,6.6,1.9,6.5c4.9-0.2,9.7,4.1,14.5,1.3
	C1365.5,682.4,1366.3,681,1365.6,679.8L1365.6,679.8z"/>
<path class="st1" d="M1388.3,702.6c-2.5-7.6-7.2-19.2-16.7-18.7c-1.1,0-1.9,1.5-1.3,2.5c3.5,5.9,7.7,10.7,10,17.3
	c2.7,7.9,1.4,15.3,2.6,23.3c0.3,2.1,3.1,2.8,4.4,1.1C1392.5,721.1,1390.8,710.4,1388.3,702.6L1388.3,702.6z"/>
<path class="st1" d="M1352.8,687.5c-13-3.9-27.8-3.5-40.3,1.8c-2.5,1.1-1.3,5,1.4,4.6c9.2-1.5,20.2-2.3,29.3-0.4
	c4.5,1,8.8,1.8,13.1,3.4c6.6,2.5,8.5,8.3,12.6,13.2c1.6,1.9,4.4,0.9,4.8-1.4C1375.8,696.1,1362.9,690.5,1352.8,687.5L1352.8,687.5z"
	/>
<path class="st1" d="M1374.4,716c-0.8-1.4-2.7-1.6-3.9-0.3c-0.2,0.2-0.3,0.4-0.5,0.5c-0.7,0.7-0.7,1.9-0.3,2.7
	c1.3,3-1.9,6.3-0.3,9.7c0.6,1.2,2.2,2,3.4,1.3C1377.5,727.4,1379,718.9,1374.4,716L1374.4,716z"/>
<path class="st1" d="M1371.8,734.5c-0.9-3.2-5.2-3.2-5.8,0.1c-1,4.9-7.4,9.5-10.7,13.1c-2,2.2,0.5,6.1,3.3,5.4
	C1366.1,751.2,1374,742.6,1371.8,734.5L1371.8,734.5z"/>
<path class="st1" d="M1356.6,705c-3.1-5.8-11.6-7-17.5-6.6c-2.8,0.2-2.6,4.6,0.1,4.8c5.5,0.5,9.6,4.7,14.9,5.2
	C1355.8,708.6,1357.5,706.7,1356.6,705L1356.6,705z"/>
<path class="st1" d="M1360.5,711.8c-1.1-1.5-3.4-0.7-3.7,1.1c-0.9,6.4-0.2,16.4-5.7,21c-3.3,2.8-7.9,6.1-10,9.9
	c-0.6,1.1,0,2.7,1,3.4c6.4,4.6,14.7-5.6,18.1-10.3C1364.9,730,1365.3,718.5,1360.5,711.8L1360.5,711.8z"/>
<path class="st1" d="M1335.4,746.3c-4.5,2.3-8.7,4-11.9,8c-1.8,2.3,0.8,5.1,3.3,4.1c2.1-0.8,4.2-1.2,6.3-2.1c2.2-1,3.8-2.9,5.6-4.5
	C1341.5,749.5,1338.8,744.6,1335.4,746.3L1335.4,746.3z"/>
<path class="st1" d="M1403.9,375.4c-36.4-7.1-84.3,1.8-112.1,17.4c-0.2,0.1-0.3,0.3-0.5,0.4c-1.2,0.7-2,2.1-1.1,3.8
	c0,0.1,0.1,0.1,0.1,0.2c0.1,0.2,0.3,0.2,0.4,0.4c0.2,0.4,0.6,0.7,0.9,1c0.1,0.1,0.2,0.2,0.3,0.2c0.4,0.2,0.8,0.3,1.3,0.2
	c0.3,0,0.5,0.2,0.8,0.1c16.2-2.8,31.1-10.6,47.2-13.8c20.8-4,41.9-2.1,62.9-3.2C1408.2,382,1407.5,376,1403.9,375.4L1403.9,375.4z"
	/>
<path class="st1" d="M1435,381.3c-6.1-3.5-14.9-3.9-21.8-2.5c-2.3,0.5-2.3,3.2-0.5,4.2c5.5,3.1,14.9,4.6,21,3.1
	C1435.8,385.6,1437.2,382.6,1435,381.3L1435,381.3z"/>
<path class="st1" d="M1560.9,455.6c-21.2-35.6-72.8-65.9-113.1-72.7c-3-0.5-4.5,3.7-2.1,5.4c4.3,3,8.2,4.6,13.3,6.2
	c15.2,4.7,28.5,12.1,42,20.5c20.8,13,37.3,27.9,55.2,44.5C1558.4,461.6,1562.5,458.3,1560.9,455.6L1560.9,455.6z"/>
<path class="st1" d="M1578.2,475.4c-2.5-5.3-7.2-14.3-13.6-15.1c-2.7-0.4-5.2,3.4-3,5.5c4.3,4.3,6.3,10.2,11.7,13.6
	C1575.9,481,1579.6,478.6,1578.2,475.4z"/>
<path class="st1" d="M1587.9,504.6c-0.3-5.6-1.5-19.5-9.9-18.6c-1.4,0.1-2.1,1.5-2,2.8c0.6,6,4.4,11.8,6.3,17.5
	C1583.4,509.7,1588.1,507.7,1587.9,504.6z"/>
<path class="st1" d="M1501.1,425c-17.1-16.4-41.7-25.5-64.7-30.3c-26.5-5.5-71.2-16.7-96.5-2.5c-1.5,0.9-1.6,3.8,0.6,3.8
	c0.5,0,1.2,0.1,1.6-0.4c1.8-2.7,30.7,0.5,35.8,0.7c17.2,0.5,34,2.8,50.8,5.9c25.9,4.8,46.1,17.2,69.6,27.9
	C1501.5,431.6,1503.3,427.2,1501.1,425L1501.1,425z"/>
<path class="st1" d="M1520.4,437.4c-4.4-4-7.2-8.4-13.8-8.8c-3.5-0.2-5.1,4.9-1.6,6.2c2.3,0.9,4.2,2.5,6.1,4.1
	c1.9,1.6,4.3,2.5,6.6,3.3C1520.8,443.3,1522.7,439.5,1520.4,437.4L1520.4,437.4z"/>
<path class="st1" d="M1579.8,526c0-33.8-24-66.7-53-82.3c-2.5-1.4-4.1,2.4-2.3,4.1c10.8,9.7,21.9,20.6,30.6,32.2
	c10.1,13.5,13.5,31.2,18.3,47C1574.3,530.2,1579.8,529.3,1579.8,526L1579.8,526z"/>
<path class="st1" d="M1580.8,536c-0.8-3.1-5.4-4.3-6.7-0.7c-1.8,5.1-0.4,11.1,1.6,15.9c1.1,2.7,5.2,2,5.5-0.9
	C1581.7,545.5,1582,540.7,1580.8,536L1580.8,536z"/>
<path class="st1" d="M1581.1,558.5c-0.3-1.8-2.4-3-4.1-2.2c-0.2,0.1-0.4,0.2-0.5,0.3c-1.2,0.6-1.6,1.7-1.3,2.8
	c-1.2,4.1-1.3,7.8-0.7,12.1c0.3,2.6,4.3,3.2,5.2,0.6C1581.2,567.3,1581.9,563.4,1581.1,558.5L1581.1,558.5z"/>
<path class="st1" d="M1431.8,412.1c-7.9-5-17.8-7.8-27.2-8.2c-2.7-0.1-5.1,3.9-2.2,5.5c8.2,4.6,18.1,6.6,27.2,8
	C1432.5,417.8,1434.3,413.7,1431.8,412.1L1431.8,412.1z"/>
<path class="st1" d="M1541.2,481c-7.2-19.1-24.5-27.9-39.2-40.7c-16.6-14.4-39.9-20-60.1-26.6c-2.8-0.9-4.4,2.4-2.4,4.3
	c11,10.2,31.5,14.1,44.7,21.5c19.7,11.1,38.2,26.4,51.4,44.8C1537.9,487.5,1542.5,484.4,1541.2,481L1541.2,481z"/>
<path class="st1" d="M1558.4,507.4c-2-7.7-5.5-14.8-11.2-20.4c-3.1-3-7.8,0.5-5.3,4.2c2.3,3.3,3.8,7.1,5.4,10.8
	c1.5,3.5,3.5,5.8,6.3,8.3C1555.5,512,1559.1,510,1558.4,507.4L1558.4,507.4z"/>
<path class="st1" d="M1568.1,556c0.6-12-0.5-29.2-8.4-38.8c-1.4-1.7-4.1-0.4-3.8,1.7c1.4,14.3,3.6,28.7,2.8,43.1
	c-0.8,16-6.2,31.3-7,47.2c-0.2,3.1,3.6,3.8,5,1.3C1565.6,594.2,1567.3,574.1,1568.1,556L1568.1,556z"/>
<path class="st1" d="M1462.4,438.3c-2.1-1.5-4-2.8-6.4-3.6c-2.7-0.9-4.9-3-7.7-2.9c-2.8,0-4,3-1.9,4.9c4.4,4.1,9.1,5.7,15.1,5.4
	C1463.4,442.1,1463.8,439.3,1462.4,438.3L1462.4,438.3z"/>
<path class="st1" d="M1519.3,480.9c-4.3-12.4-14.5-19.5-24.4-27.8c-5.2-4.4-18.7-15.2-26.2-12.5c-1.4,0.5-1.4,2.1-0.8,3.2
	c4.5,7.2,15.3,11.1,22.1,15.9c9.1,6.5,17.9,15.3,25.2,23.7C1517,485.6,1520.1,483.5,1519.3,480.9L1519.3,480.9z"/>
<path class="st1" d="M1522.9,485.1c-2.2-0.5-3.9,1.1-3.2,3.3c1.2,3.6,3.9,6.2,6.3,9c2.3,2.8,3.7,6.2,6.5,8.7c2,1.8,5.2,0,5.4-2.4
	C1538.7,496.4,1529.7,486.9,1522.9,485.1L1522.9,485.1z"/>
<path class="st1" d="M1541.1,512.4c-1.3-0.6-2.7,0.7-2.6,2c0.7,5.3,3.3,10.3,3.4,15.7c0.1,5.9,1.1,11.9,2,17.7
	c0.6,3.7,5.8,3.4,6.4-0.2C1552.1,537,1552.8,518.2,1541.1,512.4z"/>
<path class="st1" d="M1546.7,605c3.1-14.4,8.6-33.1,3.4-47.6c-0.8-2.2-4.2-1.5-4.4,0.7c-2,30.8-10.5,65.7-25.1,93
	c-1.4,2.7,2.6,4.4,4.3,2.4C1536.9,640,1542.9,622.5,1546.7,605L1546.7,605z"/>
<path class="st1" d="M1502.5,477.4c-3.4-5.7-9.3-10.3-15.7-12.1c-2.7-0.8-5.4,3-2.6,4.7c5.1,3.1,9.1,7.6,14,10.8
	C1500.4,482.2,1504.1,480,1502.5,477.4L1502.5,477.4z"/>
<path class="st1" d="M1534.1,539c-2.4-20.8-10.6-41.7-27.9-54.6c-1.6-1.2-3.4,0.9-2.3,2.4c5.6,7.7,10.3,16.2,14.5,24.7
	c4.5,9.2,6.7,19.5,10.4,29C1530,543.7,1534.5,542.1,1534.1,539L1534.1,539z"/>
<path class="st1" d="M1535.4,547.7c-1.2-3.2-6.2-1.6-5.7,1.7c1.1,7.1-0.4,14.3,0.9,21.4c0.3,1.8,3.1,2.9,4.2,1
	C1539.4,564.2,1538.4,555.6,1535.4,547.7L1535.4,547.7z"/>
<path class="st1" d="M1534.7,581.2c-0.3-3-4.7-2.7-5.1,0.1c-3.2,23.7-13.4,47.4-26.9,66.8c-2.2,3.2,1.8,7.2,4.9,4.7
	C1525.6,638.8,1537.4,603.6,1534.7,581.2L1534.7,581.2z"/>
<path class="st1" d="M1495.9,656.7c-2.5,2.9-5.3,4.6-7.4,7.9c-1.6,2.5,0.7,5.5,3.6,4.5c4.8-1.8,7.7-4.2,10.2-8.9
	C1504.2,656.3,1498.4,653.7,1495.9,656.7L1495.9,656.7z"/>
<path class="st1" d="M620.8,164.4c-51.4,37.1-92.1,107.9-97.5,171c-0.2,2.9,3.6,3.7,4.8,1.2c4-8.2,7.1-17.8,8.9-26.8
	c3.8-18.6,12.8-35.7,20.5-52.9c15.5-34.3,42.4-61.3,68.1-87.9C628.5,166.2,623.8,162.2,620.8,164.4L620.8,164.4z"/>
<path class="st1" d="M648.4,141.1c-7.1,3.2-14.8,7.3-19,14.2c-2.4,4,2.5,7.5,5.7,4.2c5.5-5.7,13.5-7.4,16.9-14.9
	C653.1,142.4,650.5,140.2,648.4,141.1z"/>
<path class="st1" d="M673.1,125.5c-0.1-1.9-2.3-2.6-3.9-2.1c-4.2,1.4-6.7,5.4-10.6,7.4c-3.3,1.6-1.6,5.9,1.7,5.8
	C666.3,136.4,673.3,131.9,673.1,125.5L673.1,125.5z"/>
<path class="st1" d="M933.6,64c-44.7-8-89.6-0.7-133.9,6.6c-20.4,3.4-40.4,9.4-59.8,16.6c-18.8,7.1-42.1,13.6-56.8,27.9
	c-1.7,1.7-0.1,4.9,2.3,3.8c39-18.8,80.4-34.3,123.4-41.3c42.2-6.9,82.4-7.1,125-8.3C936.9,69.3,936.4,64.5,933.6,64L933.6,64z"/>
<path class="st1" d="M968.2,66.3c-3.7-1.9-8.1-2-12.1-2.4c-4-0.4-7.2-0.7-11,0.2c-2.6,0.6-3.1,3.5-1.3,5.2c2.6,2.5,6.3,2,9.7,2.6
	c4.5,0.7,9.6,1.4,14.1,0.5C970.8,71.7,971,67.7,968.2,66.3L968.2,66.3z"/>
<path class="st1" d="M995.5,70.3c-2.8-3.6-10.5-5-14.6-3.1c-2.9,1.4-2.6,6.6,1,6.6c4.5,0,8,2.7,12.5,0.7
	C996,73.8,996.6,71.7,995.5,70.3L995.5,70.3z"/>
<path class="st1" d="M1113.1,115.2c-14.1-14.2-34.1-22-52.3-29.6c-15.4-6.4-35-14.5-52-13.6c-2.2,0.1-2.4,3.5-0.5,4.2
	c14.4,5,28.8,10.2,43.3,14.9c20.6,6.7,38.6,19.4,58,28.9C1112.2,121.3,1115.3,117.3,1113.1,115.2L1113.1,115.2z"/>
<path class="st1" d="M774.4,96.7c-46.3,11.2-98.8,36.9-134.9,68.5c-19.3,16.9-35.9,32.7-51.3,53.4c-14.1,18.8-32,43.3-34.5,67.4
	c-0.3,3.1,4,3.4,4.7,0.5c5.8-24.3,25.7-48.6,40.6-68.3c14.9-19.8,32.3-34.3,50.8-50.3c35.9-31.1,84.5-45.4,126.5-65
	C779.4,101.4,778.1,95.8,774.4,96.7L774.4,96.7z"/>
<path class="st1" d="M805.7,85.1c-4.1-0.6-8,0.9-11.8,2.1c-4.4,1.4-8.6,3-12.9,4.9c-2.9,1.3-1.6,5.9,1.6,5.3c4.5-0.8,9-1.8,13.5-2.8
	c3.9-0.9,7.9-1.5,11.3-3.8C809.8,89.2,808.3,85.5,805.7,85.1z"/>
<path class="st1" d="M833.3,80.8c-4.8-0.8-15.1-0.5-16.1,5.7c-0.3,1.8,1.4,2.9,3,2.8c4.8-0.2,9.7,0.1,14.1-2.2
	C837.2,85.5,836.6,81.3,833.3,80.8z"/>
<path class="st1" d="M976.6,79.5c-39.8-8-81.5-8.5-121.5-1.8c-5.3,0.9-4,9.1,1.3,8.2c40.5-6.2,79.2,0.6,119.5-0.2
	C979.9,85.6,980.7,80.3,976.6,79.5L976.6,79.5z"/>
<path class="st1" d="M1008.9,85.9c-6.1-3.7-14.2-4.5-21.3-3.9c-2.8,0.3-2.5,4.4,0.1,4.8c6.9,1,13.2,3.3,20.2,3.1
	C1009.9,89.8,1010.5,86.8,1008.9,85.9L1008.9,85.9z"/>
<path class="st1" d="M1176.9,182.6c-39.5-44.8-96.4-87.2-157.5-94.9c-2.8-0.3-4,4.1-1.2,4.8c24.7,6.8,49.1,17.5,71.6,29.7
	c32,17.3,54.5,43,83.2,64.3C1175.6,188.4,1179,185,1176.9,182.6L1176.9,182.6z"/>
<path class="st1" d="M604.6,227.4c-6.3,4.8-13.8,11-15.2,19.3c-0.2,1.4,1.1,2.4,2.3,2.2c3.7-0.4,4.9-3.9,7.2-6.2
	c3.6-3.7,6.7-7.3,9.5-11.6C610.1,228.6,607.1,225.5,604.6,227.4L604.6,227.4z"/>
<path class="st1" d="M758.5,120c-29.3,7.6-57,22.2-82.8,38c-21.2,12.9-56.2,34-62.9,60c-0.6,2.4,2.5,4.8,4.2,2.3
	c31.9-49.4,93.2-69.9,143.3-94.3C763.4,124.6,762.1,119.1,758.5,120L758.5,120z"/>
<path class="st1" d="M787.2,109.3c-6.6-0.6-13.7,3.1-19.2,6.3c-3.8,2.2-1.3,8.3,2.8,6.3c5.8-2.8,12.7-3.7,18-7.1
	C791.2,113.4,789.7,109.5,787.2,109.3L787.2,109.3z"/>
<path class="st1" d="M813.8,102.5c-3.7-0.8-7.9,0.8-11.4,1.9c-4,1.3-1.7,6.8,2,6.6c3.7-0.2,8.2-0.6,11-3.2
	C817.3,106,816.4,103,813.8,102.5L813.8,102.5z"/>
<path class="st1" d="M1056.1,115.9c-31.3-20-74.8-24.4-111-27C905.8,86,866.5,90.8,828.1,99c-2.9,0.6-3.1,5.4,0.1,5.5
	c36.1,0.8,71.1-11.3,107.8-8.4c40.8,3.3,79.2,10,117.7,24.1C1056.2,121.1,1058.5,117.5,1056.1,115.9L1056.1,115.9z"/>
<path class="st1" d="M1083.8,125.5c-5.8-3.2-12.8-5.6-19.3-6.6c-2.7-0.4-3.9,3.2-1.9,4.8c5.5,4.2,13.2,6.2,20,6.7
	C1085.6,130.5,1086.2,126.8,1083.8,125.5L1083.8,125.5z"/>
<path class="st1" d="M1106,141.9c-5.6-4.3-9.7-9.6-17.3-10.4c-3.1-0.3-4.4,4.3-1.3,5.4c2.9,1.1,5.3,3.1,7.6,5.1
	c2.8,2.3,5.1,3.4,8.5,4.4C1106.2,147.1,1108.5,143.8,1106,141.9L1106,141.9z"/>
<path class="st1" d="M1199.9,246.4c-15.5-41.8-51.4-75.6-88.6-98.3c-1.9-1.2-4.6,1.1-2.9,3c12.2,13.6,28.4,23.7,41.6,36.5
	c16.9,16.4,32.6,41.1,44.5,61.2C1196.5,252.1,1201.3,250.1,1199.9,246.4L1199.9,246.4z"/>
<path class="st1" d="M1207.5,266.6c-0.1-4.1-1.7-8.5-4.9-11.2c-2.3-2-5.4,1-4.4,3.5c1.3,3.4,2.3,6.9,4.3,9.9
	C1204.2,271.6,1207.6,269.1,1207.5,266.6L1207.5,266.6z"/>
<path class="st1" d="M873.7,108.4c-35.6-0.6-75.4,13.8-109.2,24c-35.8,10.8-83.3,29.6-105.3,61.8c-1.2,1.7,1,4,2.7,2.6
	c58.7-50.1,137.6-69.5,212-82.1C877.2,114.1,877.3,108.4,873.7,108.4L873.7,108.4z"/>
<path class="st1" d="M910.5,106.8c-3.8,0.2-7.7-0.3-11.6-0.5c-3.9-0.1-6.3,0.2-10,1.9c-2.4,1.1-2,4.9,0.8,5.2
	c3.8,0.3,7.7,0.5,11.5,0.8c3.7,0.2,7.3-1.2,10.8-2.3C915.1,110.9,913.2,106.7,910.5,106.8L910.5,106.8z"/>
<path class="st1" d="M936.6,106.7c-4.4-0.7-8.9-0.4-13.2,0.2c-3.4,0.4-3.4,6.2,0.1,6.2c4.8-0.1,9.3,0.4,13.9-1
	C940.3,111.2,939.2,107.1,936.6,106.7L936.6,106.7z"/>
<path class="st1" d="M1098.7,159.1c-40.2-33.2-98.4-53.5-150.8-51.6c-3.6,0.1-3.2,5.8,0.1,6.2c23.8,2.7,48.6,6.3,71.6,13.1
	c27.5,8.1,50.8,23.2,75.4,37.3C1098.4,165.8,1101.7,161.6,1098.7,159.1L1098.7,159.1z"/>
<path class="st1" d="M1122.8,177.2c-4.7-4.8-9.3-10.1-16.4-11c-3.3-0.4-4.7,4.7-1.4,5.8c5.6,1.9,8.9,7.6,14.3,10
	C1122,183.1,1125,179.4,1122.8,177.2L1122.8,177.2z"/>
<path class="st1" d="M1141.4,194.4c-1.8-2.6-3.6-4.6-6.1-6.6c-2.2-1.8-3.9-4-6.9-4.3c-2.5-0.3-4.1,2.7-2.6,4.7
	c3.5,4.4,6.8,7.4,11.7,10.2C1140.3,199.9,1143.3,197.1,1141.4,194.4L1141.4,194.4z"/>
<path class="st1" d="M1181.4,245.1c-2.1-9.9-8.6-19.5-15.2-27.1c-5.5-6.4-9.8-12.7-16.9-17.2c-1.8-1.2-4.8,0.6-3.6,2.9
	c3.4,6.2,9,11.3,13.1,17c3.3,4.5,6.6,8.8,9.7,13.5c2.9,4.4,4.7,9.1,8.4,12.9C1178.6,248.7,1182,247.8,1181.4,245.1L1181.4,245.1z"/>
<path class="st1" d="M1206.8,296.7c-5.4-14.8-11.6-31.6-22.9-43c-2-2.1-6.4-0.1-4.7,2.9c6.4,10.9,10.9,22.5,15.9,34.1
	c6.7,15.5,8.8,31.5,13.2,47.7c0.7,2.6,5.3,3.1,5.3-0.1C1213.4,324,1211.7,310,1206.8,296.7L1206.8,296.7z"/>
<path class="st1" d="M737.1,160.4c-7.3,2.1-15.1,3.7-20.7,9.2c-2.9,2.8,0.5,7.2,3.9,4.9c2.2-1.6,5.2-2.9,7.7-3.9
	c3.7-1.4,7-3.5,10.5-5.4C740.9,163.9,740.1,159.5,737.1,160.4L737.1,160.4z"/>
<path class="st1" d="M995.6,129.7c-45.4-13.5-91.5-10.2-138-6.6c-20.4,1.6-39.7,6.6-59.4,11.9c-15.3,4.1-36.1,8.6-48,19.3
	c-2.2,1.9-0.1,5.9,2.7,4.5c30.3-15,72.1-26.8,106-27.7c23.6-0.7,46.8-4.4,70.5-3.1c21.9,1.1,43.2,5.9,64.9,7.1
	C997.2,135.2,998.7,130.7,995.6,129.7L995.6,129.7z"/>
<path class="st1" d="M1030.2,140.3c-7.3-3.4-14.2-6.7-22.2-8c-3-0.5-4.6,3.8-2.1,5.4c7.2,4.8,14.9,6,23.3,7.1
	C1031.8,145.2,1032.5,141.4,1030.2,140.3L1030.2,140.3z"/>
<path class="st1" d="M1183.5,281.5c-10.7-32.3-37.6-64.5-62.2-87.4c-24.1-22.5-51-35.6-81.1-48.5c-2.7-1.1-4.7,2.6-2.4,4.3
	c21.5,16.6,48.6,23.6,68.9,42.6c28.7,26.8,51.1,57.9,70.5,91.8C1179.4,288.1,1184.9,285.7,1183.5,281.5L1183.5,281.5z"/>
<path class="st1" d="M1192.7,310.8c-1.3-6.4-3.9-13-7.5-18.5c-1.5-2.3-5.3-1-5.5,1.6c-0.4,7.3,4.2,13.5,8.4,18.9
	C1189.6,314.9,1193.2,313.4,1192.7,310.8z"/>
<path class="st1" d="M1195.4,321.1c-1.9-2.3-6.1,0-4.6,2.8c8.2,15.7,5.1,33.7,9.6,50.2c1,3.7,6.4,4,6.9-0.2
	C1209.3,357.2,1206.6,334.5,1195.4,321.1L1195.4,321.1z"/>
<path class="st1" d="M1066.9,172.4c-36.9-26.7-87.6-34-132.2-37.3c-46.7-3.5-93.1-0.8-137.5,15.7c-2.3,0.8-1,4.1,1.1,3.9
	c22.1-2,43.6-9,65.7-11.7c23.1-2.8,46.8-3,69.8-0.1c18.5,2.3,37,5.2,55.5,8.2c27.5,4.4,49.7,15.7,74.3,27.2
	C1067.1,179.8,1069.9,174.6,1066.9,172.4L1066.9,172.4z"/>
<path class="st1" d="M1088.5,189.7c-4-4.3-7.7-9.1-14-9.7c-2.7-0.3-4.4,3.4-2,5c4.4,3,8.2,6.4,13,8.6
	C1087.8,194.7,1090.2,191.6,1088.5,189.7L1088.5,189.7z"/>
<path class="st1" d="M1108.5,208.1c-2.9-4.9-6.9-9.8-12.7-11.4c-3.2-0.9-5.5,2.9-2.9,5.1c3.8,3.2,7.3,6.6,11.1,9.8
	C1106.2,213.5,1110,210.7,1108.5,208.1L1108.5,208.1z"/>
<path class="st1" d="M1184.7,334.1c-3.1-24.1-16-50.5-29.3-70.7c-11-16.8-24-41.3-43.3-49.7c-1.4-0.6-2.6,1.2-1.8,2.3
	c12.1,16,25.7,30.3,36.4,47.7c14,22.6,23.4,47.2,33.6,71.7C1181.4,337.8,1185,336.6,1184.7,334.1z"/>
<path class="st1" d="M1186.1,341.7c-0.7-2.6-5.2-3-5.2,0.1c0.1,6.8,1.3,12.9,3.3,19.4c0.7,2.3,4.5,1.6,4.6-0.7
	C1189,353.9,1187.7,348.1,1186.1,341.7L1186.1,341.7z"/>
<path class="st1" d="M1193.4,370.8c-0.5-3.3-5.3-3.1-5.8,0.1c-1.9,13-2.6,25.6-2.6,38.7c0,4.1,5.5,4.8,6.3,0.7
	C1194.1,397.1,1195.6,384.4,1193.4,370.8L1193.4,370.8z"/>
<path class="st1" d="M1775,659c-48.4-29.7-115.4-32.8-170-42.3c-3.9-0.7-5.1,5.1-1.7,6.6c24,10.1,53.2,9.9,78.6,15.8
	c30.7,7.2,59.9,16.5,90.1,25C1775.1,664.9,1778.1,660.8,1775,659z"/>
<path class="st1" d="M1801.4,675.1c-5.7-4.6-12-8.1-19.2-9.9c-3.2-0.8-4.2,4.2-1.3,5.4c6.2,2.6,11.6,6.8,17.8,9.3
	C1801.7,681.2,1803.8,677,1801.4,675.1L1801.4,675.1z"/>
<path class="st1" d="M1817.4,684.3c-3.1-2.5-5.9-4.2-9.5-6.1c-3.1-1.6-5.8,3.4-2.9,5.2c3.4,2.3,6.2,3.7,10.1,4.9
	C1817.7,689.2,1819.6,686,1817.4,684.3L1817.4,684.3z"/>
<path class="st1" d="M1823.7,691c-2.3-1.4-5.3,1.2-3.4,3.5c8.4,10.5,19,18.9,25.8,30.8c3.6,6.3,5.5,14,7.1,21
	c2.6,10.8-3.1,15.9-9.1,23.3c-2.1,2.5,1.1,6.7,4.1,5.1C1882.7,755.4,1846.4,704.5,1823.7,691L1823.7,691z"/>
<path class="st1" d="M1836.3,772.8c-4.4,1.5-8.7,2.8-12.5,5.6c-3,2.2-0.6,6.5,2.7,6.2c5.3-0.5,10-3.2,13.3-7.4
	C1841.8,774.7,1838.9,771.9,1836.3,772.8L1836.3,772.8z"/>
<path class="st1" d="M1696.9,650.3c-8.2-4.9-18.1-6.1-27.4-6.6c-3.2-0.2-3.9,3.8-1.3,5.2c3.5,2,7.3,2.4,11.2,3.2
	c5.4,1.1,10.2,2.8,15.7,3C1697.4,655.1,1699.4,651.8,1696.9,650.3L1696.9,650.3z"/>
<path class="st1" d="M1830.3,712.3c-9.8-19.6-32.2-29.9-51.5-38.3c-20.3-8.9-48.2-22.5-71-20.3c-2.4,0.2-3,4.2-0.6,4.9
	c21.1,5.9,42,11.3,62.3,19.5c22.2,9,38.6,22.5,56.5,37.6C1828.2,717.5,1831.5,714.8,1830.3,712.3L1830.3,712.3z"/>
<path class="st1" d="M1840.8,733.4c-0.5-2.3-1.3-4.4-2.3-6.6c-1.2-2.8-3.6-4.2-4.9-6.7c-1.3-2.6-5.5-1.6-5,1.5
	c0.5,2.8,2.2,4,3.2,6.5c1.2,2.8,2.2,5.2,4.2,7.5C1837.8,737.3,1841.4,736.1,1840.8,733.4L1840.8,733.4z"/>
<path class="st1" d="M1842.2,741.4c-1.2-2.8-5.5-1.5-5.1,1.5c2.4,15.4-15.3,23.2-28,22.9c-9.4-0.2-18.5-1.9-28-1.7
	c-3.1,0.1-3.7,5.3-0.7,6.2c15.2,4.1,29.8,6.8,45,1.8C1838.5,767.7,1848,754.7,1842.2,741.4L1842.2,741.4z"/>
<path class="st1" d="M1810.6,710.8c-7.9-10.2-22.5-15.6-33.3-22.3c-11.9-7.4-29.3-13.6-43.3-14.5c-1.2-0.1-2.2,1.7-0.9,2.4
	c11.6,6.8,24.5,11.4,36.5,17.3c12.7,6.2,24.9,14.1,36.9,21.6C1809.3,717,1812.9,713.6,1810.6,710.8L1810.6,710.8z"/>
<path class="st1" d="M1826.7,728.4c-0.8-3-2.6-5-5.1-6.8c-1.5-1.2-3.7-4.5-6-4.5c-0.1,0-0.1,0-0.1,0c-2.1,0-4,2.4-2.3,4.3
	c1.4,1.6,1.9,3.3,3.6,4.8c1.9,1.7,3.7,3.4,5.7,4.9C1824.2,732.3,1827.3,730.7,1826.7,728.4L1826.7,728.4z"/>
<path class="st1" d="M1826.8,736.3c-1.5-2.3-5.4-0.5-4.8,2.1c1.5,6.5-5.2,9.8-8.8,13.9c-1.9,2.2,0.4,5.6,3.1,5.2
	C1826.1,755.8,1832.4,745.1,1826.8,736.3L1826.8,736.3z"/>
<path class="st1" d="M1806.1,752.1c-16.7,3.2-32.6-2.3-49.2-3.2c-3.3-0.2-4,3.9-1.4,5.4c8.8,4.9,19.4,7.1,29.4,6.8
	c9.2-0.2,14.4,1,22.7-3.8C1810.2,755.9,1809.4,751.5,1806.1,752.1L1806.1,752.1z"/>
<path class="st1" d="M1747.9,748.2c-3.4-2.5-6.4-2.8-10.5-2.9c-2.8,0-5.1,3.8-2.2,5.6c3.6,2.3,7.4,2.3,11.6,2
	C1749.1,752.8,1749.6,749.5,1747.9,748.2z"/>
<path class="st1" d="M1554.1,744.5c0.4-2.7-3.5-3.5-4.6-1.1c-12.1,26.8-21.8,53.2-37.8,78.3c-14.7,23.1-32.1,41.8-51.4,60.9
	c-2.1,2-0.1,6.2,2.8,4.6c22.4-11.9,36.3-33.5,50.5-53.7C1531.9,807.4,1549.3,776,1554.1,744.5L1554.1,744.5z"/>
<path class="st1" d="M1258.4,905.6c-4.6-3-9.8-5.7-15.4-6.3c-3.1-0.3-4.9,3.8-2.2,5.7c4.5,3.2,9.8,6,15.4,6.2
	C1259,911.4,1261.2,907.4,1258.4,905.6L1258.4,905.6z"/>
<path class="st1" d="M1363.6,918.8c-16.1-1.8-32.9-0.3-49.1-1.3c-14.7-0.9-28.8-6.8-43.4-7.9c-3.3-0.2-4,3.9-1.3,5.3
	c26.2,14.2,65.1,16.8,93.9,10.7C1367.5,924.8,1367.6,919.2,1363.6,918.8L1363.6,918.8z"/>
<path class="st1" d="M1390,913.5c-5.1,1.4-10.5,3.2-15.8,2.8c-3.2-0.2-5.1,4-2.3,5.9c6.7,4.7,13.8,0,19.7-3.5
	C1394,917.3,1393.3,912.6,1390,913.5z"/>
<path class="st1" d="M1452.2,889.2c-8.2,2.9-15.4,8.4-23.4,11.7c-10.2,4.1-20.4,8.6-31.1,11.3c-3.9,1-2.9,6.1,1,6
	c12.3-0.4,22.2-5.5,33.8-9c5.3-1.6,10.3-5.5,15.4-7.8c4.1-1.9,6.5-4.2,8.3-8.2C1457.3,890.5,1454.5,888.4,1452.2,889.2L1452.2,889.2
	z"/>
<path class="st1" d="M1314.7,903.5c-15.1-5.7-31.2-6.4-46.7-11.2c-24.5-7.6-45.4-19-66.2-33.9c-1.5-1.1-3.6,1-2.3,2.4
	c28.7,30.4,72,47.7,113.9,47.9C1316.3,908.7,1317.7,904.7,1314.7,903.5L1314.7,903.5z"/>
<path class="st1" d="M1340.1,904c-5.5-0.7-12.2-1-17.7-0.1c-2.1,0.3-2.6,2.9-1,4.2c5.3,4.3,13.5,4,19.6,1.8
	C1344,908.8,1342.9,904.4,1340.1,904L1340.1,904z"/>
<path class="st1" d="M1411.1,893.2c-10.2,2.6-20.1,4-30.4,5.9c-9.6,1.8-19.2,2.3-28.7,4.7c-2,0.5-2.4,3.2-0.4,4
	c9.1,4,20.9,1.4,30.5,0.1c10.2-1.4,24-0.5,31.9-8C1416.6,897.6,1415.1,892.1,1411.1,893.2L1411.1,893.2z"/>
<path class="st1" d="M1433.5,882c-3.1,2.4-7.8,5.3-11.5,6.5c-3,1-2,5.6,0.9,5.8c6.4,0.6,11-3.9,14.5-8.6
	C1439.2,883.2,1435.9,880.1,1433.5,882L1433.5,882z"/>
<path class="st1" d="M1497.5,819.3c-9.7,11.5-18.1,24.1-28.9,34.4c-9.3,8.8-19.1,16.7-28.4,25.4c-2.2,2-0.2,5.5,2.7,4.5
	c14-5.3,24.1-17.2,34.8-27.2c9.5-9,21.9-22.1,24.8-35.1C1503.1,818.3,1499.1,817.4,1497.5,819.3z"/>
<path class="st1" d="M1515.3,795.5c0-2.2-2.8-3.8-4.2-1.7c-2,2.9-3.8,6-5.8,8.9c-1.9,2.9-3.6,5.2-3.1,8.7c0.3,2,2.4,2.9,4.1,2.2
	C1512.1,811.4,1515.3,801.3,1515.3,795.5L1515.3,795.5z"/>
<path class="st1" d="M1227.1,860.5c-10.3-9.4-21.7-18.9-30.3-29.8c-4.2-5.4-9.9-17.7-16.9-19.7c-0.6-0.2-1.3,0.3-0.9,1
	c4.4,9.2,8.2,17.9,14,26.6c7.4,11.1,19.6,21,31.3,27C1227.5,867.1,1229.4,862.6,1227.1,860.5L1227.1,860.5z"/>
<path class="st1" d="M1253.7,875.9c-2.9-2.3-5.8-4.6-9.1-6.3c-2.7-1.4-6.2-3.6-9.2-3.6c-3,0-4.3,3.3-2.1,5.3
	c5.2,4.7,11.6,6.3,17.8,9.2C1254,881.9,1256,877.8,1253.7,875.9L1253.7,875.9z"/>
<path class="st1" d="M1372.7,887.8c-19.6-0.1-38.4,1-57.9-2.3c-17.4-3-35.4-7.3-53.1-8.1c-3.1-0.1-4,3.8-1.3,5.1
	c14.8,7.2,30.7,7.6,46.4,10.8c22.1,4.5,43.9,5.8,66,1.2C1376.4,893.7,1376.7,887.8,1372.7,887.8L1372.7,887.8z"/>
<path class="st1" d="M1398,880.3c-5,1.4-10.4,1.9-15.3,3.7c-2.8,1-2.8,5.7,0.1,6.5c6.6,1.8,12.5-0.8,17.5-5
	C1402.4,883.8,1401,879.5,1398,880.3L1398,880.3z"/>
<path class="st1" d="M1473.7,828.9c-9.7,8-17.9,16.8-28.2,24.2c-12.6,8.9-25.6,16.9-38.9,24.8c-2.2,1.3-1.6,5.5,1.4,4.8
	c15-3.8,26.6-12.1,39.3-20.5c12.7-8.4,23.2-16.6,30.6-30C1479.3,829.6,1475.7,827.3,1473.7,828.9L1473.7,828.9z"/>
<path class="st1" d="M1205.6,818.7c-4.3-7.4-10.1-13.1-14-20.9c-1.9-3.9-4-7.8-6.1-11.6c-1.8-3.3-5.2-9.7-5.2-13.4
	c-0.1-3-4.2-3.7-4.8-0.5c-1.6,8.5,3.8,18.9,7.5,26.2c4.8,9.8,8.8,17.3,17.6,24.2C1203.1,824.6,1207.4,821.6,1205.6,818.7
	L1205.6,818.7z"/>
<path class="st1" d="M1342.4,870.6c-50.1-2.4-90.6-11.1-130.7-42.5c-1.5-1.2-4.1,0.6-3.1,2.5c10.5,19.1,33.1,31.1,53.5,37.1
	c26.8,7.9,52.2,14.3,80.4,9.8C1346.3,876.9,1346.4,870.8,1342.4,870.6L1342.4,870.6z"/>
<path class="st1" d="M1372.8,871.4c-6.5,1-12.8,0.3-19.2,0.6c-2.8,0.1-3.7,4.3-1.4,5.7c7.1,4.5,15.3,2.7,22.2-0.9
	C1377.2,875.3,1376,870.8,1372.8,871.4L1372.8,871.4z"/>
<path class="st1" d="M1442.3,840.1c-9.3,6-17.7,12.4-27.7,17.4c-10.8,5.4-22.2,8.8-33.3,13.5c-3,1.3-1.6,5.8,1.6,5.4
	c13.8-1.8,25.8-6.8,38.3-12.7c10-4.7,20.3-10.2,25.7-20.2C1448.5,840.6,1444.5,838.7,1442.3,840.1z"/>
<path class="st1" d="M811.5,849c-6-5.1-13.6-8.6-20.4-12.6c-1.5-0.9-3.4,0.4-2.7,2.1c3.5,8.2,12.3,12.8,20.6,14.9
	C811.8,854.2,813.9,851,811.5,849L811.5,849z"/>
<path class="st1" d="M962.4,883.8c-33.4,1.2-61.7,1-93.3-11.9c-14.9-6.1-31.3-8.6-45.6-15.9c-2.7-1.4-5.3,2.5-3.5,4.6
	c11.8,13.7,36.6,15.9,52.8,22.5c28,11.5,61.2,14.9,90.5,6.7C967.2,888.8,966.4,883.7,962.4,883.8L962.4,883.8z"/>
<path class="st1" d="M991.7,879.1c-5.2,1.1-11.4,3.9-16.6,2.9c-4.5-0.8-6.5,6.8-2,8c8,2.1,14.5-0.9,21.1-5.2
	C996.9,883.1,994.7,878.5,991.7,879.1z"/>
<path class="st1" d="M1072.5,832.7c-9.2,9.1-19.4,16.7-29.8,24.4c-6,4.5-12.2,7.9-19.2,10.8c-6.9,2.9-13.4,7.5-20.8,8.8
	c-2.4,0.4-2.4,4.2,0.1,4.3c12.2,0.6,27.8-6.4,38.1-12.3c13.8-8.1,27.5-18.2,35.6-32.1C1078,834.1,1074.9,830.3,1072.5,832.7
	L1072.5,832.7z"/>
<path class="st1" d="M1105,804.8c0.5-3.5-4.2-4.1-5.6-1.4c-3.5,6.5-8.8,11.7-13.8,17c-2.5,2.6-7.4,6-5.8,10.1
	c0.3,0.8,1.3,1.3,2.1,1.1c4.7-0.8,8.9-5.2,12.3-8.2C1100.2,818.1,1103.7,812.8,1105,804.8L1105,804.8z"/>
<path class="st1" d="M1113.2,780.6c-2.8,2.6-5.8,6.9-6.6,10.6c-0.3,1.3,0.5,2.7,1.5,3.5c0.2,0.2,0.4,0.3,0.6,0.5
	c1,0.8,2.4,0.6,3.4,0c3.9-2.7,3.8-7.4,5.6-11.2C1118.9,781.3,1115.3,778.6,1113.2,780.6L1113.2,780.6z"/>
<path class="st1" d="M857.1,854.6c-12.6-7.1-27-11.1-39.5-18.5c-16.3-9.8-33.6-21.9-47-35.6c-1.1-1.1-3.3,0-2.4,1.5
	c16.6,28.4,54.2,53,86.2,59.4C858,862.1,860.4,856.5,857.1,854.6L857.1,854.6z"/>
<path class="st1" d="M886.7,862.1c-3.6-1.2-7.2-2.3-10.9-3.2c-3.2-0.7-6.2-1.9-9.5-1.8c-1.8,0.1-2.4,2.5-1.4,3.7
	c4.7,5.8,13.3,7.3,20.4,7.2C888.4,868,890.3,863.4,886.7,862.1L886.7,862.1z"/>
<path class="st1" d="M1006.7,861.2c-14.7,2.6-28.9,6.7-43.7,8.1c-21.9,2.1-41.8,0-63.2-4.1c-3.5-0.7-4.6,4.6-1.5,5.9
	c32.1,12.9,78.9,11.7,110.4-3.4C1012.1,866.1,1010.6,860.5,1006.7,861.2L1006.7,861.2z"/>
<path class="st1" d="M1035.2,844.8c-6.7,4.3-13.9,9.9-22,11.2c-3.5,0.6-3.4,5.8,0.2,6.2c10.8,1.3,19.4-5.6,25.9-13.5
	C1041.6,846,1037.8,843.1,1035.2,844.8z"/>
<path class="st1" d="M1086.1,802c-6.9,4.9-11.7,11.9-18.8,16.5c-8,5.2-15.5,11.4-23.6,16.6c-4.3,2.7,0.7,8.8,4.9,6.1
	c14.5-9.2,34-19.8,42.5-35.6C1092.7,802.6,1088.5,800.3,1086.1,802L1086.1,802z"/>
<path class="st1" d="M767,766.8c-2.2-3.7-3.9-7.6-5.9-11.3c-1.7-3.1-5-6-5.4-9.5c-0.3-3.2-5.6-3.1-5.6,0.1c-0.1,4.5,2,7,4,10.8
	c2.6,5.1,4.9,9.2,9,13.2C764.9,771.8,768.3,769.1,767,766.8L767,766.8z"/>
<path class="st1" d="M838.4,830.8c-11.6-9.5-25.7-15.6-37.6-24.8c-11.7-9-21.9-20.1-30.2-32.2c-1.1-1.6-3.8-0.3-3.4,1.5
	c5.3,27.2,43.1,55.9,69,61.3C839.5,837.2,840.7,832.7,838.4,830.8L838.4,830.8z"/>
<path class="st1" d="M963.6,850.5c-40.2,2.1-75-5-113.1-16.3c-2.4-0.7-4.7,2.5-2.3,4.1c29.5,19.7,82.7,29.5,116.7,20
	C969.7,856.9,968.7,850.3,963.6,850.5L963.6,850.5z"/>
<path class="st1" d="M994.2,843.7c-6.2,2.1-13.6,3.3-19.2,6.7c-1.8,1.1-2.4,3.5-0.5,4.9c3.1,2.3,7.2,0.6,10.6-0.2
	c4.8-1.2,8.3-3.7,12.1-6.6C999.8,846.4,997.1,842.7,994.2,843.7L994.2,843.7z"/>
<path class="st1" d="M1054.6,809.4c-8.4,5.8-16.3,13.1-25.7,17.4c-9,4.2-17.2,12.3-26.9,14.9c-3.2,0.9-2.6,5.7,0.8,5.3
	c11.9-1.3,21.3-9.1,31.9-13.6c5.2-2.2,10.8-6.5,15.5-9.6c4.9-3.2,7.5-6,8.9-11.7C1060,809.2,1056.4,808.1,1054.6,809.4L1054.6,809.4
	z"/>
<path class="st1" d="M883,829.9c-28.3-14.7-59.4-20.5-82.3-44.7C781.5,765,771,742.5,756,719.5c-0.7-1-2.7-0.8-3,0.5
	c-2,7.3,4.6,18,7.6,24.2c9.2,18.9,19.3,31.2,33.3,46.6c21.1,23.2,56.8,40.5,87.7,45C885.1,836.2,885.8,831.4,883,829.9L883,829.9z"
	/>
<path class="st1" d="M916.3,834.1c-6.9-3.7-14.5-4.2-21.9-6.3c-4.3-1.2-6.9,4.8-2.6,6.5c7.6,3.1,15,4.8,23.2,5.2
	C918.2,839.7,919.1,835.6,916.3,834.1L916.3,834.1z"/>
<path class="st1" d="M1025.8,814.4c-29.2,16.4-66.1,22.5-99.2,17.3c-5.4-0.8-6.3,7.5-0.9,8.4c31.4,5.1,79.5,3.3,103.1-20.8
	C1030.8,817.1,1028.9,812.6,1025.8,814.4z"/>
<path class="st1" d="M368.6,670.5c-3.5-3.3-7.4-6-11.1-9.1c-2.6-2.1-3.9-5.8-7.7-5.5c-1.2,0.1-2,1.6-1.4,2.6c2,3.6,3.1,6.7,6.2,9.6
	c3.8,3.6,7.1,6.1,12.2,7.1C369.6,675.9,370.3,672.1,368.6,670.5L368.6,670.5z"/>
<path class="st1" d="M518.3,740.5c-22.3-9.4-46.9-14-69.7-22.3c-22.8-8.4-52.8-23.1-70.7-40c-1.7-1.6-4.9,0.4-4.3,2.6
	c2.1,7.8,7.6,10.5,14.5,14.7c14.6,9,29.5,19.5,45.5,25.7c27.7,10.7,53.3,21.2,82.9,26.1C520.6,747.9,521.9,742,518.3,740.5
	L518.3,740.5z"/>
<path class="st1" d="M551.9,743.5c-6.9-0.5-14-2.5-20.9-2.1c-3,0.1-3.8,4.6-1.5,6.2c6.7,4.6,16,4.7,23.3,1.8
	C555.5,748.2,554.9,743.7,551.9,743.5L551.9,743.5z"/>
<path class="st1" d="M658.1,725.3c-31.8,8.1-61.6,17-94.5,20c-3.6,0.3-3.5,6.1,0.1,6.4c31,2.1,70.4-2.7,97-20.5
	C663.4,729.4,661.3,724.5,658.1,725.3L658.1,725.3z"/>
<path class="st1" d="M683.5,715.5c-5.3,2.4-11.1,3.5-16.4,5.9c-4.7,2.2-1.5,8.8,3.2,7.2c2.8-0.9,5.8-1.1,8.6-2.2
	c3.1-1.2,5.3-3.7,7.6-5.9C688.8,718.3,686.7,714,683.5,715.5L683.5,715.5z"/>
<path class="st1" d="M735.4,691.4c-7.9,0.7-16.3,7.6-23.4,11c-6,2.9-14,4.5-18.3,10.1c-1.8,2.3,1.3,5.2,3.6,3.5
	c2.2-1.7,6.3-2.4,9-3.2c4.5-1.4,8.9-2.8,13.1-4.8c6.3-2.9,14.8-5.8,19.1-11.4C740.5,694.2,738.2,691.1,735.4,691.4L735.4,691.4z"/>
<path class="st1" d="M768.5,668.9c-4.2,2.3-8.2,4.3-12.2,7c-3.9,2.7-7.8,5.2-11.8,7.8c-3.2,2.1,0.1,6.8,3.3,5.5
	c4.5-1.8,8.6-3.6,12.9-5.9c4.8-2.5,7.9-5.7,11.4-9.8C774.2,671.2,771.2,667.3,768.5,668.9L768.5,668.9z"/>
<path class="st1" d="M436.3,698.6c-22-19.9-49.9-29.9-70.8-51.8c-17.5-18.2-31-40.8-41-63.8c-0.5-1.2-2.2-0.6-2.1,0.6
	c3.1,58,66.2,96.7,110.6,121C436.6,706.6,438.9,701,436.3,698.6L436.3,698.6z"/>
<path class="st1" d="M463.4,706.6c-5-2.2-10.2-4.3-15.6-5.7c-4.2-1.1-6.9,4.8-2.6,6.4c5.9,2.3,10.9,5.7,17.5,5.3
	C466.1,712.6,466,707.8,463.4,706.6L463.4,706.6z"/>
<path class="st1" d="M602.3,721.7c-40.6,7.7-86.8,5-125.4-10.9c-3.2-1.3-5.6,3.1-2.9,5.2c16.4,13,41.1,14.8,61.2,18
	c22,3.5,48.7,4,69.3-5.1C608.3,727.1,606.5,720.9,602.3,721.7L602.3,721.7z"/>
<path class="st1" d="M631.6,715.5c-3.8,0.7-7.6,1-11.4,1.8c-3,0.6-6.8,1-9,3.3c-1.2,1.3-1.4,3.8,0.7,4.5c7.3,2.4,14.8-0.9,21.5-4
	C636.2,719.6,634.9,714.9,631.6,715.5z"/>
<path class="st1" d="M649.8,711.4c-2.1,0.2-4.2,0.6-6.3,0.8c-5.6,0.6-3.6,9.6,2.3,7.7c2-0.6,3.9-1.4,5.9-2.1
	C655.6,716.6,653.5,711,649.8,711.4L649.8,711.4z"/>
<path class="st1" d="M728.2,675.4c-22.6,7.9-41.8,23.9-65.6,29.4c-2.4,0.6-3.5,3.7-1.3,5.4c6.6,4.8,23.2-4.8,29.6-7.3
	c13.8-5.4,28.6-13.4,40.1-22.8C733.6,678,731.1,674.4,728.2,675.4L728.2,675.4z"/>
<path class="st1" d="M337,577.1c-5.2-20.8-11.5-43.4-11.7-65c0-2.8-3.8-3.3-4.4-0.5c-4.7,22.6,0.6,47,10.7,67.1
	C332.9,581.5,337.8,580.4,337,577.1L337,577.1z"/>
<path class="st1" d="M349,605.1c-1.5-6.5-5-13.8-9-19.2c-1.9-2.5-5.1-0.4-5,2.2c0.3,6.7,3.5,14.7,8.1,19.6
	C345.1,609.9,349.8,608.6,349,605.1L349,605.1z"/>
<path class="st1" d="M368,630.5c-3.9-7.1-9.3-12.8-14.1-19.2c-2-2.7-5.9,0-4.8,2.9c2.8,7.6,7.8,15,14.1,20.2
	C365.6,636.5,369.6,633.4,368,630.5z"/>
<path class="st1" d="M499.7,700.5c-19.6-8.2-39.9-14-59.4-22.7c-20.8-9.3-48.5-22.7-63.8-40c-2.5-2.8-6.4,0.5-4.5,3.5
	c12.5,20,37.3,29.8,57.2,41c20.9,11.7,45.2,20.9,68.7,25.1C502,708.1,503.3,702,499.7,700.5L499.7,700.5z"/>
<path class="st1" d="M528,707.7c-3.3-0.8-6.5-1.4-9.8-2.1c-3.1-0.6-4.8-2.5-8.2-1.8c-3.2,0.6-3.7,4.3-1.6,6.3
	c5,4.8,12.2,5.8,18.8,4.8C530.6,714.5,531.8,708.7,528,707.7L528,707.7z"/>
<path class="st1" d="M611.9,705.7c-13.7,1.4-27.2,2.6-40.9,3.6c-9,0.7-26-5.3-33.5,0.8c-0.8,0.7-1,1.9-0.3,2.7
	c5.8,7.4,25.5,5.7,34,5.5c14.2-0.3,29.8,1.1,42.8-5.5C617.9,710.8,616.2,705.2,611.9,705.7L611.9,705.7z"/>
<path class="st1" d="M639.4,697.4c-5.5,1.2-11.1,2.8-16.7,2.9c-2.7,0.1-3.7,4.4-1.4,5.7c6.4,3.8,14.7-0.3,20.2-3.8
	C644,700.8,642,696.8,639.4,697.4L639.4,697.4z"/>
<path class="st1" d="M678.4,684.1c-7.9,2.4-15.6,5.3-23.4,8c-2.7,0.9-8.1,1.1-7.5,5.6c0.1,1,1,1.7,2,1.9c11.2,2,23.1-3.6,32.5-9.6
	C685.5,687.6,681.8,683,678.4,684.1L678.4,684.1z"/>
<path class="st1" d="M339.4,454.2c-0.1-2.4-3.5-1.9-4,0.1c-6.2,27.7-6.3,62.5,2.1,90.1c0.8,2.7,5.6,2,5.6-0.9
	C343.1,514,340.4,483.7,339.4,454.2L339.4,454.2z"/>
<path class="st1" d="M425.6,654.1c-18-16.9-47.3-28-58.7-51.1c-5-10-10.3-17.5-13.5-28.6c-2.3-7.9-4.7-15.6-8.5-22.8
	c-0.9-1.7-3.7-1-3.3,1c4.1,22,10.4,38.1,20,57.9c10.1,20.9,40.6,38.7,59.6,49.6C425.3,662.6,429.1,657.5,425.6,654.1L425.6,654.1z"
	/>
<path class="st1" d="M449.6,666.7c-4.3-2.6-8.6-6.2-13.4-7.8c-2.6-0.9-4.8,2-3.1,4.2c3.5,4.6,8.5,8.5,14.3,9.2
	C450.3,672.7,452.4,668.4,449.6,666.7L449.6,666.7z"/>
<path class="st1" d="M571.9,694.4c-38.7-3-73.8-14.7-111.1-24.2c-2.8-0.7-5.3,2.8-2.6,4.7c14,9.7,32.6,14.3,49,18.1
	c21.5,5,42.4,11.4,64.8,8.8C576.2,701.3,576,694.8,571.9,694.4L571.9,694.4z"/>
<path class="st1" d="M616.9,687.3c-5.8,0.9-11.6,0.8-17.4,1.9c-5.9,1.1-11.7,3.6-17.7,3.9c-2.6,0.1-2.5,3.7-0.5,4.6
	c5.8,2.7,11.6,1.8,17.6,0.7c7.1-1.3,13.3-1.9,19.7-5.5C621.3,691.3,620.3,686.8,616.9,687.3L616.9,687.3z"/>
<path class="st1" d="M356.2,442.5c0.9-4.1,1.8-8.1,1.4-12.4c-0.1-1.4-2-1.7-2.8-0.7c-5.1,6.2-9.6,17.1-8.1,25.1
	c0.6,3.3,5.1,3.8,6.4,0.7C354.6,451.3,355.3,446.7,356.2,442.5L356.2,442.5z"/>
<path class="st1" d="M383,596.9c-10.3-21.3-20.7-40.1-24.4-63.8c-3.5-22.3-4-43.5-5-66c-0.1-3.2-5.2-2.9-5.5,0.1
	c-4.4,44.7-1.9,97.7,29,133.4C379.6,603.5,384.8,600.7,383,596.9L383,596.9z"/>
<path class="st1" d="M414.4,629.5c-4.6-4.3-9.8-7.8-14.5-12c-3.2-2.9-7.6-6-9.7-10c-0.9-1.6-2.9-1.5-3.7,0.1
	c-2.3,4.4,2.5,9.5,5.2,12.6c5.4,6.3,12.4,11,19.9,14.3C414.8,635.9,416.6,631.6,414.4,629.5L414.4,629.5z"/>
<path class="st1" d="M515.7,670.9c-29.9-12.5-63.3-20.8-91.6-36.7c-1.4-0.8-3.9,0.4-2.8,2.2c7.1,11.9,22.4,15.6,34,21.7
	c17.3,9.1,39.3,16.7,58.7,19.1C517.9,677.8,519.1,672.4,515.7,670.9L515.7,670.9z"/>
<path class="st1" d="M547,676c-5.6-1.3-11.8-0.6-16.8-3.8c-3-1.9-6.8,1.6-4.4,4.6c4.9,6.3,14,7.5,21.4,5.9
	C551,681.8,550.6,676.9,547,676L547,676z"/>
<path class="st1" d="M575.8,678.2c-2.5-0.4-5-0.2-7.5-0.3c-2.6-0.1-5.1-0.7-7.7-0.8c-3.3-0.1-6.3,4.7-2.7,6.8
	c5.5,3.2,13.2,4.5,19.1,1.7C580.4,683.8,579.6,678.8,575.8,678.2L575.8,678.2z"/>
<path class="st1" d="M71.3,332.7c-8.2,1.4-13.6,8.1-13.4,16.3c0.1,2.3,3.4,2.8,4.6,1.1c3.2-4.3,5-9.9,10.3-12.1
	C75.8,336.8,74.4,332.2,71.3,332.7L71.3,332.7z"/>
<path class="st1" d="M103.7,397.9c-5.4-4.6-12-8.3-18.5-11.1C73,381.5,67.4,368.6,61.1,358c-1.3-2.2-4.4-1.3-4.2,1.2
	c1.3,21.1,25.3,40,44.8,43.9C104.7,403.7,105.7,399.6,103.7,397.9L103.7,397.9z"/>
<path class="st1" d="M127.4,407.1c-4-1.9-8-4.3-12.3-5.6c-3.4-0.9-6.1,3.2-3.1,5.6c4.5,3.6,9,6.2,14.8,5.6
	C129.8,412.4,129.8,408.3,127.4,407.1L127.4,407.1z"/>
<path class="st1" d="M228.2,435.4c-16.5-10-37.9-10.9-56.2-16.2c-7.4-2.1-28.6-12-35.4-6.1c-1.4,1.2-0.9,4,1.2,4.1
	c13.7,0.5,30.4,9.1,43.7,12.7c14.8,3.9,29.8,7.8,44.8,10.5C228.8,440.8,230.5,436.8,228.2,435.4L228.2,435.4z"/>
<path class="st1" d="M252.6,442.2c-4.6-2.2-9.4-3.6-14.5-4.2c-4.1-0.4-5.8,5.7-1.8,7.1c0.3,0.1,0.6,0.2,0.8,0.2
	c2.2,0.4,4.6,1.9,6.9,2.5c2.8,0.6,5.1,0.5,7.9,0C255,447.4,255.2,443.4,252.6,442.2L252.6,442.2z"/>
<path class="st1" d="M286.3,453.6c-3.6-3.1-7.6-3.9-12.2-5.1c-3.7-1-7.7-2.7-11.3-0.8c-1.2,0.6-2.2,2.3-1.4,3.7
	c2.1,3.6,5.6,4.3,9.4,5.6c4.8,1.6,9,3.2,14.1,2.5C287.8,458.9,288.3,455.4,286.3,453.6L286.3,453.6z"/>
<path class="st1" d="M96.1,344.4c11.1-1.8,22.8-1.5,33.6-4.4c2.6-0.7,2.8-4.6-0.1-4.9c-18.1-2.1-40.3-0.6-55.1,11.2
	c-11.8,9.4,1.3,29.4,12.1,32.8c2.3,0.7,4.6-2.6,2.2-4c-5.9-3.3-9.1-9.4-10.6-15.8C75.9,349.7,89.7,345.5,96.1,344.4L96.1,344.4z"/>
<path class="st1" d="M109.7,383.1c-2.2-0.8-4.6-1.2-6.8-1.8c-1.9-0.5-3.2-1.8-5.2-1.8c-2.8-0.1-4.8,3.6-2.1,5.4
	c4.1,2.8,8.4,4.7,13.6,3.7C111.8,388.1,112.5,384.1,109.7,383.1z"/>
<path class="st1" d="M180.8,404.3c-19.8-5.9-41.2-7.6-60.6-14.9c-2.6-1-5.3,2.3-3.4,4.5c5.8,6.6,17.6,8,25.8,10
	c12.2,3,24.7,7.3,37.4,6.7C183.3,410.5,183.9,405.2,180.8,404.3L180.8,404.3z"/>
<path class="st1" d="M206,413.5c-4.8-2.5-12-4.7-17.5-5.2c-3-0.2-5.4,4.2-2.3,5.9c5.3,3,12.9,6.3,19.1,5.4
	C208.7,419.1,208.7,414.9,206,413.5L206,413.5z"/>
<path class="st1" d="M264.2,430.4c-2.8-1.9-5.3-3.5-8.4-4.8c-4.3-1.8-8.5-1-13-2.4c-8.7-2.6-18.3-4.6-27.4-5.4
	c-3.9-0.3-5,4.9-1.6,6.5c8.1,3.8,17.2,4.4,25.8,6.9c7.2,2.1,15.2,3.7,22.7,4.2C264.8,435.4,266.5,432,264.2,430.4L264.2,430.4z"/>
<path class="st1" d="M121.5,378.9c-6.2-3.8-12.7-5.8-19.3-8.8c-3.2-1.4-5.8-2.9-7.5-6c-2.3-4.3,2-10.5,5.9-12.7c2-1.1,1.3-4.4-1.2-4
	c-10,1.6-16.2,13.2-10.3,21.9c6,8.7,20.7,13.3,30.7,14C122,383.5,123.7,380.2,121.5,378.9L121.5,378.9z"/>
<path class="st1" d="M146.4,384.5c-4.5-1.7-10.4-4.1-15.2-4.3c-2.5-0.1-4.6,2.8-2.7,5c3.8,4.5,11.7,5.9,17.3,5.5
	C148.9,390.4,149.2,385.5,146.4,384.5z"/>
<path class="st1" d="M241.1,411.1c-12.2-7-29.1-11.1-42.9-14.1c-13.7-3-28.1-7.6-42.2-7.3c-1.6,0-2,2.5-0.8,3.3
	c8.9,6.1,21.6,8.1,32.1,9.9c17.4,3,34.1,12.5,51.8,13.4C241.6,416.4,243.8,412.7,241.1,411.1L241.1,411.1z"/>
<path class="st1" d="M127,344.1c-6.7,0.1-12.5,0.7-18.6,3.5c-1.8,0.9-2,3.8,0.1,4.5c2.5,0.9,5.4,0.3,8,0c4.2-0.6,7.5-1.1,11.4-2.9
	C130,348.1,129.8,344,127,344.1L127,344.1z"/>
<path class="st1" d="M189.3,347.3c-15.7-5.8-35-5.5-51.3-4.3c-3,0.2-3.6,5.1-0.7,6c6.8,1.9,14.6,0.8,21.7,1.5
	c9.7,0.9,20,4.4,29.7,2.5C191.4,352.3,192.1,348.3,189.3,347.3L189.3,347.3z"/>
<path class="st1" d="M513.6,326c-20.5-65.4-89.8-99.6-154.5-86c-28.5,6-54,23.2-67.6,49.3c-6.9,13.2-11.4,26.3-13.6,40.9
	c-0.8,4.9,0.2,9,0.3,14c0,1,1.3,5.2,1.2,2c0.1,3.8,5.7,4.7,7.7,1.9c4.2-6.1,3.4-17.5,6.5-27.9c9.9-34.1,33.9-56.9,67.9-66.1
	c31.2-8.4,61.6-2.4,89.1,14.1c24.7,14.8,39.6,39.5,55.1,62.8C508.8,335.8,515.1,330.7,513.6,326L513.6,326z"/>
<path class="st1" d="M1203.7,167.2c-32.8-37.5-70.3-66.8-114.7-89.4c-49.2-25.1-103.6-33-157.9-37.8C836.6,31.6,733,56.4,653,107.3
	c-39.9,25.4-71.4,56.3-97.2,95.9c-24.9,38-46.8,79.9-51.6,125.5c-0.8,7.6,10.4,8.7,11.7,1.3c15.2-82.5,70.8-161.1,140-207.1
	C694.8,97.2,737.3,81,782,68.8C825.1,57,876,50,920.5,53.9c48.2,4.2,95.2,9.6,140.8,27.2c48.8,18.8,90.2,50.6,125.4,88.7
	c67.2,72.6,96,167.1,82.3,264.8c-0.7,5.1,7.4,7.3,8.9,2.2C1306.1,342.8,1265.9,238.3,1203.7,167.2L1203.7,167.2z"/>
<path class="st1" d="M1525.3,390.9c-71.5-43.2-171.9-57.8-246.4-13.5c-6.9,4.1-2.5,15.2,5.2,11.7c73.2-32.9,149-28.7,220.6,7
	c38.4,19.1,66.5,49.5,85.3,87.9c19.4,39.5,13.3,76.8,11.3,118.4c-0.3,5.7,7.4,7.8,9.7,2.4C1644.8,527.1,1592.1,431.2,1525.3,390.9
	L1525.3,390.9z"/>
<path class="st1" d="M1784,640.5c-25.9-15.3-61.2-23.9-90.1-31.4c-14.2-3.7-29.2-5.3-43.7-7.7c-14.7-2.5-30.1-1.4-44.5-3.9
	c-6.9-1.2-9.9,10.4-3,12.1c17.2,4.3,36.7,4.5,54.4,7.5c29,5,56.1,13.1,84,22.1c49.8,16.1,102.4,45.1,126.5,93.7
	c17.7,35.7-24.6,55-52.8,54.3c-28-0.7-55.5-3.1-83.3-7.4c-28.6-4.4-56.3-10.9-84.5-17.2c-24.3-5.5-50-8.4-73.7-16
	c-3.6-1.2-7.7,3.1-4.7,6.4c15.6,16.8,47.4,18.6,69.1,22.6c36.8,6.8,72.9,16,110.2,21.1c37.7,5.2,123,19.9,135.1-34.6
	C1896,702.9,1825.9,665.2,1784,640.5L1784,640.5z"/>
<path class="st1" d="M290.5,470.5c-18.6-5.1-36.6-12-54.6-18.9c-21.6-8.3-44.5-12.6-66.7-19.1c-40.2-11.9-96.7-25.9-118.1-65.3
	c-18.4-34,32-45.8,53-47.2c23-1.5,46.7,1.6,69.3,4.9c24.9,3.6,49,9.6,73.1,17c11.4,3.5,23.6,9.6,35.5,8c5-0.6,6.1-8.4,1.1-10
	c-50.7-15.9-97.9-31-151.6-34.1c-30.4-1.8-94.1-0.6-96.8,43.2c-2.8,46.2,44.7,64.6,79.8,79.9c27.1,11.7,56.2,19.9,84.9,27
	c29.8,7.3,57.6,23.6,88.6,24.1C293.2,480.1,296.2,472.1,290.5,470.5L290.5,470.5z"/>
<path class="st1" d="M784.1,670.5c-40.8,31.7-87.2,59.9-135.8,78c-57.1,21.2-121.1,11.8-177.6-6.2c-58.4-18.5-106.9-50.5-146.1-97.1
	c-17.5-20.8-25.9-53.6-30.9-79.6c-3.1-16.1-5.6-31.3-4.8-47.8c0.7-14.2,4.3-28.1,4.7-42.4c0.2-7.9-10.5-9-12.1-1.3
	c-12.8,59.5-5.5,120,26.3,173c31.2,51.9,87.6,80,140.9,103.2c117.7,51.1,252.6,17.5,341.4-72.2C794.3,673.8,789.1,666.7,784.1,670.5
	L784.1,670.5z"/>
<path class="st1" d="M1129.2,797.2c1-4.6-6.1-7.3-8.6-3.4c-24.8,40.8-50.3,72-96.1,90.7c-42.8,17.5-89.3,25.7-134.4,12.2
	c-43.1-12.9-82.2-29-116.5-59c-19.3-16.8-37.2-36.2-49.9-58.5c-8.5-14.8-10.7-31.6-17.3-46.9c-3-7-15.2-3.7-13,3.9
	c4.9,16.9,8.5,33.1,16.5,49.2c11.2,22.5,29.5,40.5,47.3,57.8c38.5,37.4,85.1,55.1,135.6,70.2C975.5,938.2,1110.1,888.5,1129.2,797.2
	L1129.2,797.2z"/>
<path class="st1" d="M1562.2,745.8c-2.6,1.7-3.2,4.3-2.5,6.8c-7,21.5-14,43.4-25.2,63.1c-10.6,18.6-22.8,34.2-36.6,50.6
	c-32.6,39-83.8,62.3-133.8,66.2c-54.2,4.2-109.2-8.3-154.8-38.1c-22.2-14.6-42.4-31.6-56.1-54.7c-8.4-14.3-13.7-34.2-24.6-46.4
	c-4.7-5.3-12,0.9-8.4,6.7c4.3,6.9,6.5,18.7,9.8,26.3c5.2,11.7,12.1,23.2,19.1,34c13.8,21.1,36.9,36.6,57.6,50.1
	c44.6,29.2,99.2,39.4,151.8,37.1c110.7-4.8,189.8-93.1,216.4-195.4C1577.1,743.8,1566.1,738.6,1562.2,745.8L1562.2,745.8z"/>
<path class="st1" d="M1397.5,676.6c-22.3-32-71.3-30.4-104.8-14c12.2-37.8,22.4-74,6.6-114c-18.9-47.5-63.4-79.4-109.2-97.8
	c-91.9-37-200.8-7.4-260.2,70.1c-8.9-47.7-47.9-89.9-100.7-85.6c-51.2,4.2-118.9,45.8-111.9,104.8c0.6,5.1,9.3,5.1,9.2-0.2
	c-0.3-47.2,49.8-79.6,90.7-88.7c56-12.4,99.7,37.9,99.6,90.1c0,6.6,9.2,12.5,13.6,5.3c51.1-84.6,154.3-114.6,246.3-85.4
	c45.1,14.3,84.5,44.6,106.3,86.8c22.5,43.5,3.2,86.3-10.3,128.8c-2.1,6.7,5.4,13.5,11.4,8.5c25.9-21.7,64.4-26,93.3-7.5
	c15.8,10,19.1,29,17,46.1c-2.5,21.1-22.2,31-37.8,41.5c-5.7,3.8,0.2,11.6,5.9,9.6C1405,760.5,1424.2,714.8,1397.5,676.6
	L1397.5,676.6z"/>
</svg>
