<?xml version="1.0" encoding="utf-8"?>
<!-- Generator: Adobe Illustrator 27.7.0, SVG Export Plug-In . SVG Version: 6.00 Build 0)  -->
<svg version="1.1" id="Layer_1" xmlns="http://www.w3.org/2000/svg" xmlns:xlink="http://www.w3.org/1999/xlink" x="0px" y="0px"
	 viewBox="0 0 1920 994.4" style="enable-background:new 0 0 1920 994.4;" xml:space="preserve">
<style type="text/css">
	.st0{fill:url(#SVGID_1_);}
	.st1{fill:#FFFFFF;}
</style>
<g>
	<g>
		
			<image style="overflow:visible;opacity:0.75;" width="1902" height="989" xlink:href="B20D8340433A75F.png"  transform="matrix(1 0 0 1 11 1.39)">
		</image>
		<g>
			
				<linearGradient id="SVGID_1_" gradientUnits="userSpaceOnUse" x1="-304.5105" y1="216.2959" x2="1333.4696" y2="812.4719" gradientTransform="matrix(-1 0 0 -1 1502.5952 996)">
				<stop  offset="0" style="stop-color:#FFF33B"/>
				<stop  offset="3.300000e-02" style="stop-color:#FFE64C"/>
				<stop  offset="0.1152" style="stop-color:#F6D265"/>
				<stop  offset="0.1991" style="stop-color:#EFC371"/>
				<stop  offset="0.2854" style="stop-color:#EBBB76"/>
				<stop  offset="0.3772" style="stop-color:#EAB877"/>
				<stop  offset="0.899" style="stop-color:#EF4136"/>
			</linearGradient>
			<path class="st0" d="M1619.3,444.2c31.1,3.1,62.2,6,92.8,13.1c55.2,12.8,127.5,32.2,155.7,86.4c27.2,52.4-13.1,97-59.8,116.3
				c-26.5,11-56,14.9-84.1,19.7c-33.3,5.7-69.9,9.1-103.9,6.3c-1.7,44.4-13.1,86.8-36.9,124.5c-26.3,41.8-66.2,71.8-112.4,88.4
				c-52.7,18.9-111,19.6-165.5,10.4c-26.7-4.5-53.1-15.1-76.3-28.8c-19.6-11.5-35.4-24.7-52.5-38.8c-5,16-14.9,31.9-23.2,45.7
				c-10.9,18.2-25.8,34-43.6,45.5c-39.7,25.5-91.7,27.1-136.9,21.5c-47.4-5.8-94.2-27.8-128.5-61.2c-29.6-28.9-46.1-69-53.7-109.1
				c-17.2,20.1-40.7,35.4-64.7,44.5c-63.3,23.8-134.4,34.7-201.6,25.3c-61-8.6-113.4-30.1-156.5-75.8
				c-19.9-21.1-35.6-42.2-48.4-68.7c-9.7-20.2-17.9-46.7-18.2-69.4c-36.2,3.7-72.6,2.9-109.1,2.8c-36,0-71.1-1.5-105.5-12.6
				c-20.9-6.8-52.8-21.1-56-46.6C26.9,554.8,43,536,64.7,519.6c25.6-19.3,54.3-32,85.4-39c17.4-3.9,34.9-8.3,52.5-11
				c20.2-3.1,40.8-2.1,61.2-4.2c35.8-3.7,72-3.9,107.9-1.7c16.2,1,32.5,2.9,48.7,3.9c0.4,0,0.8,0.1,1.2,0.2
				c-2.4-5.4-4.4-11.1-5.6-17.1c-4.5-21.9,0-48.5,7.2-69.3c14.7-42.4,49.9-76.9,91.8-92.4c43.3-16,98.1-8.7,139.6,9
				c10,4.3,19.3,10.2,28.1,16.6c3.6,2.6,7.1,5.8,10,9c4.2,4.6,2.4,5.6,4.4-2.6c6.4-25.6,21.3-48.7,35-71.1
				c56.1-92,142.1-167.1,246-199.6c110.1-34.4,218.9-39,328.8-1.6c83.6,28.4,160.8,80,212.1,152.6c25.3,35.8,45.1,78.1,55.3,120.7
				c9.9,41,3.1,79.4-2.2,119.7c2.1-0.2,4.2-0.1,6.6,0C1592.3,442.2,1605.8,442.8,1619.3,444.2z"/>
		</g>
	</g>
	<g>
		<g>
			<g>
				<g>
					<path class="st1" d="M1431.1,540c2.5,1.6,5.2,2.6,7,5.1c2,2.6,2.5,4.9,2.6,8c0.1,2.1-2.4,3.8-4.2,2.2c-1.7-1.6-2.8-3.1-3.8-5.2
						c-1.1-2.3-3.4-4.1-5.1-6C1425.8,542,1428.8,538.5,1431.1,540z"/>
					<path class="st1" d="M1439.5,573.4c0-4.4-0.2-9.2-1-13.5c-0.3-1.8,2.3-3.3,3.7-1.9c8.2,8.9,5.5,23.3-1.4,32
						c-1.6,2-4.8,0.3-4.4-2.1C1437.2,583,1439.5,578.4,1439.5,573.4z"/>
					<path class="st1" d="M1433.3,593.3c1.7-3.9,7.3-1.1,5.8,2.8c-1.3,3.5-2.4,7.7-5.8,9.7c-1.9,1.2-4.7-0.2-4.2-2.7
						C1429.8,599.7,1432,596.6,1433.3,593.3z"/>
					<path class="st1" d="M1417.2,615.2c2.1-3.2,4.7-6,8.6-6.6c2.6-0.5,4.1,3.6,1.8,4.9c-2.7,1.5-3.9,4.5-7,5.5
						C1418.6,619.6,1415.8,617.4,1417.2,615.2z"/>
					<path class="st1" d="M1385.7,624.4c3.3-2.4,8.2-2.5,12.2-3.4c4.2-1,8.5-1.8,12.7-2.6c2.4-0.5,3.9,3.4,1.7,4.6
						c-4.2,2.3-8.7,4-13.2,5.5c-4.5,1.5-9.3,3-13.5,0.2C1383.9,627.7,1384.4,625.3,1385.7,624.4z"/>
					<path class="st1" d="M1398.3,535.9c11.7,1.6,21.3,5.3,28.3,15.3c5.7,8,11.8,22.8,4.2,31.4c-2,2.2-5.3,0.4-5-2.3
						c1.1-10.8-0.1-19.8-8-28c-5.7-6-13.4-9.4-20.4-13.5C1395.9,537.9,1396.5,535.6,1398.3,535.9z"/>
					<path class="st1" d="M1423.6,586.8c1.3-1.9,4.2-0.6,4.4,1.4c0.4,4-0.9,8-4.9,9.3c-1.6,0.5-3.3-0.8-3-2.5
						C1420.6,592,1421.8,589.3,1423.6,586.8z"/>
					<path class="st1" d="M1407.8,605.6c2.8-1.2,5.5-2.3,7.7-4.6c1.7-1.8,4.4,0,3.6,2.3c-0.9,2.7-2.6,5.2-4.9,6.8
						c-2.3,1.6-5.6,3.6-8.3,2.1c-0.7-0.4-1.4-1.1-1.4-2C1404.5,607.9,1405.6,606.5,1407.8,605.6z"/>
					<path class="st1" d="M1412.2,576.7c1.9-6.4-0.1-13.7-1.4-20c-0.4-1.9,2.4-2.7,3.4-1.2c4.3,6.5,6.4,12.7,5.4,20.6
						c-0.7,5.9-5.1,14.6-10.7,17c-1.7,0.7-3-0.9-2.9-2.4C1406.4,585.6,1410.8,581.5,1412.2,576.7z"/>
					<path class="st1" d="M1399.1,543.3c4.1,0.8,8.6,3.4,9.5,7.8c0.6,3-3.6,4-5.2,1.9c0,0,0,0-0.1-0.1c-2.6-1.2-5-3.7-6.5-6
						C1395.6,545.3,1397,543,1399.1,543.3z"/>
					<path class="st1" d="M1371.4,540.7c6.2-3.3,13.9-3.5,20.2-0.2c2.4,1.3,2,5.2-1,5.5c-2.7,0.3-5.3-0.4-8-0.5
						c-3.1-0.1-6.1,0.7-9.2,0.6C1370.9,546,1368.5,542.2,1371.4,540.7z"/>
				</g>
				<g>
					<path class="st1" d="M1357.2,484.9c0.3-14.2-3.4-27.5-3.8-41.6c-0.1-3,3.9-4,5.1-1.2c11.4,26.2,8.6,58.2-1.9,84
						c-0.9,2.3-3.9,0.9-3.8-1.2C1353.4,511.4,1356.9,498.6,1357.2,484.9z"/>
					<path class="st1" d="M1347,416.4c2,2.9,3.1,6.2,4.4,9.3c1.4,3.1,2.5,6.1,2.3,9.5c-0.2,3-4.8,3.1-5.7,0.5
						c-2.1-5.8-6.8-10.8-6.7-17.3C1341.4,415.5,1345.1,413.6,1347,416.4z"/>
					<path class="st1" d="M1243.6,321.3c24.6,7.4,46.9,24.7,65.8,41.7c12.1,10.9,30,29.6,32.2,46.6c0.3,2.2-2.7,3.2-4,1.5
						c-10.3-14.6-20.3-29.6-33.3-42.2c-18.7-18-41.7-28.7-62.8-43.2C1239.5,324.4,1241.2,320.6,1243.6,321.3z"/>
					<path class="st1" d="M1221.8,309.5c5.2-0.6,13.1,3.7,16.1,7.9c1,1.4,0,3.3-1.6,3.5c-2.7,0.3-4.9-0.7-7.3-1.9
						c-2.9-1.5-6.2-2.5-8.8-4.5C1218.3,313,1219.5,309.8,1221.8,309.5z"/>
					<path class="st1" d="M1198.9,302.4c4.4-0.8,10.5,1.4,13.8,4.4c1.6,1.5,0.4,4.2-1.8,3.9c-4.2-0.6-9.9-1.4-13.2-4.2
						C1196.1,305.1,1197,302.8,1198.9,302.4z"/>
					<path class="st1" d="M1059.2,307.5c37.6-21.3,86.1-18,127.1-10.6c4.3,0.8,3.1,7.3-1.2,6.6c-20.1-3.2-40.6-5.3-60.9-4.2
						c-22.6,1.3-41.1,6.9-62.5,13C1058.9,313.3,1056.3,309.2,1059.2,307.5z"/>
					<path class="st1" d="M1040.7,316c3.9-1.7,8.1-2.9,12.1-4.5c2.8-1.1,5.1,2.5,3.3,4.7c-3.4,4.2-9.7,5.9-14.9,5.5
						C1038.1,321.4,1038.2,317,1040.7,316z"/>
					<path class="st1" d="M981.6,367.4c5-11.3,13.3-19.3,22.7-27.1c9.3-7.7,19.5-15.6,31.5-18.2c2.3-0.5,3.6,3.1,1.6,4.3
						c-19.8,11.4-37.4,25.8-51.8,43.6C983.8,372.2,980.5,369.9,981.6,367.4z"/>
					<path class="st1" d="M976.6,373.2c1.9-2.2,5.9,0.2,4.3,2.8c-1.7,2.9-3,5.4-5.2,7.9c-1.3,1.5-4.1,0.4-3.7-1.7
						C972.8,378.5,974.2,376,976.6,373.2z"/>
					<path class="st1" d="M1276.9,355.4c24.1,16.5,43.9,37.3,57.5,63.3c7.7,14.7,25.9,47,12.9,63.4c-0.7,0.9-2,0.3-2.2-0.7
						c-3.4-24-9.2-43-20.8-64.6c-12.6-23.4-33-38.5-51.2-56.9C1270.4,357.1,1273.8,353.3,1276.9,355.4z"/>
					<path class="st1" d="M1254.9,341.1c5.4,3.5,10.4,6.8,14.7,11.8c2.1,2.5-1.7,5.5-4,3.6c-5.1-4-10.5-6.7-14.3-12.1
						C1249.6,341.9,1252.7,339.6,1254.9,341.1z"/>
					<path class="st1" d="M1127.6,307.4c19.3-3.1,41,0.1,59.9,4.6c17.9,4.2,43.3,9.9,57,22.9c2.9,2.7-0.8,7.1-4,4.7
						c-30.8-22.9-76.7-23.8-113.2-27.4C1124.5,311.9,1125,307.8,1127.6,307.4z"/>
					<path class="st1" d="M1104,309.6c2.7-0.6,5.1-0.9,7.8-0.6c2.8,0.2,6-0.2,8.7,0.5c1.7,0.5,2.8,3,0.9,4
						c-5.4,3.1-11.9,1.7-17.6,0.2C1101.4,313.2,1101.7,310.1,1104,309.6z"/>
					<path class="st1" d="M1083.6,314.7c3.3-1.9,7.6-2.5,11.4-2.6c3.2,0,4.3,4.3,1.3,5.5c-3.5,1.4-7.9,2.5-11.6,1.8
						C1082.6,319,1081.5,315.9,1083.6,314.7z"/>
					<path class="st1" d="M1022.8,347.2c13.8-16.9,33.9-20.4,51.8-30.8c3.1-1.8,6.3,2.5,3.2,4.6c-7.2,4.9-15.5,8-23.3,11.7
						c-10.1,4.8-19.6,11.1-28.6,17.8C1023.7,352.1,1021.2,349.2,1022.8,347.2z"/>
					<path class="st1" d="M1005.3,361.1c2.6-6.6,7.9-8,13.4-11.8c2.2-1.5,4.8,1.4,3.1,3.4c-3.8,4.5-8.9,7.2-13.2,11.2
						C1006.8,365.5,1004.6,363,1005.3,361.1z"/>
					<path class="st1" d="M1000.4,365.5c2-1.3,4.4,1.2,2.8,3.1c-19.8,22.4-27.3,45.6-35.9,73.7c-1,3.3-5.8,2.6-5.4-1
						C964.6,413.9,976.5,381,1000.4,365.5z"/>
					<path class="st1" d="M1313.8,413.1c2.4,3,4.4,6.1,6.1,9.6c1.4,3,3.3,5.5,1.3,8.7c-0.4,0.6-1.3,0.9-1.8,0.1
						c-0.5-0.7-1.3-1-1.9-1.7c-1.1-1.4-2-2.9-2.9-4.4c-2-3.3-3.4-6.7-4.8-10.3C1309,412.7,1312.3,411.1,1313.8,413.1z"/>
					<path class="st1" d="M1207.2,330.4c40.1,11.8,76.5,38,99.2,72.9c1.5,2.3-1.5,5.3-3.7,3.4c-15.5-13.9-27.7-29.7-44.9-42.3
						c-16.6-12.2-35.9-18.2-52.6-29.8C1203.4,333.3,1205,329.8,1207.2,330.4z"/>
					<path class="st1" d="M1183.8,326.3c5.3-1.5,8.9,0.6,14,1.6c3.8,0.8,2.7,6-1,5.8c-4.5-0.2-8.9-2.1-13.2-3.5
						C1181.8,329.7,1182,326.8,1183.8,326.3z"/>
					<path class="st1" d="M1056.1,339.5c15.6-11.6,38.1-15.1,57-17.1c20.3-2.2,42.1-5.3,61.4,2.9c1.8,0.7,1.3,3.8-0.7,3.8
						c-18.2,0-35.5-1.1-53.8,0.4c-21.7,1.8-40.8,8.3-61.4,14.8C1055.7,345.2,1053.6,341.3,1056.1,339.5z"/>
					<path class="st1" d="M1037.6,352.5c3.7-3.9,8.5-6.1,13.4-8.1c2.8-1.1,4.7,2.9,2.4,4.6c-4.1,3-8.7,5.2-13.5,6.9
						C1038,356.4,1036.1,354,1037.6,352.5z"/>
					<path class="st1" d="M1020.2,368c1.8-4.6,6.9-9,11.6-10.4c3.5-1,5.2,3.7,1.9,5.3c-3.7,1.8-6.3,6.1-9.7,8.5
						C1021.8,372.9,1019.3,370.3,1020.2,368z"/>
					<path class="st1" d="M1016,372.5c2.2,0.3,2.5,3.1,1,4.3c-1.7,1.3-2.2,3.3-4.3,4.2c-1.7,0.7-3.6-0.9-3.3-2.7
						C1010,375.3,1012.8,372.1,1016,372.5z"/>
					<path class="st1" d="M1002.9,385.2c2.1-1.5,4.1,1.2,2.8,3.1c-6.7,9.8-10.8,21-16.9,31.1c-1.7,2.7-5.8,1.6-5.4-1.7
						C984.9,406.3,993.8,392,1002.9,385.2z"/>
					<path class="st1" d="M981.8,424.6c1.9-1.4,4.4,0.8,3.4,2.9c-1.2,2.5-1,6.1-1.4,8.9c-0.5,3.6-0.9,6.8-1.9,10.3
						c-0.8,2.7-5.1,3-5.3-0.2C976.2,439.6,975.5,429.1,981.8,424.6z"/>
					<path class="st1" d="M976.4,454.1c1.3-2.5,5.2-1.3,4.7,1.5c-1.5,9.9,4.4,19.7,1.7,29.4c-0.7,2.6-4.7,3.5-5.7,0.5
						c-1.8-5.4-1.9-11.3-3.1-16.9C973,463.7,974.1,458.4,976.4,454.1z"/>
					<path class="st1" d="M1105.9,338.8c28.8-7,58.8-4.5,87.5,2.2c22.1,5.2,51.9,16.7,64.7,36.5c1.2,1.9-1.2,4.2-2.9,2.6
						c-19.5-17.3-44.9-27.8-70.1-33.6c-26.8-6.2-52-1.8-78.8-3.1C1104,343.3,1103.7,339.4,1105.9,338.8z"/>
					<path class="st1" d="M1089.9,343.7c2.9-1.2,6.4-2,9.6-2.1c3,0,3.9,3.8,1.2,5.1c-3.1,1.4-6.9,3-10.3,2
						C1087.9,348.1,1087.4,344.7,1089.9,343.7z"/>
					<path class="st1" d="M1063.9,351.8c2.8-1.9,5.5-2.6,8.8-3.5c3.4-1,6-2,9.5-0.9c1.6,0.5,1.6,2.9,0.3,3.7
						c-4.9,3.1-11.2,5-16.9,5.1C1063.3,356.2,1061.8,353.3,1063.9,351.8z"/>
					<path class="st1" d="M1056.9,357.6c2.2-0.5,4.1,2.3,1.9,3.7c-31.2,20.5-51.1,46.5-60.2,82.8c-0.6,2.3-4.2,2.4-4.3-0.2
						C993.2,411.7,1024.7,365.6,1056.9,357.6z"/>
					<path class="st1" d="M992.5,450.2c0.5-3.1,4.9-2.7,5.3,0.2c0.8,5.2,0.1,10.8-0.3,16c-0.2,2.5-3.8,2.5-4.6,0.4
						c-1.2-2.9-1.9-5.4-1.8-8.6C991.3,455.4,992.1,453,992.5,450.2z"/>
					<path class="st1" d="M989.9,474.4c0.5-3.3,5.2-2.9,5.6,0.2c2.5,16.6,5.8,33,11.2,49c1,2.8-3.3,5.3-4.8,2.5
						C992.8,510,987.2,493.1,989.9,474.4z"/>
					<path class="st1" d="M1205.3,359.4c3.8,0.1,10.8,1.8,11.6,6.2c0.3,1.9-1.9,3.2-3.4,2.4c-2.9-1.4-6.1-1.8-9-3.6
						C1202.4,363.3,1202.3,359.4,1205.3,359.4z"/>
					<path class="st1" d="M1060.6,368.9c18.9-14.7,45.5-17.7,68.5-20.6c21.2-2.7,47.3-3.7,65.5,9.1c1.6,1.1,0.2,4-1.6,3.5
						c-45.8-13.6-86.5-2-130.1,12.6C1060.2,374.4,1058.3,370.7,1060.6,368.9z"/>
					<path class="st1" d="M1042.4,384.7c1.4-1.6,2.8-3.2,4.5-4.5c1-0.7,1.9-1.5,2.8-2.2c1.2-1,2.7-1.4,3.8-2.5
						c2.3-2.1,5.9-0.1,4.7,3c-1,2.5-3.5,4-5.6,5.7c-2.4,2-4.8,3.1-7.6,4.3C1042.8,389.6,1040.8,386.5,1042.4,384.7z"/>
					<path class="st1" d="M1038.5,391.4c2.1-1.2,5.2,1.4,3.1,3.4c-14.8,14.4-19.2,32.1-28,50c-1.4,2.9-5.5,1.4-5.2-1.7
						C1010.7,423.5,1020.7,401.3,1038.5,391.4z"/>
					<path class="st1" d="M1007.6,451.9c1.2-1.1,3.8-0.9,3.7,1.2c-0.1,4.6,0.1,9.5-1.2,14c-0.6,1.9-3.5,2.7-4.2,0.4
						C1004.3,462.6,1003.6,455.7,1007.6,451.9z"/>
					<path class="st1" d="M1005.4,476.4c0.7-2.6,4.9-2.8,5,0.2c1.3,26.6,10.1,48.9,23.3,71.9c1.5,2.6-1.7,6.1-4.1,3.7
						C1011.9,534.8,999.1,500.8,1005.4,476.4z"/>
					<path class="st1" d="M1040.2,557.4c2.3,3,4.4,6.1,6.6,9.2c1.4,1.9-0.9,4.7-3,3.6c-4.6-2.4-6.6-5.5-8.7-10.1
						C1033.8,557,1038.3,554.9,1040.2,557.4z"/>
					<path class="st1" d="M1046.4,403.1c9.2-21.5,34.2-28.1,54-35.7c18.3-7,44.4-10.9,63.4-4.9c2.6,0.8,2.1,4.6-0.8,4.3
						c-40.6-4.2-83.7,10.9-112.4,39C1048.7,407.8,1045.3,405.8,1046.4,403.1z"/>
					<path class="st1" d="M1042.1,409c2.4-1.6,5.5,1.6,3.5,3.9c-3.2,3.6-5.3,7.8-8.6,11.2c-1.5,1.6-4.4,0.5-4-1.9
						C1034.2,416.7,1037.4,412.1,1042.1,409z"/>
					<path class="st1" d="M1030.2,427.9c1.1-1.2,3.6-0.3,3.1,1.5c-7.2,24.1-11.5,48.5-5.1,73.4c0.8,3.2-3.3,4.8-4.8,1.8
						C1013,483.4,1014.5,446.4,1030.2,427.9z"/>
					<path class="st1" d="M1027.1,511.5c0.3-1.9,3.2-2.2,3.7-0.3c7.4,24.3,23.6,43.8,44.8,57c3.6,2.2,1.2,7.4-2.8,5.9
						c-13.8-5.1-21.2-12.2-30.2-23.7C1034.1,539.5,1025.1,525.9,1027.1,511.5z"/>
				</g>
				<g>
					<path class="st1" d="M696.8,560.8c4.9,4,11,8.6,13.3,14.8s7,14.9,4,21.4c-0.7,1.4-2.7,1.6-3.6,0.3c-3.5-4.9-4.6-11.5-6.9-17.1
						c-2.5-5.9-7.5-10.3-10.9-15.7C691,561.8,694.3,558.7,696.8,560.8z"/>
					<path class="st1" d="M679.5,542.8c4.8,1.3,11.7,6.8,12.1,12.1c0.2,3.2-3.6,4.2-5.5,2c-2.9-3.4-6.5-6.2-9.5-9.6
						C675.1,545.4,677.2,542.2,679.5,542.8z"/>
					<path class="st1" d="M621.6,538.9c5.8-5.8,14.8-7.5,22.7-7.1c8.3,0.4,23.1,2.2,28.4,9.3c1.4,1.9-0.8,4.5-3,3.5
						c-6.7-3.4-16.5-4-23.9-5c-7.4-0.9-14.9,2.2-22,3.5C621.7,543.5,620,540.4,621.6,538.9z"/>
					<path class="st1" d="M606.6,550.9c1.3-3.7,4.5-6.7,8.4-7.6c1.3-1.1,3.3-1.2,4,0.8c0,0.2,0.1,0.4,0.2,0.6c0.3,1,0.1,2.6-1,3.2
						c-3,1.6-4.9,4.4-7.7,6.3C608.1,555.7,605.8,553.3,606.6,550.9z"/>
					<path class="st1" d="M599.3,556.8c2.3-4.1,8.8-1,6.6,3.1c-1.4,2.6-3.2,5-4.2,7.8c-0.6,1.8-3.5,1.9-4.4,0.4
						C594.7,563.7,597.1,560.8,599.3,556.8z"/>
					<path class="st1" d="M621.2,553.2c21-21.5,63.3,0.2,72.4,24.2c0.8,2-2.3,3.8-3.5,1.8c-6.3-11.2-16.9-18.3-28.6-22.8
						c-13.6-5.2-24-3.9-36.9,1.6C621.9,559.3,619.1,555.4,621.2,553.2z"/>
					<path class="st1" d="M615.8,558.7c1.9-1,3.9,1.6,3,3.3c-1.8,3.5-3.8,6.9-6.2,10c-1.3,1.6-3.6,0.6-3.9-1.2
						C607.7,565.8,611.5,560.9,615.8,558.7z"/>
					<path class="st1" d="M606.2,576.2c1.6-2.8,6.8-1.7,5.8,1.9c-1.3,5,3.1,10,5,14.3c1.1,2.5-1.9,5.1-4.3,3.9
						C606,592.9,602.3,582.9,606.2,576.2z"/>
					<path class="st1" d="M645.7,559.8c6.8-1.9,13.2,1.8,18.5,5.6c1.6,1.2-0.2,3.3-1.8,2.7c-2.7-0.9-5.3-1.8-8.2-2.2
						c-3-0.4-5.9-0.5-8.8-1.5C643.3,563.9,643.6,560.4,645.7,559.8z"/>
					<path class="st1" d="M640.5,559.5c2.2,0.6,2.3,3.9-0.2,4.2c-4.8,0.6-10.1,3.5-13.4,7.1c-3,3.3-2.5,8.1-2.6,12.2
						c-0.1,2.1-2.5,4.2-4.4,2.3C608.2,573.4,627.7,555.8,640.5,559.5z"/>
					<path class="st1" d="M622,589.1c0.8-2.7,4.3-3.3,5.6-0.5c2.9,6.6,9.3,9.1,14.6,13.2c2.5,2,0.4,6.1-2.6,5.5
						C632.2,606,619.2,598.5,622,589.1z"/>
				</g>
				<g>
					<path class="st1" d="M546.9,305.1c29.7-6.8,61.2-4.4,89.6,6c8.3,3.1,48.8,17.8,47.3,29.8c-0.4,3.4-5.4,3-5.8-0.2
						c-0.2-1.8-20.2-11.6-23.1-13c-12.4-6-24.4-11.4-37.8-15.1c-23.3-6.4-46.9-1.4-70.5-3.2C544.1,309.2,544.8,305.6,546.9,305.1z"
						/>
					<path class="st1" d="M522.7,310.1c4.3-1.6,8.7-3.1,13.1-4.5c3.3-1.1,6,3.6,2.9,5.6c-4.9,3.1-10,3.9-15.6,3.6
						C520.6,314.6,520.6,310.9,522.7,310.1z"/>
					<path class="st1" d="M450.4,368.6c3.8-14,12-26.1,23.6-34.8c13.3-10.1,25.7-14.6,41.1-20.3c2.5-0.9,4.1,2.5,2.1,4
						c-0.1,0.1-0.2,0.1-0.3,0.2c-0.7,0.5-1.5,0.4-2.2-0.1c3.1,2.3-3.1,3.3-5.2,4.2c-7.6,3.4-15.3,6.4-22.2,11.2
						c-7.4,5.2-14.5,11.1-20.1,18.2c-4.7,6.1-7.2,13.5-11.5,19.9C454.1,373.6,449.6,371.4,450.4,368.6z"/>
					<path class="st1" d="M440.4,390.3c1.5-5.9,5-10.8,8.8-15.5c2.2-2.6,6.9,0.3,5.1,3.3c-2.9,4.9-5.2,10.2-8.9,14.6
						C443.7,394.8,439.6,393.1,440.4,390.3z"/>
					<path class="st1" d="M432.1,414c1.3-4.9,3.1-10.9,6.9-14.4c1.7-1.5,4-0.5,3.9,1.8c-0.2,4.3-1.7,8.1-2.6,12.3
						c-1.3,5.6-0.2,11.9-0.3,17.6c-0.1,3.2-4.9,5-5.9,1.4C432.3,426.8,430.5,420,432.1,414z"/>
					<path class="st1" d="M491.3,340c21.7-16.6,50.7-22.9,77.8-23.6c20.5-0.6,49.8-2.4,67.7,9.4c1.5,1,0.1,2.9-1.3,2.8
						c-22-1.3-43.3-5.1-65.7-4.9c-11.3,0.1-23.1,2.5-34.1,5c-15.1,3.5-27.4,11.2-41.8,16.2C490.8,346,488.8,342,491.3,340z"/>
					<path class="st1" d="M473.8,356c1.4-2.1,2.9-3.8,4.9-5.4c2-1.6,4.8-2.4,6.3-4.4c1.9-2.4,6.2,0.3,4.6,3
						c-1.4,2.3-3.3,3.7-5.6,5.1c-2.4,1.6-4.5,3.6-7,5.3C474.7,361.3,472.3,358.3,473.8,356z"/>
					<path class="st1" d="M472,363c1.5-1.2,4.1,0.8,3,2.5c-6.4,10-12,19.7-16.4,30.8c-5,12.7-5.5,25.2-8.3,38.3
						c-0.7,3-4.8,2.7-5.3-0.2C440.8,410,452.8,378.5,472,363z"/>
					<path class="st1" d="M447.7,442c0.5-2.4,4.3-3.1,5-0.5c1.3,5,3.7,9.5,4.4,14.6c0.4,3-3.8,4.4-5.4,2
						C448.3,453.2,446.5,447.9,447.7,442z"/>
					<path class="st1" d="M460.6,463.1c1,4,4.5,6.9,5.8,10.8c1,2.7-2.5,5.5-4.7,3.3c-3.9-3.8-7.1-7.9-6.7-13.6
						C455.2,460.8,459.9,460.3,460.6,463.1z"/>
					<path class="st1" d="M556.5,331.7c4-1.7,9.8-1.6,14.1-0.9c2.7,0.5,2.8,4,0.5,5c-4.3,1.9-10.3,2.2-14.7,0.4
						C554.2,335.4,554.6,332.5,556.5,331.7z"/>
					<path class="st1" d="M497.8,350c14.3-10.3,31.1-15.1,48.5-17.1c2.8-0.3,3.5,3.6,1,4.6c-14,6.1-29.3,7.5-42,16.9
						c-10.4,7.7-18.9,16.4-27,26.6c-1.6,2.1-5,0.4-4.6-2.2C475.9,366.9,488.3,356.8,497.8,350z"/>
					<path class="st1" d="M471.9,386.6c1.9-2.3,5.2,0.1,4.2,2.7c-0.8,2-1.7,3.7-2.2,5.8c-0.6,2.4-1.2,4.6-3.1,6.3
						c-1.8,1.7-5.4,0.7-4.8-2.2C467.1,394.3,468.8,390.5,471.9,386.6z"/>
					<path class="st1" d="M465,407.1c1.3-2,4.6-0.2,4.1,1.9c-3,12.7-3.6,25.2-1.4,38.1c2.3,13.8,13.1,25.8,20.2,37.5
						c1.8,2.9-1.8,6.6-4.6,4.1C462.3,469.8,448.1,432.8,465,407.1z"/>
					<path class="st1" d="M520.5,354.2c3.3-3.1,7-4.8,11.2-6.4c2.3-0.9,4,1.9,2.6,3.7c-2.8,3.7-6.9,5.2-11.2,6.4
						C521,358.5,518.6,356,520.5,354.2z"/>
					<path class="st1" d="M497.9,369.1c2.2-4,6-6,9.9-8.2c2.5-1.4,5.8-3.9,8.6-2c0.6,0.4,0.8,1.5,0.5,2.1c-1.3,2-3.5,3.7-5.4,5.1
						c-3.2,2.5-6.3,5.2-9.9,7C499.3,374.3,496.7,371.2,497.9,369.1z"/>
					<path class="st1" d="M491.3,377.5c3.2-3.7,9,1.2,5.8,4.9c-5.9,6.8-11.6,13.4-13.9,22.3c-1.9,7.2-2.8,14.6-5,21.7
						c-0.8,2.6-5,1.6-5.1-0.9C471.9,406.3,479,391.5,491.3,377.5z"/>
					<path class="st1" d="M474.1,434.9c0.4-3.4,5.4-3,5.8,0.2c0.6,4.4,1.1,8.4,0.8,12.8c-0.1,2.3-3.4,2.6-4.5,1
						C473,444.6,473.4,440,474.1,434.9z"/>
					<path class="st1" d="M484.6,456.1c9.1,19.3,24.1,30.9,40.7,43.4c2.6,2-0.2,5.9-3,4.6c-11.2-4.9-20.6-11.3-29.2-20.1
						c-6.5-6.6-14.7-17.6-13.7-27.5C479.7,453.7,483.6,453.9,484.6,456.1z"/>
					<path class="st1" d="M512.6,374.2c2.1-1.7,4.8,1.4,3.1,3.4c-8.7,10.5-16.5,19.5-20.3,33c-4.1,14.6-2.2,29.8,1.8,44.2
						c0.8,2.7-3,5.2-4.6,2.4C476.2,428.9,489.1,393.5,512.6,374.2z"/>
					<path class="st1" d="M504.9,463.7c2.7,3.7,5.7,6.7,7.5,11c1,2.3-2,4.1-3.8,2.7c-3.7-2.9-8.2-6.9-9-11.8
						C499.1,462.6,503.2,461.5,504.9,463.7z"/>
					<path class="st1" d="M518.7,482c4.7,3.4,8.8,7.5,13.5,10.9c2.5,1.8,4.7,3.7,7.7,4.6c3.4,1.1,6.6,2.3,9.6,4.3
						c2.2,1.4,1.9,4.7-0.9,5.1c-7.2,1.1-14.2-2.8-19.8-7c-5-3.8-13.2-8.9-14.1-15.9C514.4,481.8,517.1,480.8,518.7,482z"/>
				</g>
				<g>
					<path class="st1" d="M343.5,481.7c10.5-2.3,23.3-2.6,34.1-1.6c16.2,1.5,32.9,0.3,48.9,3.6c3.2,0.6,2.7,4.8-0.2,5.4
						c-13.9,2.9-29.2-0.8-43.2-0.8c-12.8,0-27.1,0.8-39.7-1.1C340,486.7,340.7,482.3,343.5,481.7z"/>
					<path class="st1" d="M320.6,481.2c3.6-0.5,7.5-0.8,11.1-0.3c0.1,0,0.2,0,0.3,0c0.2,0,0.5,0,0.8,0c0,0-0.1,0.1-0.1,0.2
						c2.4,0.9,4.4,4.6-0.1,5.5c-4.2,0.9-8.8,1.1-12.9-0.5C317.2,485.2,318.2,481.5,320.6,481.2z"/>
					<path class="st1" d="M167.5,495.1c22-8.3,46.2-11.1,69.5-13.6c23.4-2.5,46.9-3.7,70.3-0.3c3.5,0.5,2.4,5.5-0.9,5.3
						c-47.5-2.4-91.2,6.9-137.6,14.3C165.4,501.3,164.4,496.2,167.5,495.1z"/>
					<path class="st1" d="M141.5,501.2c4.6-2.1,9.6-3.8,14.6-4.6c3.7-0.6,4.5,4.7,1.4,6.1c-5,2.3-10.1,4.1-15.6,3.4
						C139.3,505.7,139.3,502.2,141.5,501.2z"/>
					<path class="st1" d="M85.5,524.4c13.7-11,31-13,46.6-19.5c1.9-0.8,3.6,1.7,2.3,3.3c-6.7,7.8-20.7,9.6-29.9,13.6
						C90,528,74.5,538.9,66.2,552.5c-1.4,2.2-5.3,1.4-4.7-1.5C64.4,537.1,75.4,532.5,85.5,524.4z"/>
					<path class="st1" d="M51.2,561.4c1.3-3,3.6-5.6,6.8-6.7c2.7-0.9,4.2,2,2.8,4.1c-2.7,4.2-4.1,8.9-6.1,13.4
						c-1,2.4-4.4,1.5-4.7-0.8C49.5,567.6,49.7,565,51.2,561.4z"/>
					<path class="st1" d="M49.1,579.1c0.6-1.5,3.2-1.9,4-0.3c2.9,5.5,5.2,10.7,9.2,15.6c2.2,2.7,5.2,3,8.2,4.3
						c3,1.3,5.9,2.8,8.2,5.1c2,2,0.7,6.4-2.6,5.5c-7.5-2-15.5-4.2-20.6-10.2C51.1,593.9,46.2,586,49.1,579.1z"/>
					<path class="st1" d="M172.1,506.9c59.2-23.5,127.1-10.1,188.7-12.5c2.5-0.1,3,3,0.9,4c-10.2,5-26.3,1.7-37.4,1.5
						c-16.4-0.2-32.7,0.8-49.1,0.8c-15.5,0-31.2,0.5-46.8,1.7c-18.7,1.4-36.7,7.5-55.3,9.3C170.3,512.1,169.4,508,172.1,506.9z"/>
					<path class="st1" d="M151.2,513.7c3.9-1.4,7.9-2.7,11.9-3.7c2.8-0.7,5,2.8,2.4,4.7c-4.2,3.1-9,3.4-14,3.1
						C149.3,517.7,149.3,514.3,151.2,513.7z"/>
					<path class="st1" d="M117.7,522.8c3.3-2.9,7.7-3.8,11.9-4.8c4.5-1.1,9.2-2.7,13.8-3.2c3.5-0.4,4.1,4.3,1.3,5.6
						c-4.1,2-8.1,3.3-12.6,4.4c-4.2,1-8.2,2.8-12.4,3.5C116.4,528.8,115.7,524.6,117.7,522.8z"/>
					<path class="st1" d="M94.6,533c4.8-2.7,10.3-4.5,15.7-5.7c2.8-0.6,5,2.7,2.4,4.6c-4.9,3.5-10.8,4.5-16.6,5.2
						C94,537.2,92.6,534.1,94.6,533z"/>
					<path class="st1" d="M86.9,539.1c3.6-2.2,7.4,3,3.8,5.5c-9.4,6.5-23,19.1-21.6,32.1c1.3,11.9,18,16.1,27.2,19.5
						c2.5,0.9,1.7,5-0.9,5.1c-12.5,0.4-30.8-6.8-33.5-20.8C58.6,563,73.1,547.6,86.9,539.1z"/>
					<path class="st1" d="M103.8,597.3c4.5-1.2,9.1,0.7,13.7,1c4,0.2,3.7,6.9-0.3,7c-5.2,0.2-11.1,0.4-14.7-3.9
						C101.5,600.1,102.2,597.7,103.8,597.3z"/>
					<path class="st1" d="M263.3,507.2c2.9-1,5.7-1.2,8.7-1.1c2.9,0,6.4-0.2,9,1.3c1.3,0.8,1.9,2.9,0.3,3.8
						c-4.8,2.8-13.1,1.9-18.2,0.3C261.2,510.8,261.6,507.7,263.3,507.2z"/>
					<path class="st1" d="M147.2,526.6c34.1-11.4,70.1-17.9,105.8-21c4.2-0.4,4.5,5.5,0.6,6.3c-16.3,3.6-33.2,6-49.6,8.7
						c-18.5,3.1-36.8,11-55.6,11.2C145.5,531.8,144.1,527.6,147.2,526.6z"/>
					<path class="st1" d="M125.5,534.8c5-2,10.1-3.8,15.3-4.9c3.4-0.7,4.5,4.7,1.3,5.8c-5.4,1.8-10.3,4.8-16.2,4.4
						C123.1,539.8,123.1,535.8,125.5,534.8z"/>
					<path class="st1" d="M117.3,538.6c3-0.6,3.8,4,1.2,5.1c-7.2,2.9-15.4,5.5-22,9.6c-2.8,1.8-5.4,4-8,6.1
						c-4.2,3.4-5.5,7.2-7.8,11.8c-1.3,2.5-5.2,1.9-5.5-1C73.4,550.6,102.7,541.4,117.3,538.6z"/>
					<path class="st1" d="M83.5,576.5c2.2,2.7,5,5.3,8.3,6.4c2.6,0.9,1.2,4.2-0.8,4.6c-6.2,1.4-10.6-2.8-12.4-8.5
						C77.6,576,81.5,574,83.5,576.5z"/>
					<path class="st1" d="M99.5,584.5c10.9,2.6,20.9,3.3,32.2,3.2c9.3,0,18.6-1.3,27.8,0.6c2.3,0.5,3.1,4.4,0.4,5
						c-19.8,4.5-43.4,4.2-62-3.9C95.2,588.3,96.6,583.8,99.5,584.5z"/>
				</g>
				<g>
					<path class="st1" d="M1852.8,550.8c5.2,4.4,6.9,12.4,6.6,18.8c-0.1,2.6-3.8,2.4-4.7,0.4c-1.2-2.8-2.4-5.3-3.2-8.3
						c-0.6-2.4-1-5.6-2.3-7.8C1847.9,551.8,1850.6,548.9,1852.8,550.8z"/>
					<path class="st1" d="M1827.6,623.7c5.2-5.9,10.7-11.5,15.4-17.9c6.2-8.4,8.4-18.1,10.7-28.1c0.7-2.9,4.9-2.8,5.3,0.2
						c2.6,19.6-12.5,39.2-27.9,49.5C1828.6,629,1825.6,625.9,1827.6,623.7z"/>
					<path class="st1" d="M1803.3,638.7c2.2-1.8,4.3-3.3,6.8-4.7c2.9-1.5,6.3-2.7,8.5-5.2c1.9-2.1,5.6,0.1,4.2,2.7
						c-3.2,6.2-10.9,9.7-17.4,11.3C1802.9,643.5,1801.1,640.4,1803.3,638.7z"/>
					<path class="st1" d="M1719,654.7c24.8-7,50.8-4.2,75.4-12.9c2.3-0.8,3.7,2.2,1.9,3.6c-9.5,7.5-21.2,9.7-33,10.9
						c-14.5,1.5-29.3,4.2-43.8,3.4C1716.8,659.7,1716.6,655.4,1719,654.7z"/>
					<path class="st1" d="M1689.8,662c7.4-2.2,14.6-3.9,22.3-4.7c2.4-0.3,3.9,3.3,1.7,4.5c-6.7,3.8-15.9,5.1-23.5,4.7
						C1687.8,666.4,1687.6,662.6,1689.8,662z"/>
					<path class="st1" d="M1605.5,664.8c11.6-2.9,25.2-2.8,37.1-2c13.1,0.9,26.3-0.7,39.4,0.3c1.9,0.1,1.9,2.9,0.3,3.6
						c-10.8,4.4-23.6,5-35.1,4.7c-13-0.3-29.6,3.5-42-1.3C1603.1,669.1,1603.1,665.3,1605.5,664.8z"/>
					<path class="st1" d="M1804.5,523.8c18.6,3.9,32.2,20.4,40.6,36.5c8.8,17-1.1,38.4-15.1,49.4c-1.8,1.4-4.2-1.2-2.7-2.9
						c10.2-11.3,17.1-29.4,10.8-43.9c-7.1-16.6-20.9-24.8-35.3-33.9C1800.4,527.5,1801.3,523.2,1804.5,523.8z"/>
					<path class="st1" d="M1788,514.8c3.6,0.7,7.8,1.7,10.4,4.4c2.4,2.4,0,6.3-3.2,5c-3.7-1.5-7.3-1.7-10-4.9
						C1783.5,517.3,1785.7,514.4,1788,514.8z"/>
					<path class="st1" d="M1811.3,620.1c2.7-3,6.9-5,10.7-6.5c0.9-0.3,2.2,0.3,2.2,1.3c-0.2,5.4-6.4,7.9-10.9,8.7
						C1811.2,624.1,1810.1,621.5,1811.3,620.1z"/>
					<path class="st1" d="M1771.3,637.9c5.6-3.5,11.2-5.9,17.7-7.3c6.6-1.3,12.7-4.8,19.3-5.6c1.8-0.2,2.2,1.9,1.1,2.9
						c-10.1,9-23.3,10.7-35.7,14.5C1771,643.2,1768.8,639.5,1771.3,637.9z"/>
					<path class="st1" d="M1751,641c4.5-1.7,9.3-1.9,14-2.2c2.3-0.1,2.7,2.7,0.8,3.6c-4.6,2.3-9.3,3.5-14.4,3.1
						C1748.9,645.3,1748.9,641.7,1751,641z"/>
					<path class="st1" d="M1654.6,650.2c14.8-3.7,30.4-2.1,45.5-3.6c13.9-1.4,29.7-5,43.6-4.2c1,0.1,1.5,1.3,1.1,2.1
						c-4,8-26.3,7.8-33.4,8.7c-18.2,2.1-38.1,4.9-56.3,2.3C1652.5,655.1,1651.9,650.8,1654.6,650.2z"/>
					<path class="st1" d="M1742.7,512.2c22.3,5.1,43.5,11.5,62.9,24.5c4.8,3.2,28.7,19,21.8,27.1c-0.5,0.6-1.4,0.7-2,0.2
						c-9.9-9-16.6-18.9-29.2-24.8c-10.2-4.8-19.9-10.1-30.6-13.7c-8.3-2.8-16.9-3.5-24.7-7.8
						C1738.3,516.2,1739.4,511.5,1742.7,512.2z"/>
					<path class="st1" d="M1828.8,568.3c0.9-1.5,2.7-1.7,3.9-0.3c3,3.6,3.4,7.9,0.8,11.9c-1.4,2-4.2,0.5-4.5-1.4
						c-0.3-1.9-0.2-3.8-0.4-5.7C1828.3,570.9,1827.8,569.9,1828.8,568.3z"/>
					<path class="st1" d="M1768,623.9c9.7-4.3,20.5-6.9,30.6-10.7c6.8-2.6,12.6-8.3,17.6-13.4c2-2,9.9-9.7,9.6-13.2
						c-0.2-2.3,2.8-2.8,3.7-0.8c4.3,8.9-11.2,21.8-16.9,26.4c-12.1,9.8-27.9,15.3-43.3,17.3C1765.8,629.9,1765.1,625.2,1768,623.9z"
						/>
					<path class="st1" d="M1701.9,636.5c8.1-3.8,17.7-2.7,26.4-4.5c10.5-2.1,21.1-3.7,31.6-5.6c2.6-0.5,3,3.2,1,4.2
						c-9,4.4-18.6,6-28.4,7.8c-9.9,1.8-20,3.9-30.2,2.7C1699.7,640.8,1699.9,637.4,1701.9,636.5z"/>
					<path class="st1" d="M1733.8,621.2c27-12.6,91.5-13.4,79.2-58.5c-0.4-1.5,1.3-2.3,2.3-1.2c34.3,38.2-58.7,62.6-80.5,64.3
						C1732.1,625.9,1731.4,622.3,1733.8,621.2z"/>
					<path class="st1" d="M1798.9,546.9c2.2,1.1,4.5,2,6.7,3.2c1.4,0.8,2.4,2.1,3.7,3c1.2,0.9,1.4,2.6,0.8,3.8
						c0,0.1-0.1,0.2-0.1,0.2c-0.7,1.6-2.8,2.1-4.2,1.3c-0.8-0.3-1.6-0.9-2.4-1.3c-2.7-1.6-5.1-3.4-7.5-5.5
						C1793.5,549.5,1795.9,545.5,1798.9,546.9z"/>
					<path class="st1" d="M1764.3,531.2c5.3,0.6,10.1,1.9,14.8,4.5c3,1.6,7.9,2.9,9.7,6.1c1.3,2.3-1.3,4.9-3.5,3.2
						c-1-0.8-2.9-0.9-4.1-1.3c-1.7-0.5-3.3-1.3-4.9-2c-4.5-2-9.1-3.5-13.4-6C1760.6,534.3,1761.6,530.9,1764.3,531.2z"/>
					<path class="st1" d="M1685.9,513.3c12.9-1.5,26.8,1.5,39.3,4.6c8.5,2.1,21.1,4.5,27.8,10.4c1.3,1.1,0.6,3.3-1.1,3.5
						c-8,0.6-15.7-3.3-23.1-5.5c-14.1-4.2-29.2-3.9-43.2-8.1C1683.2,517.3,1683,513.6,1685.9,513.3z"/>
				</g>
				<g>
					<path class="st1" d="M1542.6,317c-3.3-13.4-10.2-25.8-12.3-39.4c-0.4-2.9,3.7-4.4,5.3-1.9c30.1,48,28,118.4,20,172.3
						c-0.5,3.1-4.8,2.7-5.3-0.2c-1.8-11.8-1.2-23,0.4-34.8c1.9-14.3-0.2-30.5-0.3-44.9C1550.2,351.1,1546.6,333.4,1542.6,317z"/>
					<path class="st1" d="M1526.8,251.9c3,4.4,7.1,13,4,18.1c-0.9,1.5-3,1.9-4.1,0.3c-1.7-2.3-2.4-5.1-3.4-7.7
						c-1.3-3.2-2.4-6-2.2-9.5C1521.3,250.3,1525.4,249.8,1526.8,251.9z"/>
					<path class="st1" d="M1418.8,130.5c47.7,25.9,75.8,65.6,102,111.3c1.1,1.9-1.2,4.3-2.9,2.7c-15.4-14-23.6-36.9-37.2-53
						c-18.9-22.5-42.7-37.5-64.4-56.9C1414.3,132.7,1416.4,129.1,1418.8,130.5z"/>
					<path class="st1" d="M1401,115.5c4.5,1.4,9,5.4,12.1,8.9c1.4,1.6-0.8,3.9-2.6,3.1c-4.3-2.1-10.4-3.8-12.3-8.6
						C1397.6,117.2,1399.2,114.9,1401,115.5z"/>
					<path class="st1" d="M1247.4,52.5c28.8,3.5,56.8,13.9,83.7,24.2c18.9,7.3,47.1,16,60.6,32.3c1.8,2.1-1.4,4.4-3.3,3
						c-42.1-29.8-94.9-38.1-142.3-55C1243.3,56.1,1244.8,52.2,1247.4,52.5z"/>
					<path class="st1" d="M1219.4,45.7c6.2-0.8,14.1,1.2,19.4,4.4c1.7,1,0.9,3.5-1.1,3.3c-6.4-0.6-13.2-0.9-19.1-3.6
						C1216.6,48.9,1217.3,46,1219.4,45.7z"/>
					<path class="st1" d="M1199.7,42.5c0.5-0.1,0.8-0.5,1.3-0.7c0.9-0.3,2-0.3,3-0.4c2.3-0.2,4.1,0.6,5.7,2.1
						c0.9,0.8,0.5,2.6-0.8,2.7c-1.8,0.1-3.7,0.6-5.5,0.7c-2.1,0.1-2.4-0.6-4.2-1.4C1197.7,44.8,1198.2,42.7,1199.7,42.5z"/>
					<path class="st1" d="M1058.8,46.4c22-10.2,47.4-10.8,71.2-11.2c18.5-0.2,41.6-1,59,5.5c1.5,0.6,1,2.9-0.5,3
						c-19.2,1.4-38.6-2.4-57.8-2.2c-24.4,0.2-47.1,4.4-70.8,9.3C1057.1,51.3,1056.6,47.4,1058.8,46.4z"/>
					<path class="st1" d="M1003.9,59c14.9-4,30.1-11,45.9-9.5c0.2,0,0.4,0,0.6,0c0,0,0.1,0,0.1,0c0,0,0,0,0,0
						c1.7,0.5,2.9,3.3,0.4,4.3c-7.3,2.8-15,3-22.4,5.4c-7.8,2.5-15.2,4-23.4,4.5C1002.4,63.8,1001.2,59.7,1003.9,59z"/>
					<path class="st1" d="M892.6,111.1c30.3-24.8,63.9-38.4,101.8-46.3c1.9-0.4,2.2,2.4,0.7,3.1c-16.9,7.7-34.8,11.8-51.5,20.1
						c-16.8,8.2-32.2,18.8-49,27C892.3,116.1,890.8,112.6,892.6,111.1z"/>
					<path class="st1" d="M859.5,133.6c4.3-4.6,8.6-8.7,14-12.1c3.1-2,8.4-6.7,12.3-4.7c1.1,0.6,1.5,2.1,0.6,3
						c-6.5,7.1-16,11.5-23.7,17.2C860.6,138.7,857.7,135.6,859.5,133.6z"/>
					<path class="st1" d="M1468.1,197.4c30.9,28.7,50.4,65.4,62,105.5c9.1,31.4,23.9,69.9,14,102.8c-0.4,1.4-2.4,1.4-2.6-0.1
						c-2.2-13.5-3.1-29.1-3.4-42.8c-0.4-19.4-9.1-39-14.5-57.4c-5.6-19-12.3-37-22.3-54.2c-10.5-18.1-25.8-32.6-37.3-49.9
						C1462.2,198.6,1465.7,195.2,1468.1,197.4z"/>
					<path class="st1" d="M1452.1,176.2c5.8,1.8,10.4,8.9,11.1,14.8c0.2,1.9-2,2.8-3.4,1.8c-2.3-1.7-4.1-3.9-5.9-6.1s-3.9-4-5.1-6.6
						C1447.9,178.3,1450,175.6,1452.1,176.2z"/>
					<path class="st1" d="M1324.1,91.2c22,7.4,42.5,19.7,62.1,32.1c19.5,12.3,35.3,30.4,54.6,42.5c3.1,1.9,1.1,6.3-2.4,5.1
						c-5.3-1.9-9.6-6.4-13.8-10.1c-10.1-9-21.7-16.4-32.4-24.6c-21.5-16.6-47-26.8-70.5-39.8C1318.3,94.5,1320.6,90,1324.1,91.2z"/>
					<path class="st1" d="M1291.3,80.4c7.6-0.3,18.2,3.6,23.9,8.6c1.6,1.4,0.3,3.8-1.7,3.6c-3.8-0.4-7.5-1.9-11.1-3.1
						c-4-1.3-8.3-2.1-11.9-4.3C1288.5,84,1288.6,80.5,1291.3,80.4z"/>
					<path class="st1" d="M1258.8,69c4.9,0.1,9.5,1.4,14.1,3.1c2.8,1.1,7.3,2.4,8.2,5.7c0.4,1.5-1.3,3.2-2.7,1.9
						c-0.9-0.9-2.7-0.8-3.8-0.9c-1.6-0.2-3.3-0.9-4.9-1.3c-4-1.1-7.9-2-11.6-3.9C1256,72.6,1256.3,69,1258.8,69z"/>
					<path class="st1" d="M1113.5,54.5c20.5-4.5,41.3-2.8,62-1.1c23.2,2,49.4,1.6,70.9,11.9c1.9,0.9,0.9,3.8-1.1,3.5
						c-21.5-3.4-42.7-6.2-64.3-8c-22.7-1.9-45.2-0.2-67.7-1.7C1110.5,58.9,1111.2,55,1113.5,54.5z"/>
					<path class="st1" d="M1079.8,58.3c7.5-0.7,16.2-3.5,23.6-1.4c2.1,0.6,2.9,3.8,0.4,4.7c-7.4,2.4-16.6,2.9-24.2,1.2
						C1077.1,62.3,1077.2,58.6,1079.8,58.3z"/>
					<path class="st1" d="M973.2,81.7c15.5-7.6,32.7-12.2,49.6-15.3c15.5-2.8,32.2-7.3,48-6.9c1.8,0,2.7,2.6,0.8,3.3
						c-11.4,4.2-24.7,7.3-36.6,9c-20.3,2.8-40.3,9.4-60,14.8C971.8,87.6,970.2,83.2,973.2,81.7z"/>
					<path class="st1" d="M945.5,94.5c3.4-2,6.6-3.8,10.2-5.3c3.4-1.4,6.7-3.3,10.5-2.7c2.2,0.4,2.2,3.3,0.4,4.1
						c-6.4,2.8-12.4,5.7-19.1,7.7C945.2,99,943.2,95.9,945.5,94.5z"/>
					<path class="st1" d="M794.7,218.2c15.9-27.1,40-49.6,62.3-71.3c20.7-20,54-40.3,82.2-46.9c1.5-0.3,2.8,1.6,1.3,2.5
						c-24.3,15.9-50.4,28.3-73.7,45.9c-26.1,19.7-46.1,48.6-68,72.5C797,223,793.2,220.8,794.7,218.2z"/>
					<path class="st1" d="M1517.8,312.7c0.6,1.6,1.2,3.2,1.8,4.8c0.7,2,0.6,4.2,1.4,6.2c1.3,3.1,1.5,5.1,0.3,8.2
						c-0.8,2-3.7,1.6-4.4-0.2c-0.9-2.3-1.9-4.4-3-6.6c-1.6-3.2-1.2-7.7-1.3-11.2C1512.5,310.9,1516.7,309.8,1517.8,312.7z"/>
					<path class="st1" d="M1493.8,250.4c6.3,8.7,11.7,18.9,15.5,29c2.2,5.8,6.5,17.3,3.4,23c-0.8,1.5-3.2,1.6-3.8-0.2
						c-2.4-7.7-4.6-15.7-7.8-23.1c-3.8-9-8.6-17.1-11.8-26.4C1488.4,250,1492.1,248,1493.8,250.4z"/>
					<path class="st1" d="M1352.1,120.5c52.9,24.4,108.8,69.9,134.3,123c1,2-1.9,3-3.2,1.6c-21.7-24-39.7-50.3-64.7-71.4
						c-22-18.6-46.5-31.9-69.5-48.6C1346.4,123.3,1349.2,119.2,1352.1,120.5z"/>
					<path class="st1" d="M1326.3,108.4c5,2.1,11.8,4.1,15.6,8.1c1.1,1.1,0.7,3.2-1.1,3.4c-6.1,0.5-12.8-3.7-16.8-7.9
						C1322.4,110.2,1323.9,107.4,1326.3,108.4z"/>
					<path class="st1" d="M1158.1,70.4c27.7-3.6,56.5,2.4,83.6,7.4c24.6,4.6,53,11.7,74.4,24.7c2,1.2,1.3,4.8-1.3,4.2
						c-23.1-5-45-15-68.1-20.2c-29.7-6.7-58.8-7.2-88.8-10.3C1154.4,75.9,1154.9,70.8,1158.1,70.4z"/>
					<path class="st1" d="M1127.5,69.4c5.5-0.4,11.8-0.4,17.3,0.7c3.7,0.8,1.9,5.1-0.5,5.2c-5.4,1.1-11.8,0.9-17-0.6
						C1124.6,73.9,1124.3,69.7,1127.5,69.4z"/>
					<path class="st1" d="M1078.5,73.7c6.8-1.9,13.7-3,20.7-3c6.2,0,12.8-1.4,18.5,1.6c1.6,0.8,1.2,3.3-0.6,3.5
						c-12.6,1.2-25.6,3.1-38.2,2.4C1076.6,78.1,1076.4,74.3,1078.5,73.7z"/>
					<path class="st1" d="M1017.3,82.6c10.1-3.3,20.1-5.4,30.8-6.1c7.3-0.5,17.2-3.1,24.3-0.8c1.4,0.4,1.1,2.7-0.1,3.1
						c-7.5,2.4-15.6,3.3-23.5,4.3c-10.2,1.2-20.2,3.7-30.4,4.2C1015.7,87.4,1014.6,83.4,1017.3,82.6z"/>
					<path class="st1" d="M885.8,142.8c16.7-15.9,40.4-29.1,62.1-36.8c9.4-3.3,17.8-7.9,27.5-10.6c10.4-2.9,23.3-4.3,33.1-8.6
						c1.6-0.7,3,1.1,2.3,2.6c-0.1,0.2-0.2,0.3-0.2,0.5c-0.3,0.6-0.8,0.9-1.4,0.9c0.6,0.2,0.8,0.3-0.3,0.8c-4.6,2-9.1,3.6-13.9,5.1
						c-10.4,3.2-20.8,6.4-31,10.1c-26.4,9.6-50.2,26-74.2,40.3C887.1,148.9,883.2,145.3,885.8,142.8z"/>
					<path class="st1" d="M862.6,162c3-1.9,5.6-4.3,8.5-6.4c2.3-1.7,4.7-3.3,6.8-5.1c1.9-1.7,4.1,1,3.4,2.9
						c-0.9,2.7-3.5,4.6-5.6,6.4c-3.5,3-6.6,4.9-11,6.1C862.3,166.6,860.4,163.5,862.6,162z"/>
					<path class="st1" d="M815.5,213.7c6.1-10,13.3-18.6,21.3-27.1c4.8-5.2,14.2-18.1,22.2-17.1c1.1,0.1,1.4,1.5,0.8,2.3
						c-6,7.7-12.9,14.6-19.4,21.9c-6.9,7.6-13.1,15.6-20.3,23C818,218.7,813.8,216.5,815.5,213.7z"/>
					<path class="st1" d="M779.4,262.8c7-14.4,15.5-33.3,29-42.9c2.2-1.6,4.8,1.4,3.2,3.5c-4.7,5.8-9,13.2-12.3,19.9
						c-4,8-10.5,15-15.6,22.3C781.9,268,778.1,265.4,779.4,262.8z"/>
					<path class="st1" d="M1239.1,90.2c50.4,9.7,99.7,33.2,141,63.6c39.1,28.8,93.7,66.8,104.9,117.7c0.4,1.8-2,2.1-2.9,1.1
						c-16.2-18.8-23.9-43-43.1-60c-20.9-18.5-41.3-36.3-63.7-53.1c-19.2-14.4-41.1-25.6-62.5-36.3c-24.2-12.2-50.4-18-75.2-28.5
						C1235.2,93.6,1236.5,89.6,1239.1,90.2z"/>
					<path class="st1" d="M1209.8,86.9c5.4,0.4,10.7,1.1,16,2c3.3,0.6,3,5.3-0.2,5.8c-6.1,0.8-11.7-0.9-17.2-3.3
						C1205.7,90.3,1207.2,86.8,1209.8,86.9z"/>
					<path class="st1" d="M973.5,113.6c14.3-11.7,33.1-14.4,50.6-18.6c18.9-4.6,38.7-7.8,58.1-9.8c19.3-1.9,38.5-3.2,58-3.2
						c17.1,0,38.8-2.3,54.7,5c2.1,1,0.9,3.7-1.2,3.6c-35.3-2.3-70.8-2.2-106.1,0.7c-36.7,3.1-78.8,10.2-112,26.3
						C973.1,118.7,971.6,115.1,973.5,113.6z"/>
					<path class="st1" d="M942.9,126.9c6.1-4.4,14.3-10.6,22.2-9.8c2.7,0.3,3.2,4.8,0.5,5.4c-3.3,0.8-6,2.4-9.1,3.9
						c-3.8,1.9-7.5,3.3-11.5,4.5C942.5,131.8,940.7,128.5,942.9,126.9z"/>
					<path class="st1" d="M912.3,142.2c6.3-5.7,13.8-9.2,22.2-11.2c2.9-0.7,4.5,3.1,1.6,4.4c-7.3,3.4-14.2,7.7-21.7,10.8
						C911.8,147.3,910.5,143.8,912.3,142.2z"/>
					<path class="st1" d="M811.5,242.6c19.9-35.9,54.8-78.6,94.4-93.8c2.1-0.8,3.3,2,1.7,3.3c-14.9,12.4-31.4,22.4-44.9,36.5
						c-17.2,17.9-31.8,37.3-47.5,56.5C813.7,246.9,810.3,244.8,811.5,242.6z"/>
					<path class="st1" d="M805,251.8c1.6-1.6,4.5,0,3.4,2.2c-6,12.1-15.1,22.9-22,34.7c-8.9,15.2-15.1,32.1-21.5,48.4
						c-1.1,2.8-5.6,1.3-5-1.6C766.1,304.4,782.6,274.2,805,251.8z"/>
					<path class="st1" d="M1418.9,203.9c3.2,3.5,7.7,6,10.1,10c1.3,2.2-0.9,5.8-3.5,4.2c-4.9-2.9-8.7-5.8-10.9-11.2
						C1413.6,204.5,1417,201.8,1418.9,203.9z"/>
					<path class="st1" d="M1309.8,131.9c34.2,10.9,74,36.8,97.8,63.8c1.9,2.1-1.4,4.5-3.4,3.1c-14.2-9.7-27.2-21-41.7-30.4
						c-17.8-11.6-36.9-21-54.7-32.5C1305.4,134.4,1307,131,1309.8,131.9z"/>
					<path class="st1" d="M1285,120.7c5.7,0.4,10.2,3.1,15.4,4.9c1.4,0.5,1.9,2.4,1.3,3.7c-0.2,0.4-0.4,0.7-0.7,1
						c-0.8,1-2.1,1.1-3.1,0.5c-5.2-0.1-10.9-3.3-14.9-6C1280.9,123.4,1282.9,120.6,1285,120.7z"/>
					<path class="st1" d="M1075.3,98.1c33.9-6.8,71-3.1,105.3-1.3c28.8,1.4,68.5,3.9,93.9,19c1.7,1,1,3.8-1.1,3.4
						c-29.1-5.3-57.6-11-87-14.9c-36.8-4.8-74.6,1.3-111.3-2.1C1072.7,101.9,1073.2,98.5,1075.3,98.1z"/>
					<path class="st1" d="M1045.4,103.1c3.6-0.8,7-1.4,10.7-1.7c3.7-0.3,7.2-1.9,10.9-1.3c2.5,0.4,2.9,4.1,0.4,4.9
						c-7.5,2.5-13.8,4.2-21.7,2.4C1043.8,107,1043,103.6,1045.4,103.1z"/>
					<path class="st1" d="M847.8,216.3c26-31.1,57.8-53.3,92.9-73.3c26.3-15,60.8-34.6,91.9-35.7c1.5-0.1,2.5,1.6,1.5,2.8
						c-6.7,8.3-23,9.8-32.6,12.3c-20,5.2-38.7,16.7-56.7,26.4c-17.2,9.2-34.2,20-49.8,31.6c-15.9,11.8-28.5,26.9-43.6,39.7
						C849,222.2,846,218.6,847.8,216.3z"/>
					<path class="st1" d="M831.5,237.3c2.2-5.3,5.7-10.5,10.4-13.9c2.8-2,5.5,1.6,3.8,4.2c-2.9,4.4-5.8,9.1-9.7,12.7
						C833.8,242.2,830.2,240.3,831.5,237.3z"/>
					<path class="st1" d="M828,245.3c2.3-1.5,5.5,1.7,3.4,3.7c-2.3,2.1-3.9,4.8-6.2,6.8c-1.8,1.5-4.1-0.5-3.9-2.5
						C821.8,249.6,825.1,247.2,828,245.3z"/>
					<path class="st1" d="M787.4,310.6c6-19.1,15-34,27.7-49.4c1.5-1.9,4.7,0.1,3.6,2.3c-8.1,16.4-17.2,32.9-26.4,48.6
						C790.9,314.6,786.5,313.6,787.4,310.6z"/>
					<path class="st1" d="M782.7,318.1c1.4-1.7,4.2,0.1,3.2,2.1c-4.6,9.9-7.8,20.2-11.8,30.3c-4.9,12.5-6,25.6-10,38.2
						c-1.2,3.6-6.1,2.8-5.8-1C759.9,363.9,767.3,336.8,782.7,318.1z"/>
					<path class="st1" d="M982.8,139.3c28.3-20.1,64.3-22.7,97.4-28.9c30.7-5.8,64.3-3.4,95.2-0.5c37.5,3.5,71.6,9.8,107.4,21.5
						c27.7,9.1,52.3,24.8,76.2,41.1c2.7,1.8-0.2,6.1-3,4.7c-12.4-6.1-23.5-14.9-35.7-21.6c-11.8-6.4-24.2-10.6-36.3-16.2
						c-32.3-14.8-68.7-19.1-103.7-21.9c-31.6-2.5-61.8-2.7-93.2-0.6c-35.9,2.4-68.6,15.3-101.8,27.1
						C982.4,145.1,980.3,141.1,982.8,139.3z"/>
					<path class="st1" d="M956,153.3c2.9-2.6,6-4.6,9.5-6.4c2.5-1.3,6.2-3.3,9.1-2.9c2.3,0.4,2.8,3.4,1,4.7
						c-5.1,3.7-11.1,7.3-17.1,9.4C955.4,159.2,953.7,155.3,956,153.3z"/>
					<path class="st1" d="M926.3,170.2c7.1-6.3,14.7-10.9,24.1-12.8c2.4-0.5,2.8,3,0.9,3.9c-8,3.8-14.7,9.5-22.8,13.1
						C925.8,175.6,924.4,171.9,926.3,170.2z"/>
					<path class="st1" d="M776.1,372.5c9.4-39.3,32.7-77.1,55-110.4c21.4-32,48-72.9,86.4-85.9c1.9-0.7,3.3,1.9,1.7,3.1
						c-31.5,23.4-56.6,48.9-78.5,81.9c-23.8,35.9-41.9,73.8-59.9,112.7C779.5,376.5,775.4,375.2,776.1,372.5z"/>
					<path class="st1" d="M770,388.2c0.6-3,1.8-6.2,4.3-8.1c2.6-1.9,6,1.8,3.8,4.2c-1.3,1.4-1.2,4.6-1.5,6.4
						c-0.2,1.7-0.4,3.5-0.6,5.2c-0.2,2.1-1,3.5-1.5,5.4c-0.6,2.1-4.1,3.1-4.8,0.4c-0.5-2.1-1.2-3.5-1-5.8
						C768.9,393.4,769.4,390.9,770,388.2z"/>
					<path class="st1" d="M767.5,411.3c1-3.3,5.6-2.6,5.3,0.9c-0.3,4.4,0.2,8.7-0.2,13.1c-0.4,4.5-0.8,8.7-2,13
						c-0.8,3.2-5.9,3.4-6.1-0.2C764.1,429.6,765,419.6,767.5,411.3z"/>
				</g>
				<g>
					<path class="st1" d="M634.9,830.2c3.2-1.5,6.2-2.1,9.7-2.7c3.3-0.6,6.7-1.6,10.1-1.3c2.5,0.2,2.7,3.9,0.4,4.7
						c-6.7,2.3-12.5,4.9-19.8,3.9C632.8,834.5,632.8,831.2,634.9,830.2z"/>
					<path class="st1" d="M480.6,817.1c27.3,5.1,53.7,15.3,82,13.8c20-1.1,42-0.5,62,0.6c2.3,0.1,2.5,3.8,0.4,4.5
						c-21.8,6.5-44.5,2-66.7,3.3c-25.4,1.4-56.7-5.6-79.3-17C476.3,820.8,477.6,816.5,480.6,817.1z"/>
					<path class="st1" d="M452.6,807.9c5.4,2,10.8,3.8,15.8,6.6c2.2,1.3,1.2,4.5-1.4,4.2c-6.6-0.7-13.6-1.1-17.6-7.2
						C448,809.4,450.3,807.1,452.6,807.9z"/>
					<path class="st1" d="M380,755.2c17.9,17.3,39.6,30.1,58.8,45.8c1.5,1.2,0.5,3.3-1.1,3.6c-8.8,1.5-22-10.5-28.4-15.8
						c-12.1-9.9-25.4-16-33.3-30C374.5,756.3,377.6,752.9,380,755.2z"/>
					<path class="st1" d="M361.2,733.5c4.5,5.5,9.7,10.7,12.7,17.3c0.8,1.8-1.3,3.5-3,2.7c-7.2-3.4-11.6-10.5-14.2-17.7
						C355.6,733,359.4,731.3,361.2,733.5z"/>
					<path class="st1" d="M334.5,689.4c7.8,12.1,13.9,25.2,21.9,37.2c1.4,2.1-1.2,4.5-3.2,3c-11.1-8.4-20.9-24.8-23.6-38.4
						C329.1,688.5,333.1,687.3,334.5,689.4z"/>
					<path class="st1" d="M319.6,634.6c0.3-2.2,3.3-1.8,3.7,0.2c1.5,8.6,4.9,16.8,6.5,25.3c1.4,7.3,5.9,14.4,5,21.8
						c-0.2,1.9-2.9,2.9-4.2,1.5c-5.1-5.2-6.9-12.8-8.1-19.8C320.7,653.7,318.4,644.8,319.6,634.6z"/>
					<path class="st1" d="M562.8,821.2c51.6-7,102.3-5.6,152.1-24.5c1.5-0.5,2.6,1.6,1.3,2.4c-23.8,15.1-51,17.4-77.5,23.4
						c-23.1,5.2-52.7,6.5-76.1,4.6C559,826.8,559.6,821.7,562.8,821.2z"/>
					<path class="st1" d="M532.8,817.2c3,0.1,5.8,0.6,8.8,1c2.9,0.4,5.8-0.2,8.1,1.8c1.5,1.3,0.6,3.3-1.2,3.7
						c-6,1.3-11.9,2-17.1-2.1C529.9,820.4,530.6,817.1,532.8,817.2z"/>
					<path class="st1" d="M398.5,755.7c19.1,13.1,36.3,26.9,57.2,37.2c20.2,10,44.1,14.7,65.6,21.4c2.3,0.7,2.7,4.6-0.2,4.6
						c-21-0.1-45-9.5-64.4-17.1c-22.4-8.8-48-22.5-62.5-42.2C392.3,756.8,396,754,398.5,755.7z"/>
					<path class="st1" d="M384.4,738.7c1.8,1.9,3.5,3.8,5,5.8c1.2,1.6,2.9,2.9,3.9,4.6c0.7,1.2,0.3,2.6-1,3.1
						c-5.7,2.3-10.7-6.4-12.2-10.6C379.3,739.3,382.5,736.6,384.4,738.7z"/>
					<path class="st1" d="M346.4,673.6c6.5,8.2,9.6,19,14.4,28.2c5.3,10.3,12.1,19.5,17.4,29.9c0.8,1.5-1.3,3.4-2.7,2.5
						c-7.3-4.7-14.8-15-18.5-22.8c-5.4-11.5-12.9-23.4-15-36.1C341.5,672.7,345,671.9,346.4,673.6z"/>
					<path class="st1" d="M729.8,771.7c3.5-2.9,7.1-5.6,10.9-8.2c2.9-2,7.1-4.3,9.4-7c1.3-1.5,3.5-0.6,3.8,1.2
						c0.7,4-4.4,7.6-7.1,9.8c-4.5,3.8-9.2,6.5-14.6,8.8C729.3,777.6,727.6,773.5,729.8,771.7z"/>
					<path class="st1" d="M660.9,798.7c11-4.1,22.5-6.1,33.7-9.4c10.1-3,18.9-9.4,29.6-10.8c1.7-0.2,2.7,2.3,1.2,3.2
						c-9.3,5.2-17.8,11.6-27.9,15.3c-11.1,4.1-23.5,6.6-35.3,7C659,804.1,657.9,799.8,660.9,798.7z"/>
					<path class="st1" d="M632.3,805.2c3.2-1.6,7.1-2.3,10.6-2.9c3-0.4,5.4-1.6,8.5-1.3c2.1,0.2,2.3,3.5,0.4,4.1
						c-3.1,0.9-5.8,2.5-8.9,3.4c-3.3,1-6.7,1.9-10.1,1.6C629.9,809.9,630.2,806.2,632.3,805.2z"/>
					<path class="st1" d="M490.2,790.8c24.4,6,47.3,13.7,72.7,14.5c19.8,0.6,40-2.1,59.7,0.1c2.1,0.2,2.5,3.7,0.4,4.2
						c-21,5.1-45.7,5.5-67.1,3.7c-22.5-1.9-48.8-4.8-68-17.6C485.5,794.2,487.6,790.2,490.2,790.8z"/>
					<path class="st1" d="M463.4,781.1c5.3,2.3,10.6,4.7,16,7c2.4,1,1.6,4.6-0.9,4.9c-6.5,0.8-13.3-3.5-17.8-7.6
						C458.6,783.4,460.8,780,463.4,781.1z"/>
					<path class="st1" d="M383.3,711.1c12.5,12.2,22.9,26.7,35.2,39.2c9.8,9.8,24,20.3,36.4,26.2c1.8,0.9,1.3,3.5-0.7,3.8
						c-14.6,1.8-28-13.2-38.3-21.8c-13.2-10.9-31.8-27.4-37.2-44.2C377.8,711.7,381.1,708.9,383.3,711.1z"/>
					<path class="st1" d="M692,774.6c13-7.3,27.1-11.5,39.5-20c13.2-9.2,27-23.6,33.8-38.5c1.2-2.6,5.7-1.3,4.9,1.5
						c-9.9,33.3-43.5,54.1-75.4,62.3C691.7,780.6,688.8,776.4,692,774.6z"/>
					<path class="st1" d="M666,782.8c5.1-2.2,10.7-3.8,16-5.5c2.6-0.8,4.7,2.7,2.3,4.4c-5,3.4-11,6.1-17.1,6.4
						C664.1,788.2,663.2,784,666,782.8z"/>
					<path class="st1" d="M571.1,793.8c28.8-1.9,57.4-5,86.1-6.9c1.6-0.1,2.4,1.9,1.1,2.9c-10.7,7.7-26.9,8-39.6,9.7
						c-15.7,2.2-32.3,2.2-47.8-1.1C568.5,797.9,568.5,794,571.1,793.8z"/>
					<path class="st1" d="M541.9,792.9c5.3-1.4,11.6-2.2,17.1-1.1c2.9,0.6,2.4,4.3-0.2,4.9c-5.2,1.1-11.3,1.5-16.5,0.3
						C540.4,796.5,539.7,793.5,541.9,792.9z"/>
					<path class="st1" d="M520.7,787.7c3.5-0.2,7,0,10.3,1c2.3,0.7,4.5,0,5.3,2.9c0.5,1.9-1.1,3.3-2.9,2.7c-0.6-0.2-2,0.3-2.6,0.4
						c-1.1,0.2-2.5-0.1-3.6-0.2c-2.7-0.3-5-0.5-7.4-1.6C517.4,791.8,518.1,787.9,520.7,787.7z"/>
					<path class="st1" d="M440.7,746c22.8,16.1,44.1,28.3,70.3,38.1c2,0.7,1.2,3.6-0.7,3.9c-12.9,1.7-28.6-6.6-39.4-12.6
						c-12.5-6.9-25.5-14-34.6-25.3C433.9,747.2,438.1,744.2,440.7,746z"/>
					<path class="st1" d="M771.4,675.9c0.9-3,2.8-5.2,4-8.1c0.9-2.1,3.9-0.9,3.7,1.2c-0.7,6-2.2,12.9-5.6,18
						c-1.5,2.3-5.1,0.2-4.7-2.2C769.4,681.7,770.5,678.9,771.4,675.9z"/>
					<path class="st1" d="M729,736.8c5.3-6.9,12.5-12.3,18.2-19c6-6.9,13.9-17.3,17-26c1-2.8,4.9-1.1,4.7,1.5
						c-0.8,8.4-6.9,18.3-11.8,25.1c-6.3,8.7-14.5,17.6-24,22.8C730.1,742.9,726.8,739.7,729,736.8z"/>
					<path class="st1" d="M704.6,754.4c3.1-3.4,6.3-5.7,10.3-8c2.3-1.3,5.2-3.8,7.9-3c2.1,0.6,2.7,3,1,4.4
						c-5,4.3-10.2,8.3-16.5,10.5C705,759.1,702.9,756.3,704.6,754.4z"/>
					<path class="st1" d="M607.4,776.5c16.9-2.9,33.7-3.6,50.5-7.6c12.9-3,25.2-8.2,38.2-10.3c1.8-0.3,2.6,2.3,1.2,3.3
						c-23,15.8-62.7,24.5-90.2,20.7C603.5,782.1,604.1,777.1,607.4,776.5z"/>
					<path class="st1" d="M498.6,763.8c28.3,8.4,66,21.6,96.2,13.5c2.7-0.7,4.4,2.5,2.2,4.2c-9.4,7.7-25.1,5-36.5,3.9
						c-21.9-2.1-44.2-5-63.7-15.8C493.8,768,495,762.7,498.6,763.8z"/>
					<path class="st1" d="M720.3,726.8c12.4-14.5,24.6-26.3,33.9-43.3c8.2-15,16.2-34.4,18.4-51.4c0.2-1.6,2.6-1.5,2.8,0.1
						c3.5,37-22.6,77.8-51.5,98.6C721.4,732.7,718.3,729.2,720.3,726.8z"/>
					<path class="st1" d="M698.8,741.4c4.6-3.7,9-7.5,14.5-10c2.2-1,4.3,2.1,2.7,3.8c-4.2,4.7-9,8.3-15.1,10.1
						C698.4,746.1,696.7,743,698.8,741.4z"/>
					<path class="st1" d="M679.6,750.9c4-3.1,8.2-5,13.2-5.9c3.2-0.6,3.9,4.1,1.2,5.3c-4.3,2-8,4.7-12.8,4.9
						C678.8,755.2,677.7,752.3,679.6,750.9z"/>
					<path class="st1" d="M630.9,762.9c6.4-2.6,13.5-3.3,20.2-4.5c6.8-1.3,13.8-4.8,20.7-5.2c2.2-0.1,3.4,2.8,1.5,4.1
						c-11.1,7.4-28,11.1-41.2,11.2C629,768.4,627.8,764.1,630.9,762.9z"/>
					<path class="st1" d="M556.6,764.3c13.6,0.6,27,0.8,40.5,1.1c8.4,0.2,17.2-3.2,25.6-1.8c1.7,0.3,2.1,2.5,0.8,3.5
						c-7,5.5-20.3,6.1-28.8,6.3c-13.5,0.3-27,1.4-40-3.1C551,769.1,553.4,764.2,556.6,764.3z"/>
				</g>
				<g>
					<path class="st1" d="M1050.4,932.1c4.2-1.9,8.2-2.9,12.7-3.8c4.4-0.9,8.4-3.1,12.8-3.6c1.8-0.2,3.1,2.1,1.8,3.5
						c-6.4,6.6-17.4,9-26.2,8.8C1048.7,936.9,1047.8,933.4,1050.4,932.1z"/>
					<path class="st1" d="M1023.7,937.3c3-0.9,6-1.5,9.1-2.3c2.8-0.7,5.1-2.3,8-1.6c2.4,0.5,2.4,3.5,0.4,4.5
						c-5.7,2.8-10.6,5.7-17.2,4C1022,941.3,1021.3,938.1,1023.7,937.3z"/>
					<path class="st1" d="M918,916.5c31.4,11.2,61.4,18.2,94.8,19.3c2.5,0.1,4.1,4,1.1,4.8c-29.3,7.6-74.5-1.3-99-19.2
						C912.1,919.3,915.2,915.5,918,916.5z"/>
					<path class="st1" d="M890.7,900.5c2.7,1.5,5.2,3.1,7.7,4.9c3,2.2,6.4,3.7,9.2,6.1c1.6,1.4,0.8,4.3-1.4,4.4
						c-7.5,0.5-14.9-5.4-19.3-11C885.1,902.6,888,899.1,890.7,900.5z"/>
					<path class="st1" d="M836.9,847.4c6.9,9.1,13.2,18.9,22.1,26.2c7.6,6.3,14.1,15.3,22.2,20.9c1.8,1.2,0.2,4.3-1.8,3.8
						c-10.4-2.5-16.7-13.3-25.2-19.1c-4.9-3.4-9-8.9-12.8-13.4c-4.1-4.8-7.8-9.6-9.5-15.8C831,847,834.9,844.7,836.9,847.4z"/>
					<path class="st1" d="M825.8,827.2c1.8,2.5,3.1,4.6,4.4,7.4c1.1,2.4,2.3,3.9,1.8,6.7c-0.4,2.1-3.5,3.1-4.7,1
						c-1.2-2-2.9-3.4-4-5.6c-1.4-2.6-1.7-4.9-2.1-7.8C820.8,826.3,824.4,825.2,825.8,827.2z"/>
					<path class="st1" d="M805.2,776.1c0.9-1.8,3.2-1.6,4.1,0.2c3.2,6.8,4,14.7,6.4,21.8c1.5,4.5,2.9,9,4.2,13.5
						c0.8,2.6,2.5,3.9,2.5,6.7c0.1,2.4-3.1,3.9-4.6,1.7c-4.6-7.1-7.2-14-10-22.1C805.8,791.7,801.8,782.1,805.2,776.1z"/>
					<path class="st1" d="M1007.7,920.5c17.4-0.5,33.3-2.2,50.2-6.5c12.7-3.3,32.1-10.8,41.8-20.2c1.6-1.5,3.9,0.4,2.6,2.2
						c-17.5,24.9-66.8,36.4-94.9,30.6C1004.1,926,1004,920.6,1007.7,920.5z"/>
					<path class="st1" d="M980.4,919.1c2.8,0.2,5.7,0.2,8.5,0.4c2.9,0.2,6.1-0.3,8.8,1c2.2,1.1,2,5.2-0.9,5.2
						c-3.1-0.1-6.2,0.8-9.3,0.8c-3.3,0-5.8-0.8-8.7-2.3C975.9,922.7,977.5,918.9,980.4,919.1z"/>
					<path class="st1" d="M951.7,912.1c3.2,0.6,6.4,1.3,9.6,1.8c3,0.5,5.8,1.8,8.9,2.3c2.8,0.4,2.4,4.3-0.2,4.7
						c-3.8,0.6-6.1,0.8-9.9,0c-4.2-1-7.1-1.4-10.5-4.2C947.5,915.1,949.1,911.6,951.7,912.1z"/>
					<path class="st1" d="M888.7,882.3c7.9,4.5,15.2,10,23.4,14c9.7,4.7,20,8.4,29.8,12.8c1.9,0.9,1.2,3.5-0.7,3.8
						c-10.1,1.7-20.4-4.9-29.7-8.1c-9.8-3.4-20.9-9.3-26.3-18.4C883.9,884.2,886.1,880.8,888.7,882.3z"/>
					<path class="st1" d="M872.8,867.4c3.8,2.3,7.7,4.9,10,8.7c1.4,2.3-0.3,4.8-2.9,4.6c-2-0.2-3.4-1.7-5-2.9
						c-2.4-1.7-4.3-3.5-5.9-6C867.6,869.5,870.1,865.8,872.8,867.4z"/>
					<path class="st1" d="M836.3,820.6c4.6,7.3,8.9,14.6,14.2,21.4c5.2,6.8,12.2,12.3,16.4,19.8c1,1.7-0.6,3.8-2.5,3
						c-8.2-3.5-14.3-11.9-20-18.5c-5.5-6.3-12.5-15.3-13.2-23.8C830.8,819.8,834.7,818.1,836.3,820.6z"/>
					<path class="st1" d="M1106.1,870.5c2.5-5.1,6.4-9.3,9-14.3c1.7-3.2,6.1-0.9,5,2.4c-2.1,6.1-6.1,10.5-10.8,14.6
						C1107.6,874.5,1105.2,872.3,1106.1,870.5z"/>
					<path class="st1" d="M1061.7,902.7c7.2-4.5,15-8.2,22.2-12.7c6.4-4,11.9-10.1,18.9-13c2.1-0.8,3.7,1.8,2.4,3.4
						c-10.6,13-24.8,24-41.5,27.7C1060.7,908.8,1059.2,904.2,1061.7,902.7z"/>
					<path class="st1" d="M1027.5,907.3c7-2.4,15.3-0.6,21.7-4.8c2.4-1.5,5.2,1.5,3.3,3.7c-5.9,6.9-17.1,8.5-25.3,5.8
						C1025.2,911.2,1025.6,907.9,1027.5,907.3z"/>
					<path class="st1" d="M929,888.2c29.5,9.8,57.6,18.4,88.9,18.2c2.3,0,2.9,2.8,0.9,3.8c-10.5,5.3-22.6,4.1-33.9,2.2
						c-19.1-3.2-42.1-7.7-58.7-18.3C922.6,891.8,925,886.8,929,888.2z"/>
					<path class="st1" d="M909,877.5c3.6,1,6.6,3.3,10.2,4.4c3,0.9,3.1,5-0.2,5.6c-4.8,0.8-9.7-2.3-12.8-5.7
						C904.6,880.1,906.8,876.9,909,877.5z"/>
					<path class="st1" d="M870.1,845.1c5.4,4.1,9.5,9.4,15,13.5c2.5,1.8,4.6,3.9,6.8,6.1c2.4,2.4,5.6,3.8,8.2,6
						c1.8,1.6,0.7,4.2-1.5,4.6c-6.5,1.3-12.5-6-16.9-9.7c-6.1-5-13.1-9.6-15.8-17.5C865,845.5,868,843.5,870.1,845.1z"/>
					<path class="st1" d="M1062.2,884c13.9-9.8,27.8-17.1,39.6-29.9c12.1-13.2,19.8-30,27.8-45.9c0.8-1.6,3.5-0.8,3.1,1
						c-8.5,35.2-32.1,68-67.4,80.6C1061.7,891,1059.1,886.1,1062.2,884z"/>
					<path class="st1" d="M1035.1,890.7c2.7-0.9,5.3-1.4,8.1-1.9c2.2-0.4,6.5-0.6,7.9-2.6c1.8-2.6,5.3,0.2,4.4,2.8
						c-2.5,6.8-14.2,8.1-20,6.4C1033.4,894.8,1032.6,891.6,1035.1,890.7z"/>
					<path class="st1" d="M974.7,885.8c10.7,0.8,20.9,5,31.6,5.2c6.8,0.1,13.7,0.6,20.5,1.3c2.1,0.2,2.2,3.3,0.4,4
						c-16.7,6.2-38.6,2.4-54.2-5.1C969.8,889.7,971.6,885.5,974.7,885.8z"/>
					<path class="st1" d="M902.2,855c18.8,12.5,39.9,21.7,61.6,27.7c2.8,0.8,3,5.1-0.2,5.4c-13.9,1.3-25.7-5.5-38.1-10.6
						c-10.1-4.1-22.3-8.4-27.7-18.4C896,856,899.3,853.1,902.2,855z"/>
					<path class="st1" d="M1126.5,783.7c0.9-3.4,1.4-6.8,2.4-10.2c0.5-1.8,3.4-2.6,4-0.3c1.8,6.9,1,15.9-3.9,21.4
						c-1.3,1.4-4.3,0.9-4.3-1.3C1124.8,789.9,1125.6,786.9,1126.5,783.7z"/>
					<path class="st1" d="M1097.6,838.5c6.8-13.3,16.6-24.6,22.9-38.3c1-2.2,4.6-1.7,4.7,0.8c0.2,6.6-4,14.6-7.1,20.3
						c-4.2,7.6-10.1,14-16.4,19.8C1099.7,842.8,1096.2,841.1,1097.6,838.5z"/>
					<path class="st1" d="M991.7,872.1c18.2,0.4,35.7,2.1,53.7-2.3c17.3-4.2,32.9-15.8,46.6-26.6c2.3-1.8,4.6,1.4,3.2,3.5
						c-19.5,29.8-72.1,42-104.5,31.2C987.8,877,988.7,872,991.7,872.1z"/>
					<path class="st1" d="M967.1,866.3c4.4,0.6,8,1.8,12.5,1.5c4-0.2,5.2,5.2,1.5,6.8c-5.4,2.3-12.1,0.7-16.7-2.8
						C961.8,869.9,964.1,865.9,967.1,866.3z"/>
					<path class="st1" d="M944.6,862c3.3,0.5,11.3,0.5,12.3,4.6c0.5,2.1-1.4,4.5-3.6,3.3c1,0.5-1.3,0.2-1.3,0.2
						c-1.3-0.1-2.5-0.4-3.8-0.7c-2.2-0.5-3.8-1.8-5.4-3.2C940.9,864.6,942.3,861.7,944.6,862z"/>
				</g>
				<g>
					<path class="st1" d="M1547.6,819.7c2.3-4.5,5.4-8.5,8.6-12.5c2.7-3.5,5.5-8.2,9.4-10.5c2.1-1.2,4.6,0.7,3.6,3.1
						c-3.6,8.7-9.2,18.2-17,23.8C1549.6,825.3,1546.2,822.5,1547.6,819.7z"/>
					<path class="st1" d="M1449.4,882.5c17.8-10,36.9-17.3,54.5-28.1c8.1-5,15.9-10,23.4-15.8c5.2-4.1,9.5-9.9,15.8-12.4
						c2.4-0.9,4.8,2.3,2.9,4.2c-25.7,26.4-57.7,48.2-94.1,56.9C1449.1,888,1446.4,884.2,1449.4,882.5z"/>
					<path class="st1" d="M1422,889.3c3.1-1.4,6.2-2.2,9.4-3.3c2.6-0.9,5-2.6,7.8-2.5c3.4,0.1,5.1,4.8,1.4,6.2c-2.7,1-5,2.9-7.7,3.9
						c-3.6,1.3-6.7,1.3-10.4,0.8C1419.7,894,1419.7,890.3,1422,889.3z"/>
					<path class="st1" d="M1304.8,883.2c20.2,3.4,40.4,6.7,60.9,7.4c15.8,0.5,31.6-2,47.4-1.2c2.6,0.1,2.7,4.1,0.4,4.8
						c-32.3,11-79.2,7.1-110.5-5.5C1300,887.4,1301.7,882.6,1304.8,883.2z"/>
					<path class="st1" d="M1274.2,875.5c6.1,2.4,12.2,3.6,18.6,5.1c3.4,0.8,3,5.3-0.2,5.9c-7.6,1.5-15.6-1.5-21.1-6.8
						C1269.4,877.6,1271.5,874.4,1274.2,875.5z"/>
					<path class="st1" d="M1238.2,860c4.7,1.9,9,4.3,13.6,6.4c3.7,1.7,7.4,3.3,10.8,5.6c1.6,1.1,0.8,3.6-0.7,4.2
						c-3.8,1.6-8.2-0.7-11.9-1.9c-5.6-1.8-11.2-4.6-15.4-8.7C1231.8,863,1234.6,858.6,1238.2,860z"/>
					<path class="st1" d="M1184.2,816.9c11.4,14.9,29.5,23.8,43.8,35.5c1.9,1.6,0.2,4.1-1.9,4c-10-0.6-20.2-9.3-27.4-15.7
						c-8.3-7.3-15.7-10.1-19.4-21.3C1178.4,816.4,1182.3,814.4,1184.2,816.9z"/>
					<path class="st1" d="M1565.9,773.4c1.5-4.5,4.6-8.3,6.5-12.7c1.1-2.5,5.1-1.2,4.6,1.5c-1.1,5.3-3.2,10.7-7.3,14.4
						C1567.5,778.5,1565.2,775.5,1565.9,773.4z"/>
					<path class="st1" d="M1513.6,831.7c8.9-8.3,18.9-14.9,27.4-23.8c7.5-7.9,14.3-18.2,20.3-27.3c1.3-2,4.8-0.3,4.3,2
						c-2.5,9.9-10,19.4-15.9,27.6c-7.8,10.8-20.3,21.4-32.5,26.5C1514.3,837.8,1511.2,833.9,1513.6,831.7z"/>
					<path class="st1" d="M1490.9,847.9c1.8-2.2,4.6-3.6,7-5.1c2.9-1.8,5.8-3.5,9-4.8c2.6-1.1,3.9,2.4,2.1,4
						c-4.3,3.9-9.6,9.9-15.7,10.4C1490.8,852.7,1489.3,849.8,1490.9,847.9z"/>
					<path class="st1" d="M1362.1,877.1c21-1,41.5-2.3,62.3-4.9c20.8-2.6,39.2-16.3,59.5-18.4c1.8-0.2,2.4,2.1,1.1,3.1
						c-15.6,12-35,18.7-54.1,22.5c-22,4.3-47,8.2-69,2.9C1359.2,881.5,1359.1,877.2,1362.1,877.1z"/>
					<path class="st1" d="M1336.6,873.8c5.1-0.1,10.5,0.3,15.5,1.3c3.8,0.7,3.3,5.8-0.3,6.5c-6.1,1.2-10.6-0.4-16.1-2.8
						C1333.3,877.9,1333.9,873.9,1336.6,873.8z"/>
					<path class="st1" d="M1228.4,839c13.8,5.4,26.5,13.3,40.6,17.9c18.2,6,36.2,11,55.1,14c3.3,0.5,3.1,5.6-0.2,5.9
						c-29.8,2.5-76.2-13-98.3-33.4C1223.2,841.3,1225.5,837.8,1228.4,839z"/>
					<path class="st1" d="M1513.2,819.2c13.2-15.5,26.6-30.3,37.8-47.4c12.2-18.5,19.3-38.7,30.6-57.5c0.4-0.6,1.3-0.3,1.2,0.4
						c-2.9,21.5-10,40.8-22.8,58.3c-13.3,18-23.9,37.8-43.1,50.3C1514.3,824.9,1511.2,821.7,1513.2,819.2z"/>
					<path class="st1" d="M1489.2,833.2c2.1-1.3,4.1-2.8,6.2-4.2c2-1.3,4.7-2.7,5.9-4.8c1.3-2.1,5.1-2.1,5.2,0.9
						c0.1,3.2-2.2,4.9-4.5,6.7c-3.5,2.8-7,4.6-11.4,5.3C1488.5,837.6,1487.3,834.3,1489.2,833.2z"/>
					<path class="st1" d="M1445.9,851.5c5.2-3,10.9-4.4,16.6-6.2c5.3-1.8,12.8-3.9,17.3-7.4c1.7-1.3,3.6,0.7,2.9,2.5
						c-1.9,4.6-8.1,7.4-12.2,9.6c-6.8,3.7-14.7,6.6-22.4,7.4C1444.9,857.7,1443,853.1,1445.9,851.5z"/>
					<path class="st1" d="M1413.5,859.6c3.3-1.4,7.2-1.5,10.7-2.1c4-0.7,7.8-2.3,11.8-2.9c1.8-0.2,3,2.1,1.8,3.4
						c-5.1,5.5-16.5,9.1-23.8,7.4C1411.1,864.7,1410.7,860.8,1413.5,859.6z"/>
					<path class="st1" d="M1290.2,850.6c21.8,5.2,44.5,12,67.2,10.9c15.1-0.7,31.1-1.6,46.2-0.7c2.4,0.1,2.4,3.7,0.4,4.4
						c-16.9,6-34.4,4.6-52,5.5c-19.8,1-46.6-4.3-63.5-14.6C1285.8,854.6,1286.7,849.8,1290.2,850.6z"/>
					<path class="st1" d="M1577.3,677.1c0.7-3.9,6.4-2.8,6,1.1c-0.5,5.3-1.5,10.8-4.3,15.3c-1.6,2.5-5.7,1.6-5.2-1.7
						C1574.5,686.8,1576.4,682,1577.3,677.1z"/>
					<path class="st1" d="M1549.2,749.7c3.2-8.9,8.2-16.9,11.6-25.7c2.7-6.9,5.1-13.8,7.9-20.6c0.8-2,4-1.4,4.2,0.7
						c1.1,17.6-9.6,34.6-19.2,48.5C1551.8,755.3,1548.3,752.4,1549.2,749.7z"/>
					<path class="st1" d="M1534.4,772.6c1.6-3.5,3-7.2,5.1-10.5c1.7-2.8,2.4-5.7,6.3-5.3c3,0.3,3,3.9,1.2,5.5
						c-0.5,0.5-0.8,2.2-1.1,2.9c-0.6,1.4-1.4,2.8-2,4.1c-1.3,2.7-3.1,4.9-5.3,6.9C1536.4,778.1,1533.3,775,1534.4,772.6z"/>
					<path class="st1" d="M1386,845.3c26.1-6.1,52.2-9.8,78-17.4c27.5-8.1,44.7-29.7,66.5-46.3c2.2-1.7,4.6,1.4,3.1,3.4
						c-15.3,21.9-37.4,37.8-61.6,48.9c-24.1,11-59.1,19.9-85.5,17.9C1383.4,851.5,1382.8,846,1386,845.3z"/>
					<path class="st1" d="M1344.1,848.9c5.5-1.5,10.8-1.5,16.5-1.9c4.4-0.3,10.1-1.8,14,0.9c1,0.7,1,2.3,0.3,3.2
						c-2.8,3.2-7.6,3.5-11.6,4c-6.2,0.9-12.6,0.9-18.7-0.8C1342.2,853.7,1341.2,849.8,1344.1,848.9z"/>
					<path class="st1" d="M1509.1,783.8c18.2-23,33.8-47.8,44-75.4c8.6-23.2,11.7-46.2,17.5-70c0.5-2.1,4.1-2.3,4,0.2
						c-1,53-21.6,112.9-62.5,148.7C1510.1,789,1507.5,785.8,1509.1,783.8z"/>
					<path class="st1" d="M1488.4,798.5c2.1-1.3,3.8-3.2,5.8-4.7c2.5-1.7,5-3.3,7.4-5.2c2.6-2.1,6,1.8,3.9,4.2
						c-2.5,2.8-5.5,5.1-8.1,7.8c-2.6,2.6-5.1,3.3-8.6,2.2C1487,802.3,1486.8,799.5,1488.4,798.5z"/>
					<path class="st1" d="M1367.2,832.7c16.3-5.7,34.4-6.8,51.4-9.6c20.3-3.3,40.4-10.2,59.4-18c2.9-1.2,4.7,2.8,2.4,4.7
						c-13.4,10.8-32.3,15.8-48.9,19.2c-20.8,4.3-42.6,9.5-63.9,8.4C1365.1,837.3,1365.1,833.5,1367.2,832.7z"/>
					<path class="st1" d="M1559.8,615.9c0.3-2.9,1.5-7.3,1-10.2c-0.2-1.6,1.7-2.2,2.8-1.4c2.7,1.9,2.4,5.5,2.6,8.5
						c0.2,5.4,0.3,11.3-1.8,16.3c-1.1,2.7-4.9,1.6-5.3-0.9C1558.5,624.1,1559.3,619.9,1559.8,615.9z"/>
					<path class="st1" d="M1557.1,636.4c0.6-2.6,4-2.3,4.5,0.2c2.1,10.3,1.1,22.3-2.7,32.1c-1.1,2.8-5.8,2-5.8-1
						C1553,657.4,1554.8,646.4,1557.1,636.4z"/>
					<path class="st1" d="M1535.6,711.2c5.4-11.3,7.8-25.7,15.6-35.6c1.5-1.9,4.1-0.2,3.9,1.8c-2.3,23.3-15.1,53-32,69.5
						c-1.7,1.7-5.4,0.6-4.7-2.2C1521.5,733,1530.3,722.2,1535.6,711.2z"/>
					<path class="st1" d="M1503.3,765c1.4-3.1,3.2-5.7,5.6-8.2c2-2.1,3.8-4.6,6.2-6.2c2.2-1.5,5.4,0.9,4.1,3.4
						c-0.1,0.2-0.2,0.3-0.3,0.5c-0.1,0.1-0.2,0.2-0.3,0.3c-3.1,4.7-6.8,9.2-10.7,13.2C1505.7,770.2,1502,768,1503.3,765z"/>
					<path class="st1" d="M1418.7,810.1c13.4-5.2,27.9-8.2,40.9-14.5c13.4-6.5,26.4-14.8,38.5-23.5c1.7-1.3,4.4,0.8,3.3,2.8
						c-6.7,12-22.1,19.2-33.3,26.2c-13.1,8.1-33.2,16.6-48.9,14.6C1416.3,815.2,1416.2,811,1418.7,810.1z"/>
				</g>
			</g>
			<g>
				<path class="st1" d="M423.2,381.4c14.7-42.4,49.9-76.9,91.8-92.4c43.3-16,98.1-8.7,139.6,9c10,4.3,19.3,10.2,28.1,16.6
					c3.6,2.6,7.1,5.8,10,9c4.2,4.6,2.4,5.6,4.4-2.6c6.4-25.6,21.3-48.7,35-71.1c56.1-92,142.1-167.1,246-199.6
					c110.1-34.4,218.9-39,328.8-1.6c83.6,28.4,160.8,80,212.1,152.6c25.3,35.8,45.1,78.1,55.3,120.7c10.5,43.6,2.1,84.4-3.3,127.6
					c-0.8,6.5-10.5,4.6-9.9-1.7c2.3-25.2,7.4-49.5,7.1-75.1c-0.4-32.4-7.4-62.2-19.6-92.2c-22-53.7-54.7-99.6-98.3-137.8
					C1361,64.6,1237.6,26.6,1119.8,33.1C999.4,39.8,881.6,90,798.7,178.3c-20,21.4-36.9,45.5-52.7,70c-16.2,25.2-32.3,51.7-39.7,81
					c-2.4,9.8-10.2,10.9-17.4,6c-9.8-6.7-17.1-15.6-27.7-21.8c-14.2-8.3-30-12.7-45.9-16.4c-59-13.6-115.8-1.4-156.9,44.6
					c-18.8,21-26.9,45.9-31.6,73.1c-5.7,33.2,7.3,57.4,26.3,83.4c3.9,5.3-4.4,11-8.3,5.8c-12.6-16.5-24.5-32.7-28.8-53.3
					C411.5,428.8,416,402.2,423.2,381.4z"/>
				<path class="st1" d="M64.7,519.6c25.6-19.3,54.3-32,85.4-39c17.4-3.9,34.9-8.3,52.5-11c20.2-3.1,40.8-2.1,61.2-4.2
					c35.8-3.7,72-3.9,107.9-1.7c16.2,1,32.5,2.9,48.7,3.9c6.4,0.4,13.5,2.3,16.6,8.2c2.3,4.4-4.5,7.2-7.2,3.8
					c-3-3.7-22.8-2.9-26.5-3.2c-15.2-1-30.4-2.3-45.7-2.6c-28.9-0.5-57.4-1.6-86.2,1.4c-60.8,6.4-123.1,7-177.9,38.1
					c-25.2,14.3-53.2,32.7-53.1,64.7c0.2,33.5,57.8,46,82.1,50.1c61.1,10.5,125.7,1.7,187.5,4.4c3.8,0.2,3.2,6-0.2,6.4
					c-39.1,4.8-78.5,3.8-117.9,3.8c-36,0-71.1-1.5-105.5-12.6c-20.9-6.8-52.8-21.1-56-46.6C26.9,554.8,43,536,64.7,519.6z"/>
				<path class="st1" d="M1562.9,446c4.3-4.7,9.6-4.5,15.8-4.3c13.5,0.5,27,1.2,40.5,2.5c31.1,3.1,62.2,6,92.8,13.1
					c55.2,12.8,127.5,32.2,155.7,86.4c27.2,52.4-13.1,97-59.8,116.3c-26.5,11-56,14.9-84.1,19.7c-35,6-73.7,9.5-109.1,5.9
					c-4.5-0.5-4-7.3,0.3-7.8c26.3-2.8,53.1-1.8,79.5-4.3c27.3-2.5,55-7.5,81.7-13.9c55-13.1,112-54.4,79.3-116.7
					c-12.2-23.2-38.2-35.7-60.4-47.5c-25.9-13.8-56.6-20.3-84.9-27.6c-23.9-6.2-49.1-8.9-73.6-11.2c-12.9-1.2-25.8-2.9-38.8-3.9
					c-1.9-0.1-26.4-3-28.4-1.1C1565.6,455.2,1559.1,450.1,1562.9,446z"/>
				<path class="st1" d="M796.2,777.2c10.5,35.7,24,70.8,47.7,100c28.1,34.6,74.1,55.7,116.8,64.5c42,8.7,87.3,6.5,127.2-9.7
					c20.6-8.4,36.3-22.9,49.6-40.3c12.1-15.8,26.8-40.4,30.5-60.3c0.8-4,5.5-5.7,8.6-3.1c17.1,14,32.2,27.5,51.1,39.2
					c22.8,14,46.6,23.5,72.5,29.9c50.1,12.5,105.7,8.8,155.2-4.9c45.1-12.5,83.6-40,111.4-77.4c29.8-40,39.5-87.2,43.7-135.8
					c0.5-5.4,9.7-5.1,9.6,0.4c-0.8,46.7-12.3,91.3-37.2,130.8c-26.3,41.8-66.2,71.8-112.4,88.4c-52.7,18.9-111,19.6-165.5,10.4
					c-26.7-4.5-53.1-15.1-76.3-28.8c-19.6-11.5-35.4-24.7-52.5-38.8c-5,16-14.9,31.9-23.2,45.7c-10.9,18.2-25.8,34-43.6,45.5
					c-39.7,25.5-91.7,27.1-136.9,21.5c-47.4-5.8-94.2-27.8-128.5-61.2c-30.9-30.2-47.6-72.6-54.7-114.4
					C788.6,774.8,795,773.3,796.2,777.2z"/>
				<path class="st1" d="M311.8,636.8c0.1,19.8,7.7,45.5,15.8,63.5c11.1,24.7,26.3,51.7,47.5,68.9c8.4,6.9,15.5,15.5,24.1,22.4
					c11.4,9.2,23.7,17.4,36.3,24.8c23.7,14.1,51.2,20.7,78.2,24.6c60.1,8.7,122.1,3.3,180.3-13.8c28.5-8.4,56.9-17.8,78.6-38.9
					c18.1-17.6,37.9-45,40.9-70.5c0.2-1.9,3.3-1.8,3.3,0.1c-0.5,53-45.2,93.2-91,110.5c-63.3,23.8-134.4,34.7-201.6,25.3
					c-61-8.6-113.4-30.1-156.5-75.8c-19.9-21.1-35.6-42.2-48.4-68.7c-10-20.7-18.5-48.3-18.3-71.5
					C301,630.9,311.7,629.8,311.8,636.8z"/>
				<path class="st1" d="M615.6,523.2c23.6-11.1,54.2-9.5,75.7,5.6c19.6,13.7,40.8,41.6,39.3,66.5c-0.3,5.1-8.1,4.4-8.7-0.3
					c-4.8-38.9-42.7-70.7-81.3-67.2c-22.4,2-41.1,15.3-51.3,34.9c-12.9,24.7,7,50.4,29.2,58.6c3.9,1.5,1.8,7.7-2.2,6.9
					c-24.4-4.7-35.7-19.3-41.2-43.2C568.9,558,593.9,533.4,615.6,523.2z"/>
				<path class="st1" d="M926,440.8c5.4-33.1,22.4-64.1,44.4-88.9c50.4-56.6,116.6-80.3,191.7-74.4c62.6,4.9,121.9,35.9,164.7,81.2
					c36.1,38.2,75.1,106.7,53.5,160.9c7.3-1.5,14.1-3.2,22.3-3c10.2,0.3,19.4,2.2,28.7,6.4c16,7.3,26.8,22.4,30.6,39.2
					c9.1,40.1-30.5,77.5-68.2,77.1c-4.3,0-5-6.1-0.6-6.7c35.1-4.9,60.5-33.7,57.8-69.3c-1.3-17.6-20.7-30.9-36.3-34.5
					c-15.4-3.5-28.1,1.6-42.9,3.2c-3.9,0.4-7.3-4-5.3-7.6c15-27.1,7-64.3-4.1-91.2c-10.7-26-27.2-49.4-46.4-69.8
					c-38.1-40.3-90.1-65.6-144.7-73.7c-72.1-10.7-138.4,12.5-188.4,64.8c-23.1,24.2-35.9,51.3-45.1,83.1c-10.1,34.6,3.2,73.5,12,107
					c1.1,4.1-4.9,6.5-6.3,2.3C931.6,511.3,919.8,478.5,926,440.8z"/>
			</g>
		</g>
	</g>
</g>
</svg>
