<?xml version="1.0" encoding="utf-8"?>
<!-- Generator: Adobe Illustrator 27.7.0, SVG Export Plug-In . SVG Version: 6.00 Build 0)  -->
<svg version="1.1" id="Layer_1" xmlns="http://www.w3.org/2000/svg" xmlns:xlink="http://www.w3.org/1999/xlink" x="0px" y="0px"
	 viewBox="0 0 1024 1024" style="enable-background:new 0 0 1024 1024;" xml:space="preserve">
<style type="text/css">
	.st0{fill:#8E1C38;}
	.st1{fill:#F8EDE4;}
	.st2{fill:#B41D44;}
	.st3{fill:#B51D44;}
	.st4{fill:#F5B1AA;}
	.st5{fill:#5D2030;}
	.st6{fill:#8E1B38;}
	.st7{fill:#8F1C38;}
	.st8{fill:#F8EDE3;}
	.st9{fill:#3E0F19;}
	.st10{fill:#7C112D;}
	.st11{fill:#FAEEE3;}
	.st12{fill:#5F2232;}
	.st13{fill:#5E2030;}
	.st14{fill:#B22447;}
	.st15{fill:#7B3043;}
	.st16{fill:#C63256;}
	.st17{fill:#7B142E;}
	.st18{fill:#420D1A;}
	.st19{fill:#E98F88;}
	.st20{fill:#A4324C;}
	.st21{fill:#330812;}
	.st22{fill:#DA796F;}
	.st23{fill:#7A2F43;}
	.st24{fill:#5F2735;}
	.st25{fill:#FBD1CC;}
	.st26{fill:#FBC3CA;}
	.st27{fill:#FBD2CC;}
	.st28{fill:#D9655A;}
	.st29{fill:#F5B0AA;}
</style>
<path class="st0" d="M843.9,608.1c-1.1,6.8-1.9,13.6-3.3,20.4c-2.7,13.4-5.2,26.8-8.9,40c-3.9,13.9-9,27.5-13.5,41.2
	c-6.7,20.1-15.3,39.3-26.5,57.2c-7.8,12.3-17.4,23.5-26.1,35.2c-2.7,3.6-5.6,7-7.6,11c-17,33.9-35.4,66.8-61.8,94.6
	c-11.1,11.6-23.1,22.1-37.2,30.1c-10.7,6.1-21.8,8-34.1,5c-7.3-1.8-15.1-1.1-22.7-1.6c-2.8-0.2-5.5-0.7-8.3-1.1
	c-0.5-0.6-0.8-1.4-1.4-1.8c-9.7-6.3-17.8-14.2-24.6-23.6c-4.5-6.3-9.4-12.4-10.1-20.6c0,0,0.1,0,0.1,0c0.7-0.7,1.3-1.3,2-2
	c1.8-1.8,3.6-3.6,6.2-6.2c-2.8-0.3-4-0.5-5.2-0.6c-4.2-0.1-8.4-0.2-12.6-0.3c-1.2-1.5-2.4-2.9-3.6-4.4c1.6-0.7,3.4-1.2,4.9-2.3
	c0.9-0.7,1.4-2.1,2-3.2c-1.2-0.6-2.4-1.2-3.6-1.8c-3.9-0.3-7.9-0.5-11.8-0.8c-1.4-0.5-2.8-1.1-4.2-1.6c0.1-1.2,0-2.3,0.2-3.5
	c1.1-6.7-1.4-11.7-7.4-15.1c-1.5-2.2-2.9-4.4-4.4-6.6c-0.8-1.2-1.5-2.5-2.4-3.6c-3.6-4.8-7.3-9.5-11-14.2c-0.5-1.2-0.8-2.5-1.4-3.6
	c-3.2-5.1-6.6-10.2-9.8-15.3c0-1.7-0.1-3.3,0-5c0.2-4.1,0-8.3,0.8-12.2c0.8-4.2,3.6-5.2,7-3.2c7.3,4.3,11.5,10.5,12.6,19
	c2.4,20.2,11.1,37.1,27.2,49.7c3.5,2.7,8.7,3.3,13,4.9c0.3,0.3,0.5,0.5,0.8,0.8c0.3,0.4,0.7,0.9,1,1.3c1.7-1.9,3.5-3.7,5.7-6.2
	c0.2,0.4,0.7,1.6,1.2,2.9c0.6-0.1,1.3-0.3,1.9-0.4c1.1-4.5,2.4-9,3.1-13.6c0.7-4.8,0.7-9.8,1-14.7c-1.9-8.1-3.2-16.4-5.8-24.3
	c-2-6.2-5.4-11.9-8.2-17.8c6.3-0.8,12.7-1.7,19-2.5c10.2-1.2,20.3-1.1,29.8,3.5c1.4,1,2.8,2,4.2,3c0.5,1,0.9,2.2,1.7,3
	c12,11.8,21.1,25.4,27.1,41.1c1.3,3.4,1.9,7,3.2,10.3c0.4,1,1.8,1.9,2.9,2.1c0.5,0.1,2-1.5,2-2.3c0.1-5.4,0.9-11.1-0.5-16.1
	c-3.8-13.5-11.7-24.3-23.3-32.3c-2-1.4-3.3-3.9-5-5.9c2.4-0.7,4.7-1.5,7.1-2.2c6.4-1.6,11-4.9,12.8-11.8c1.8-6.7,4.3-13.3,6.5-19.9
	c5.2-15.6,11.5-30.5,21.2-44.1c4.3-5.9,6.4-13.3,9.5-20.1c0.9-0.9,2.2-1.7,2.5-2.7c2.9-8.6,5.8-17.1,8.2-25.8
	c1.9-7,2.4-14.4,4.6-21.2c3-9.4,9.7-16.8,16.4-23.8c2.9-3.1,5.4-6.5,8.2-9.8c0.7,0.5,1.4,0.9,2,1.4c11.1,9.2,23.6,11,37.2,6.8
	c0.7-0.2,1-1.8,1.5-2.8c1-1.2,2.1-2.4,3.1-3.6c-3.3,0-6.5,0.6-9.4-0.1c-3.7-0.9-7-2.9-10.5-4.4c-2.6-3.1-5.3-6.1-7.9-9.2
	c-0.4-1.9-1-3.7-1.1-5.6c-0.2-4-0.1-8.1-0.2-12.1c-0.7-5.1,3.1-7.8,5.8-11.1c3.4-0.6,6.8-1.3,10.2-1.9c8.8,0.1,8.3-1,7.9,8
	c-0.4,9.3,3.1,16.7,9.6,23c5.9,5.7,9.8,12.3,8.4,20.7c-0.6,3.9-2.6,7.6-3.9,11.4c-3.7,0.9-7.4,1.8-11.3,2.8c1.9,0.1,3.6,0.2,5.4,0.3
	c-1,1.2-2,2.5-3,3.7c-0.8,0.2-1.5,0.4-2.3,0.6c-0.1,0.4-0.2,0.9-0.3,1.3c6.5,2.1,13,4.2,19.5,6.3c6.9,4.3,12.7,0.6,18.7-2.4
	c3-2.6,6-5.3,9.1-7.9c7-7.7,9.2-16.6,6.4-26.7c-1.6-6.6-5.7-11.3-10.9-15.3c-3.7-2.9-6.6-6.5-6-11.7c2.4-2.8,4.2-6.8,7.3-8.3
	c8.5-4.4,17.3-8,26.2-11.4c3.2-1.2,7.4-1.1,8.4,3.7c1.2,6.3,2.4,12.7,2.8,19.1c0.3,5.4-2.8,8.5-7.6,9.2c-1.4-0.8-2.8-1.6-4.3-2.3
	c-0.5-0.2-1-0.4-1.5-0.6c0.3,0.4,0.7,0.8,1,1.2c3.1,5.4,8.3,4.6,13.2,4.4c-3.3,2-6.7,3.9-10,5.8C832.7,609,838.5,607.8,843.9,608.1z
	 M762.3,613.5c0-0.2,0-0.4,0-0.4c-0.3-0.1-0.5-0.1-0.8-0.2c0,0.2-0.1,0.4,0,0.4C761.7,613.4,762,613.4,762.3,613.5z"/>
<path class="st1" d="M793.2,584c-0.6,5.2,2.2,8.8,6,11.7c5.2,4,9.3,8.7,10.9,15.3c-0.3,1.5-0.5,2.9-0.8,4.4
	c-1.7,17.5-13.7,30.3-29.9,31.9c-1.2,0.3-2.3,0.5-3.5,0.8c-6.5-2.1-13-4.2-19.5-6.3c0.1-0.4,0.2-0.9,0.3-1.3
	c0.8-0.2,1.5-0.4,2.3-0.6c2.1-0.3,4.2-0.3,6.2-0.8c8.4-2,16.9-11.2,17.6-18.9c0.8-1.6,1.5-3.2,2.6-5.6c-1.8,0.8-2.5,1.1-3.2,1.5
	c0.9-4.3,2.1-8.5-1.8-12.1c-6.1-5.7-11.2-12.2-12.6-20.8c0.4-1.6,0.7-3.3,1.1-4.9c4.6-5.6,9.2-11.2,13.6-16.8
	c1.3-1.6,2.2-3.5,3.2-5.3c2.7-1.2,4.6-2.6,0.9-5c1.1-2,2.1-4,3.2-6c8-10.5,9.7-36.6-2.9-47c-9-7.4-15.9-16.5-20.1-27.6
	c-1.3-3.4-2.5-6.9-3.8-10.4c-0.9,1-1.1,1.8-1,2.5c1.3,8.9,2.5,17.8,3.9,26.7c0.9,6,1.5,12.1,3,17.9c2.4,9.3,5.4,18.5,8.2,27.8
	c-0.1,1.3-0.2,2.6-0.2,3.9c0.2,12-7.3,18.9-16,25.2c-0.5,0-1,0-1.5,0c-1.7-0.1-4.1,0.4-5.1-0.5c-0.9-0.9-0.4-3.3-0.2-5
	c0.1-1.1,0.8-2.2,1.5-3.1c6.6-9.5,9.1-20,8.4-31.5c-0.6-10.3-5.3-19-10-27.7c-0.3,1.3-0.3,2.6-0.1,3.7c4.9,20.8,1.3,40.1-9.9,58.1
	c-2.9,4.6-5.6,9.3-8.4,14c-2.8,3.3-6.5,6-5.8,11.1c-0.6,0.2-1.7,0.4-1.8,0.7c-1.2,5.5-2.1,11,0.8,16.3c0.4,0.7,0.7,1.3,1.1,2
	c0,0,0,0,0,0c0.6,1.6,1,3.4,2,4.7c2.2,2.6,4.7,4.8,7.1,7.2c5.6,1.4,11.2,2.8,16.8,4.2c-0.5,0.9-0.8,2.5-1.5,2.8
	c-13.6,4.2-26.1,2.4-37.2-6.8c-0.6-0.5-1.4-0.9-2-1.4c-1.7-1.9-3.4-3.8-5.2-5.7c-2.6-5.7-5.2-11.3-7.8-17c0.2-1.4,0.5-2.8,0.7-4.2
	c1-5.9,2.1-11.9,3.1-17.8c0.6-1.6,1.3-3.3,1.9-4.9c3.3-4.2,6.8-8.2,9.8-12.6c2.4-3.4,4.3-7.3,6.4-10.9c6.1-11.3,7.4-23.2,4.3-35.5
	c-4-15.6-14-27.5-24.3-39.2c-1.1-1.4-2.2-2.9-3.4-4.1c-4.5-4.3-9.1-8.6-13.6-12.9c-0.2-0.3-0.5-0.5-0.7-0.8
	c-0.8-0.7-1.5-1.4-2.3-2.2c-1.7-2.4-3.3-4.8-5.6-8.2c-1.9,6.4-1.7,7,1.8,9.2l-0.1-0.1c0.3,0.7,0.6,1.4,0.9,2.2c0.3,1,0.5,2,0.8,3
	c0,1,0,2,0.1,2.9c0.1,0.6,0.1,1.3,0.2,1.9c-0.4,5.6-4.6,10.7-1.9,16.7c-0.1,0.5-0.2,1-0.4,1.5c-0.2,0.4-0.4,0.8-0.7,1.2
	c0.1,0.3,0,0.6-0.3,0.7c-4.8-0.4-3.8,2.9-3.6,5.7l0,0.3c0,0-0.3,0.1-0.3,0.1c-0.3,0.3-0.6,0.7-0.9,1c-0.3,0.3-0.6,0.7-1,1
	c-2.5,0.6-5.6,0.7-5.2,4.6l-0.3,0.2c-0.5,0.4-1.1,0.7-1.6,1.1l-0.4,0.2c-0.5,0.3-1.1,0.7-1.6,1l0.1-0.1c-0.4,0.3-0.8,0.5-1.2,0.8
	c-0.1,0.3-0.3,0.3-0.5,0.2c-2.7-0.2-5.3-0.5-8.9-0.8c1.2,1.8,1.9,2.9,2.6,4.1c-0.7,0.3-1.4,0.5-2,0.8c-1.9,0.7-3.9,1.3-5.8,2
	c-1.3-0.1-3,0.3-3.9-0.3c-4.2-3-5.8-0.2-7.4,3c-0.6,0.2-1.3,0.3-1.9,0.5c-1.1-0.4-3.2-1.3-3.2-1.3c-1.4,3-2.6,6-3.9,9.1
	c-0.4,1.6-0.8,3.3-1.3,4.9c-0.2,0.6-0.3,1.1-0.5,1.7c0.1,0.8,0.1,1.6,0.2,2.3c-0.6,0.6-1.2,1.3-1.8,1.9c-1.5,0-3.5-0.6-4.3,0.2
	c-1.7,1.6-3.1,3.8-4.1,5.9c-0.2,0.4,2.2,1.9,3.4,2.9c0.1,0.7,0.1,1.3,0.2,2c-2.4,2-3.4,6.8-8.1,4.1l0.1,0.1c-1.3-5-2.6-10-3.8-15.1
	c-0.6-2.4-1.4-4.9-1.3-7.4c0-2.8-0.4-4.6-3.5-4.7c0.3-4,0.6-8,1-12c0.9-0.7,2.6-1.3,2.6-2c0.1-2.3-0.3-4.7-0.5-7
	c0.2-0.4,0.3-0.8,0.5-1.1c4.2-1.9,6-5.2,5.3-9.8l0-0.1c0.3-0.4,0.6-0.8,0.9-1.2c0.2-0.3,0.5-0.6,0.7-1c1.4-1.6,2.9-3.2,4.3-4.8
	c0.3-0.4,0.7-0.7,1-1.1c4.6,0.7,5.3-3.2,7-5.9c0.4-0.6,0.8-1.2,1.2-1.9c0.3-0.1,0.6-0.2,0.9-0.3c1.6,0.6,3.3,1.1,6.5,2.3
	c-1.2-2.9-1.9-4.6-2.7-6.3c0-0.3,0-0.7,0-1c0.4-1,0.8-2,1.1-2.9c0.3-0.7,0.6-1.4,0.9-2c0.4-1.3,0.8-2.6,1.1-4c0.8-0.5,1.5-1,2.3-1.5
	c0,0,0.1,0,0.1,0c0.5-0.2,1-0.4,1.4-0.6c1.4-1.1,3.5-1.9,3.9-3.3c1-3.6,2.6-7.8,1.6-11c-0.9-2.8,3.2-7.4-2.5-8.7l0,0
	c-0.2-0.3-0.5-0.6-0.7-1c-0.1-0.7-0.2-1.4-0.2-2.1c-0.3-0.7-0.6-1.3-0.8-2c-0.7-2-1.4-4-2.2-6c-0.3-0.7-0.6-1.3-0.9-2
	c-0.4,0-0.7,0-1.1,0l0,0c0-0.7,0-1.3,0-2c-1-2-2-4-3-6l0,0c0-0.7,0-1.3,0-2c1.4-0.4,2.9-0.8,4.3-1.2c0.3-0.1,0.6,0.1,0.7,0.4
	c0.3,0.7,0.7,1.5,1,2.2c0.3-0.5,0.6-0.9,1-1.4c2.1-0.1,4.2-0.2,6.4-0.3c1.2-0.7,2.3-1.5,3.5-2.2c0.6-0.6,1.1-1.2,1.7-1.8
	c1.3-0.8,2.6-1.6,3.8-2.6c2.6-2.1,5.2-4.2,7.7-6.3c0.4,3,0.9,6.1,1.3,9.1c0,0.3,0.1,0.6,0.4,0.7c-0.2,1.1-0.4,2.1-0.6,3.2
	c-3,2.5-3.1,6.7-0.4,10c0.1,1.9,0.2,3.8,0.4,5.6c0.2,0.8,0.4,1.5,0.6,2.3c0.2,1,0.3,2,0.5,3c-3,4.6,1,8,2.2,11.8
	c0.1,0.3,1.9-0.2,2.9,0c1.3,0.3,2.5,0.9,3.7,1.5c0.8,0.5,1.5,1.3,2.2,2c0.5-0.2,1-0.3,1.6-0.5c-0.3-5.3-0.7-10.5-1-15.8
	c0.1-0.6,0.3-1.3,0.4-1.9c5.4-1.6,2.2-4.9,1.5-7.7c0.5-2.4,1-4.9,1.4-7.3c0,0-0.1,0.1-0.1,0.1c0.3-0.4,0.6-0.7,0.9-1.1
	c4.8-3,9.5-6,14.3-9c-0.9,23.5,9,41.8,27.2,57.6c-2.7-7.6-5.3-14-7.3-20.7c-2-6.7-3.1-13.7-1.6-20.9c4.3,7.3,8.4,14.2,12.5,21
	c0.5-0.2,0.9-0.4,1.4-0.6c-0.7-2.2-1.9-4.5-2.1-6.7c-0.2-3.7-2.5-8.7,1.8-10.9c3.8-1.9,6.1,2.5,8.8,4.8c4,3.4,8,7.1,12.6,9.5
	c5.7,3,17,0.6,17.5-8.6c0.2-4.4-0.5-8.9-0.7-13.4c15.9,0.3,31.9,0.1,47.8,1.1c13.6,0.9,26.6,5.5,34.7,17c10.4,14.7,9.9,31.1,2,46.8
	c-5.5,10.9-9.3,21.9-8.9,34.2c0.2,5.2,2.1,9.5,6.1,12.5c6.3,4.8,12.8,9.5,19.5,13.7c8.7,5.5,13.3,13.6,15.4,23.2
	c0.8,3.6,0.1,7.5,0.1,11.2c-0.3-1.7-0.7-3.4-1-5.2c-1-6.6-2.2-13.2-7.2-18.3c4.6,11.3,5.1,22.9,2.5,35.1c1.6-1.1,2.7-1.9,3.7-2.7
	c-2.1,4.3-3.8,8.9-6.6,12.7c-4.6,6.2-9.6,12.3-15.4,17.4c-3.8,3.3-9.4,4.7-14.2,7c-5.4-0.2-11.2,0.9-15.1-3.2
	c3.3-1.9,6.6-3.9,10-5.8c0-1,0-2,0.1-3c1.4-1.3,2.8-2.6,4.2-4c19.5-6.8,21.8-29.6,11.7-43.1c-4.9-6.6-11.1-12.3-17-18.2
	c-5.4-5.4-7.6-11.9-7.6-19.5c0-11.8-0.2-23.6-4.1-35c-4.2-12.2-11.2-22.1-23-28c-1.3-0.4-2.6-0.7-4.5-1.3c0.5,1.8,0.8,2.9,1.2,3.9
	c2.5,7.8,3,15.9,1.2,23.8c-2,8.9-1.5,17.4,3.7,24.7c4.6,6.6,10.4,12.4,15.7,18.5c2.2,1.9,4.2,4,6.5,5.8c8.7,6.6,15.7,14.1,14.3,26.2
	c-1.7,6.2-5.8,10.3-11.7,11.9c-6,1.6-12.2,2.9-18.3,3C801.1,565.1,793.2,571.1,793.2,584z M650.3,480.1c-1.4,1.2-2.7,2.4-4.1,3.6
	c0.8,0.7,1.9,2.1,2.3,2c2.9-1.4,7.6-1.3,6.5-6.6c0.3-0.4,0.6-0.7,1-1.1c0.3-0.4,0.6-0.8,0.9-1.1c0.2-0.3,0.5-0.6,0.7-1
	c0.7-1.2,1.4-2.4,2.2-3.6c0.4-1.2,0.9-2.4,1.3-3.7c1.4,0.3,2.8,0.6,4.7,1c0-1.7,0.3-3-0.1-4.1c-1.2-4.1-2.6-8.1-4-12.2
	c-0.1-0.3-1.2-0.2-1.8-0.3c-0.4,0.3-0.8,0.6-1.1,0.9c-0.3,1-0.5,2-0.8,3c0,1.7-0.1,3.3-0.1,5c-0.1,0.1-0.3,0.2-0.3,0.3
	c0,0.2,0.1,0.5,0.2,0.7c-0.3,0.7-0.6,1.4-0.9,2c-1.4-0.2-2.8-0.3-4.2-0.5c-0.2,0.5-0.5,1-0.7,1.5c1.4,0.7,2.8,1.3,4.2,2
	c-0.4,1.3-0.7,2.7-1.1,4c-1.1,0.3-2.3,0.6-3.4,1c0.7,0.7,1.4,1.5,2.1,2.2c-0.2,0.3-0.4,0.5-0.6,0.8c-0.3,0.5-0.6,1-0.9,1.5
	c0.1,0.3,0,0.4-0.3,0.5c-0.3,0.4-0.5,0.7-0.8,1.1C650.8,479.5,650.6,479.8,650.3,480.1z M817.3,525.4c0,5.9,1.1,11.8-0.3,17
	c-1.4,5.3-5.2,9.9-7.8,14.5c8.9,0.2,17.9-5.9,18.8-13C829.1,535.5,823,526.2,817.3,525.4z M832.5,412.9c11,9.9,18.5,21.5,18.8,36.8
	C854.5,432,845.7,417.1,832.5,412.9z M639.6,456.7c-0.5,0-0.9,0.1-1.4,0.1c0.1,1.2,0.1,2.4,0.2,3.6c0.4,0,0.9-0.1,1.3-0.1
	C639.7,459,639.7,457.9,639.6,456.7z M669.8,481.3c-0.6-0.5-0.9-0.9-1.2-1c-0.2-0.1-0.8,0.2-0.8,0.3c0,0.4,0.2,1,0.4,1.1
	C668.5,481.8,669,481.5,669.8,481.3z M672.8,441.8c0.5-0.6,0.8-0.9,0.9-1.3c0.1-0.2-0.3-0.6-0.4-0.8c-0.4,0.2-0.9,0.3-1,0.6
	C672.2,440.6,672.6,441.1,672.8,441.8z M641.1,483.2c-0.4,0.6-0.8,1-0.9,1.3c-0.1,0.2,0.3,0.6,0.4,0.8c0.4-0.2,0.9-0.4,1-0.7
	C641.8,484.4,641.4,483.9,641.1,483.2z"/>
<path class="st2" d="M613,118.2c5.1-1.1,10.2-2.6,15.4-3.1c15.1-1.3,30.3-3.2,45.4-2.9c19.7,0.4,37.9,7.3,54.4,18.1
	c-1.3,0.4-2.7,1.4-3.8,1.2c-8.5-1.8-16.9-4-25.4-5.7c-18.9-3.8-37.8-3.6-55.6,4.5c-11,5-14.3,9.8-5,18.6
	c7.7,7.3,17.4,11.7,27.4,12.5c15.6,1.3,31.4,0.1,47.1-0.4c8.3-0.2,16.6-0.6,24.5,3.1c5,2.4,7.3,6.4,7.6,11.9c0.5,8.2-3,14.7-7.6,21
	c-3.1,4.2-6.9,5.8-12.2,4.2c-2.5-0.8-5.2-0.8-7.8-1.4c-8.8-2-18.1-1.5-26.5-5.6c-2.5-1.2-3.6-2.6-2.9-4.8c1-3.1,2.8-6,4.3-9.2
	c-1-0.1-2.2-0.6-2.8-0.2c-7.2,4.3-14.7,8.3-21.3,13.4c-4.9,3.8-3.6,7.5,2,10.7c7.3,4.3,15.4,5.1,23.4,5.5c12,0.6,24-0.2,36,0.3
	c4.8,0.2,9.8,1.6,14.3,3.4c8,3.3,15.9,7.1,23.6,11.1c11.8,6.2,25.1,6.9,37.7,10.1c1.3,0.3,2.9-0.5,4.3-0.8
	c2.1,7.2-0.7,13.3-4.3,19.2c-0.6,0-1.4-0.2-1.7,0.1c-8.2,9-18,14.9-30,17.4c-1.9,0.4-3.5,2.4-5.2,3.6c1.8,0.8,3.6,1.7,5.5,2.5
	c0.8,0.3,1.6,0.3,2.4,0.5c3.9,1.3,5,3.7,3.1,7.3c-2.5,4.9-7.1,6.3-12.1,6.4c-7.2,0.1-14.3,0.3-21.5,0c-11.2-0.5-21.6,2.4-32.1,5.8
	c-14.5,4.6-29.2,3.5-42.6-3.1c-18.7-9.2-33.5-23.5-46.9-39.4c-5.9-7.1-12.5-13.6-18.8-20.4c-5.8-6.3-11.6-12.7-17.4-19
	c-0.7-0.8-1.9-1.2-2.8-1.8l0,0c-1.7-2.7-3.3-5.3-5-8c0,0,0,0,0,0c-0.4-2.1-0.7-4.2-1.4-6.3c-1.3-4.2-2.7-8.4-4.2-12.6
	c-1-2.8,0-4,2.5-5.9c6-4.5,11.4-9.9,16.9-15c5.1-4.8,10-9.8,15.2-14.6c2.2-2,4.9-3.4,7.2-5.4c6.9-6,7.1-9.9,1.7-17.5
	C615.8,124.9,614.6,121.4,613,118.2z"/>
<path class="st3" d="M479.7,189.5c4-1.2,8-3.4,12-3.4c20.5,0.1,40.7-2.8,61-5.1c5.4-0.6,10.8-0.6,16.3-0.8c0,9.9,5.3,17.4,11,24.8
	c0,0,0,0,0,0c1.7,2.7,3.3,5.3,5,8c0,0,0,0,0,0c1.8,4.1,3,8.6,5.5,12.2c9,12.9,18.3,25.6,27.8,38.1c8.6,11.4,18,22.2,30,30.2
	c7.4,4.9,15.6,8.9,20.5,16.8c5.3,8.4,11.6,16.3,15.8,25.2c5.9,12.5,10.3,25.7,15.3,38.6c-4.1-1-8.2-2.3-12.4-3
	c-11.1-1.8-22.4-2.6-33.3-5.2c-13.2-3.2-25.3-9.1-36.1-17.8c-8.4-6.8-17.7-13.1-27.4-17.7c-14.5-6.9-29.4-13.2-42.6-22.4
	c-8.5-6-17.1-12-24.6-19.1c-9.8-9.3-15.8-21.5-22.3-33.3C489.8,234.9,482.3,213.1,479.7,189.5z"/>
<path class="st4" d="M517.1,922c-5,0.3-10,0.3-14.9,1.1c-10.2,1.6-18.2-3.9-26.9-7.6c-1.8-0.8-3.6-1.6-5.3-2.5
	c-7.1-6.4-14.2-12.9-21.5-19.2c-1.5-1.3-3.7-1.9-5.5-2.9c-0.3-0.3-0.7-0.7-1-1c-0.3-0.3-0.7-0.7-1-1c-0.3-0.3-0.7-0.7-1-1
	c-0.1-0.3,0-0.8-0.2-1c-7.7-5.6-15.4-11.2-23.1-16.7c-0.4,0.6-0.8,1.1-1.2,1.7c7.1,6.9,15.8,11.3,24.4,16c0.3,0.3,0.7,0.7,1,1
	c0.3,0.3,0.7,0.7,1,1c0.3,0.3,0.7,0.7,1,1c3.6,4.3,7.2,8.6,11.9,14.1c-3.3-0.4-5.1-0.7-7-0.9c-5.3-1.4-10.5-2.9-15.8-4.3
	c-3.1-1.8-6.1-3.7-9.2-5.2c-4.6-2.2-9.4-4.2-14.1-6.3c-0.3,0.5-0.6,1-0.9,1.6c4.5,2.7,9,5.5,13.6,8.2c-0.4,0.3-0.7,0.7-1.1,0.9
	c-9.4,4.5-17.3,0.7-25.2-4.2c-2.2-1.3-4.8-1.9-7.2-2.8c-6.3-4.5-12.7-8.8-18.8-13.5c-12.6-9.9-25-20-37.4-30.1
	c-1.7-1.3-3.2-2.8-4.8-4.2c0-1.8,0.3-3.7,0-5.5c-0.9-5.2-3-10.4-2.7-15.5c0.8-12.7,3.2-25.3,10.7-36.2c2.9-4.2,5.4-8.7,8-13
	c8.2-4.3,16.2-10,26.1-4.3c1.7,0.4,3.3,1.3,5,1.3c9.3-0.2,18.7-0.7,28-1.1c0.6,0,1.3,0,1.9,0c7.3,0.1,14.7,0.3,22,0.4
	c16.2,5.6,32.3,11.5,47.1,20.5c3.3,1.8,6.6,3.7,9.9,5.5c3.7,3.7,7.3,7.4,11,11c-0.9,1.6-1.7,3.2-2.6,4.9c-1.1,2.1-3.4,4.4-3.1,6.3
	c0.9,7.3,4.4,13.3,10.6,17.6c5.2,6,10.5,12,15.7,18c-3.8,0.7-7.7,1.3-11.5,2c-1.4-0.5-2.8-0.9-4.6-1.5c-5.7-6.6-11.9-13.9-18.2-21.2
	c-0.2-0.2-0.8-0.1-1.2-0.1c-4.6-4.4-9.2-8.8-13.8-13.2c-5-4.1-10.2-7.4-17-7.1c-2-1-4-1.9-6.5-3.1c1.4,3.9,2.3,6.9,3.5,9.7
	c1,2.3,2.4,4.4,3.7,6.6c1.4,4.5,2.6,9,4.2,13.5c1.1,3.2,2.5,6.2,3.8,9.4c2.6,5.6,5.1,11.2,7.6,16.8c1.8,3.5,3.7,6.9,5.5,10.4
	c1,2.3,2,4.6,3.1,6.8c1.6,2.4,3.2,4.9,4.8,7.3c3.8,3,7.6,5.9,11.3,8.9c2.2,0.9,4.4,2.4,6.7,2.6c10.4,0.6,20.9,0.9,31.4,1.2
	c7.2,1.5,11.7,5.6,12.9,13c-4.5,0.3-9.1,0.5-13.5,1.1C522.8,917.6,518.3,916.8,517.1,922z"/>
<path class="st5" d="M308,384c8.3-0.8,16.7-1.5,25-2.4c10.1-1.2,20.2-3.1,30,1.6c7.6,3.3,14.8,7.1,20.3,13.6
	c3.9,4.5,8.3,8.6,12.6,12.6c1.3,1.2,3.3,1.8,5,2.7c0.7,0.6,1.3,1.3,2,1.9c0,0.7,0,1.4,0,2.1c-1.3,0-2.8-0.3-4,0.1
	c-7.2,2.7-12.3-0.8-16.8-5.5c-7.6-8-15.7-15.4-26.3-19.2c-6-2.2-12.2-4-18.4-6c-0.2,0.4-0.3,0.9-0.5,1.3c2.3,1.6,4.6,3.2,6.9,4.7
	c10.7,7,21.4,14,31.9,21.1c3.6,2.4,4.6,5.8,1.6,9.4c-1.9,2.2-1.6,4,0.6,5.4c5.7,3.8,8.6,9.4,11.4,15.3c0.7,1.5,2.3,3.1,3.8,3.4
	c8.8,2.2,17.8,4,26.7,5.9c4.1,2.6,8.3,5.3,12.4,7.9c7.8,5,15.7,10.1,23.5,15.2c-4.9-0.6-9.8-1.1-14.7-1.9c-6.7-1-13.6,3.1-14.7,9.6
	c-0.5,2.7,0.2,6.9,2,8.4c3.6,3,8.3,4.5,12.6,6.7c5.3,0.9,10.4,4.7,16,1.1c-1.9,5.7-2.4,12.1-8.9,15c-0.4,0.3-0.7,0.7-1.1,1
	c-3.6,1-7.3,2-10.9,3c0.1,0.4,0.2,0.8,0.3,1.3c3.2-0.5,6.4-0.9,9.6-1.4c-0.7,10.4-10.9,20.3-21.1,20c-13-0.4-26-1.2-39-1.8
	c-2.3,0-4.6,0-6.8,0.1c-1.7-0.4-3.4-0.8-5.1-1.2c-0.5-0.6-0.9-1.6-1.5-1.8c-6-1.8-12.1-3.6-18.2-5.2c-8.6-2.3-16.6-5.8-21.7-13.3
	c-6.4-9.4-11.9-19.3-17.6-29.2c-7.1-12.4-13.9-24.9-20.9-37.3c1.8,6.7-2.9,10.6-7.4,14.2c-3.7,3-3.1,5.6-1,9
	c2.4,4.1,5.3,8.2,6.4,12.8c0.8,3.3-0.1,7.5-1.7,10.6c-0.6,1.2-5.1,0.5-9.1,0.7c2.6,3.2,4.6,6.9,7.7,9.1c8.1,6.1,17.1,11,24.9,17.4
	c6.6,5.4,14.1,6.9,22,8.1c1.4,0.2,2.7,1.2,4.1,1.8c-15.1,1.1-27.8-4.2-38.9-14.1c-6.4-5.7-13.5-10.6-22.1-12.9
	c-3.1-0.9-5.9-2.5-8.6-3.7c-0.2,4.6,2.9,9.6,7.2,10.9c2.1,0.7,4.4,1.6,5.8,3.2c10.3,11.1,22.9,17.8,37.5,21c1.8,0.4,3.3,1.7,4.9,2.6
	c-3.9,0-7.9,0-11.8,0c0.2,0.4,0.5,0.9,0.7,1.3c-0.9,0.9-1.7,2.5-2.7,2.7c-1.5,0.3-3.3,0-4.7-0.8c-5.8-3.1-11.4-6.4-17.1-9.6
	c-0.7-0.2-1.4-0.3-2.1-0.5c-0.1,0.2-0.1,0.4-0.2,0.6c0.6,0.2,1.1,0.3,1.7,0.5c0.4,1,0.8,2.1,1.3,3.4c-1.5,0.3-2.7,0.5-3.7,0.7
	c0.2,2.2,0.4,4.1,0.6,6c0.3,2.6,0.7,5.1,1,7.6c-1.6,0.4-3.3,0.8-4.9,1.2c-1.5-0.9-2.9-2-4.5-2.8c-5.1-2.6-8.4-5.7-9-12.4
	c-0.5-5.8-2.9-12.1-6.4-16.8c-7.7-10.5-4.8-22.9,7.1-27c-0.4-7.3-1.5-14.6-1.1-21.8c0.4-7.1,0.3-14.6,5.4-20.8
	c6.6-7.9,13.3-15.7,19.1-24.1c5.2-7.5,9.6-15.7,8.3-25.5c-0.5-3.8-1.6-6.9-6.1-7.1c2.1-2,4.2-4.1,6.4-6.1
	C304.8,386.4,306.4,385.2,308,384z M364.7,451.8c3-7.2,2-13.4-3.7-17.4c-4.4-3.1-9.9-5.4-15.2-6.4c-4.4-0.8-9.4,0.5-14,1.4
	c-1.1,0.2-2,2.4-2.5,3.8c-0.1,0.3,1.7,1.4,2.8,2c4.3,2.2,9.3,3.4,12.7,6.5C350.7,447.2,357.9,449,364.7,451.8z M365,504
	c-0.6,0.3-1.3,0.6-1.9,0.9c0.6,1.7,0.8,4.4,1.8,4.8c5.1,1.7,10.4,3.2,15.7,4.1c5.1,0.8,10.8-0.5,15.6,1.1
	c12.1,3.8,23.9,7.7,37.1,1.9c-3.2-0.3-6-0.5-8.7-0.8c-7.1-0.8-14.3-0.9-21.1-2.5c-7.8-1.9-15.4-4.1-23.5-3.5
	C374.1,510.4,368.6,510,365,504z M300.8,456.4c0.8-0.2,1.6-0.5,2.4-0.7c-1.7-4.9-3.4-9.7-5.1-14.6c-0.6,0.2-1.3,0.4-1.9,0.6
	C297.8,446.5,299.3,451.5,300.8,456.4z M281.6,492.2c0-0.1,0.1-0.2,0.1-0.3c-0.1,0-0.3-0.1-0.3-0.1c-0.1,0.1-0.1,0.2-0.1,0.3
	C281.4,492.2,281.5,492.2,281.6,492.2z"/>
<path class="st6" d="M269,800.8c-19.2-12.3-36.3-26.9-49.3-46c-6.6-9.7-14.5-18.6-22.2-27.6c-8.2-9.6-13.6-20.4-14.4-33.2
	c2.3-3.5,5.5-6.8,6.7-10.6c4.1-13.4,9.5-26,18-37.2c8.7-11.4,19.9-18.3,34.1-20.2c3.2,1.2,6.3,2.7,9.6,3.6
	c17.4,4.7,27.7,17.8,37,31.7c4.2,6.3,7.1,13.5,10.6,20.3c1.9,3.8,3.8,7.6,5.8,11.4c0.2,1.5,0.4,2.9,0.5,4.4
	c1.4,12.4,1.2,23.9-10,32.9c-5.7,4.5-9.8,11.1-14.6,16.7l0,0c-0.5,0.4-1.2,0.7-1.6,1.2c-8.8,9-12.1,20.3-12.3,32.5
	C267.1,787.3,268.3,794,269,800.8z"/>
<path class="st7" d="M700,374c-5-12.9-9.4-26.1-15.3-38.6c-4.2-8.9-10.5-16.8-15.8-25.2c-5-7.9-13.1-11.9-20.5-16.8
	c-12.1-8-21.4-18.8-30-30.2c-9.5-12.5-18.8-25.2-27.8-38.1c-2.5-3.6-3.7-8.1-5.5-12.2c0.9,0.6,2.1,1,2.8,1.8
	c5.9,6.3,11.6,12.6,17.4,19c6.3,6.8,12.9,13.4,18.8,20.4c13.3,15.9,28.1,30.3,46.9,39.4c13.4,6.6,28.1,7.7,42.6,3.1
	c10.5-3.3,20.9-6.2,32.1-5.8c7.1,0.3,14.3,0.2,21.5,0c5-0.1,9.6-1.6,12.1-6.4c1.9-3.6,0.8-6.1-3.1-7.3c-0.8-0.3-1.7-0.2-2.4-0.5
	c-1.9-0.8-3.7-1.6-5.5-2.5c1.7-1.3,3.3-3.2,5.2-3.6c12-2.5,21.8-8.4,30-17.4c0.3-0.3,1.1-0.1,1.7-0.1c-3.7,6.5-7.4,13-11.2,19.4
	c-10.4,17.8-20.9,35.5-30.6,51.9c6.7,14.8,13.4,29.1,19.7,43.5c3,6.9,5.4,14,8,21.1c-3.8,1-7.5,2.3-11.3,3c-5.8,1.1-11.7,2-17.6,2.4
	c-13.1,0.9-25.9,1.2-37.6-7.1c-7.4-5.3-14.7-11.6-24.5-12.3C700,374.6,700,374.3,700,374z"/>
<path class="st7" d="M809.4,233.9c-1.4,0.3-3,1.2-4.3,0.8c-12.6-3.1-25.8-3.8-37.7-10.1c-7.7-4-15.6-7.8-23.6-11.1
	c-4.5-1.8-9.4-3.2-14.3-3.4c-12-0.5-24,0.3-36-0.3c-8-0.4-16.1-1.2-23.4-5.5c-5.5-3.3-6.9-7-2-10.7c6.6-5.1,14.1-9.1,21.3-13.4
	c0.7-0.4,1.8,0.1,2.8,0.2c-1.6,3.2-3.3,6.1-4.3,9.2c-0.7,2.1,0.4,3.5,2.9,4.8c8.4,4.1,17.7,3.6,26.5,5.6c2.6,0.6,5.3,0.6,7.8,1.4
	c5.2,1.6,9,0,12.2-4.2c4.6-6.3,8.1-12.8,7.6-21c-0.3-5.5-2.6-9.5-7.6-11.9c-7.8-3.7-16.1-3.3-24.5-3.1c-15.7,0.4-31.5,1.6-47.1,0.4
	c-9.9-0.8-19.7-5.3-27.4-12.5c-9.3-8.8-6-13.7,5-18.6c17.7-8.1,36.6-8.2,55.6-4.5c8.5,1.7,16.9,3.9,25.4,5.7
	c1.1,0.2,2.5-0.8,3.8-1.2c0.6,0.4,1.3,0.9,1.9,1.3c0.7,0.4,1.3,0.9,2,1.3c28.5,19.1,50.8,43.8,65.8,74.7
	C802.1,216.2,805.6,225.1,809.4,233.9z"/>
<path class="st0" d="M369,769.7c-9.9-5.7-17.9,0-26.1,4.3c-11.1,5.8-19.4,14.2-24.1,26c-4.8,12.2-4.7,24.6-1.9,37.1
	c-1,0.3-2.5,1.3-2.9,0.9c-14-11.4-27.9-23-41.8-34.5c-0.1-0.1-0.2-0.3-0.3-0.4c0.3-0.7,0.8-1.5,0.7-2.2c-0.5-7.3-1.3-14.5-1.7-21.8
	c-0.5-10.5,2.4-20,8.7-28.4c0.7-1,0.9-2.4,1.3-3.6c0,0,0,0,0,0c3.6-3.2,7.1-6.8,11-9.7c5-3.7,10.1-7.6,15.7-10.1
	c6.5-2.9,13.6-4.3,20.4-6.3c5.8,1.1,8.6,5.7,11.8,9.8c7.3,9.3,13.6,19.4,23.5,26.3c1.8,1.3,3.1,3.3,4.6,4.9
	C368.4,764.5,368.7,767.1,369,769.7z"/>
<path class="st8" d="M438,371.7c-2.6-4.4-5-8.9-7.9-13c-8.5-12.1-10.2-34.9-1.6-46.1c6-7.8,13.5-11.4,23.1-12.7
	c12.5-1.7,25.5-2.6,35.6-12c1.3-1.2,2.5-2.6,3.8-3.9c4.1-4.6,8.1-9.2,12.2-13.9c2,3.3,4.1,6.6,6.1,9.9c0.2,6.1,0.5,12.1,0.7,18.2
	c0,0.7,0,1.3,0,2c-0.6,0.7-1.4,1.4-1.7,2.2c-2.8,8.1-5.7,16.2-8.1,24.5c-2.1,7.4-4.5,14.8-5,22.4c-0.8,12.4,5.4,22.1,14.8,29.9
	c-0.4,1.3-0.7,2.7-1.1,4c-3.7-0.7-7.4-1.3-11-2c0.8-0.4,1.5-0.8,2.3-1.2c0.6,0,1.2,0,2.6,0c-12.9-10.2-18.7-23-17.9-38.7
	c0.6-3.2,1.2-6.4,1.7-9.5l0.3,0.3l-0.3-0.3c0.8-1.2,1.6-2.4,2.4-3.6l0-0.1c0.3-0.4,0.5-0.8,0.8-1.2c0-0.6,0-1.2,0-1.8
	c3.3-4.6,7.4-8.9,9.5-14c1.8-4.2,1.3-9.4,2-15.3c-1.7,1.1-2.3,1.3-2.4,1.6c-4.3,8.9-11.6,14.5-20.1,18.9c-5.7,2.9-11.3,5.9-17,8.9
	c-7.5,1.9-11.7,1.8-8.8-8.3c0-0.1-0.1-0.3-0.2-0.4c-10.1,12.7-16.4,30.9,1.2,43.9c2.7,2.9,5.4,5.9,8.1,8.8c0.8,5,1.6,10,2.3,15
	c-2.7,13.3-11.5,20.4-24,23.8c-1.3,0.3-2.8-0.4-5-0.8c13.2-8.4,15.5-18.8,7.3-28.9C441.2,375.9,439.6,373.8,438,371.7z M445.6,305.6
	c-12.8,1.6-22,20.2-17.5,35.3C429.6,326.6,435.3,315.4,445.6,305.6z"/>
<path class="st9" d="M296.9,393.9c4.5,0.3,5.6,3.3,6.1,7.1c1.3,9.8-3,18-8.3,25.5c-5.8,8.4-12.6,16.2-19.1,24.1
	c-5.1,6.1-5,13.6-5.4,20.8c-0.4,7.2,0.7,14.5,1.1,21.8c-11.9,4.1-14.8,16.6-7.1,27c3.5,4.7,5.9,11,6.4,16.8c0.6,6.6,3.9,9.8,9,12.4
	c1.6,0.8,3,1.9,4.5,2.8c-14,3.3-26-2.8-38.2-8.2c1.6-11.7,3.8-23.3,4.7-35c0.5-6.7-0.4-13.8-1.8-20.4c-2.9-14.4-5.1-28.8-5-43.5
	c2.5-1,5-2.6,7.6-3c10.2-1.9,18.6-6.3,23.9-15.6c2.8-4.9,5.7-9.6,8.5-14.4c0.1-0.3,0.1-0.6,0.2-0.9c0.3-0.6,0.7-1.2,1-1.8
	c1.2-1.5,2.4-3,3.6-4.6C291.4,401.1,294.2,397.5,296.9,393.9z"/>
<path class="st10" d="M385.9,536.1c13,0.6,26,1.5,39,1.8c10.2,0.3,20.3-9.6,21.1-20c0.3-0.3,0.7-0.6,1-1c0.3-0.7,0.7-1.3,1-2
	c0-0.3,0.1-0.7,0.1-1c6.5-2.9,7.1-9.3,8.9-15c0.6-1,1.3-2,1.9-3c0.3-0.1,0.6-0.1,0.9-0.2c0.4,0.9,0.6,2.1,1.3,2.6
	c4.2,2.7,5,6.6,4.9,11.2c-0.1,9.4-3.6,17.9-7.6,25.9c-2,3.9-5.9,7.3-9.7,9.5c-4.5,2.5-9.9,3.4-14.8,5.1c-4.2,1.5-8.5,2.1-10.4,7.7
	c-3.5,10.2-4.9,20.6-5.3,31.2c-0.2,6.7,0.7,13.4,1.2,20.1c-5-8-10-16.1-15.2-24c-1.1-1.8-2.8-3.2-4.2-4.8
	c-3.4-9.8-7.3-19.3-14.1-27.3c1-1.3,2.1-2.6,3.1-3.9c-0.6-1.8-1.3-3.6-1.9-5.3c-0.1-2.1-0.2-4.2-0.4-6.4
	C386.5,536.9,386.2,536.5,385.9,536.1z"/>
<path class="st11" d="M146.7,395.1c0.8,1.7,1.9,3.3,2.3,5c2.4,10,4.7,20,7.1,30c1.6,6.8,3,8.1,9.9,7.8c7.4-0.3,14.9-1.2,22.3-1.8
	c1-0.1,2.1-0.4,3-0.1c1.9,0.5,3.7,1.3,5.6,2c-1.3,1.3-2.3,3.1-3.9,3.9c-5.2,2.9-10.5,5.8-16,7.9c-8.7,3.3-10.8,10.1-10.8,18.3
	c-0.1,12,0,24-0.1,36c0,2.1-0.6,4.3-1,6.4c-0.6,0.1-1.3,0.2-1.9,0.3c-1.4-3.5-2.6-7.1-4.1-10.6c-4.1-9.8-7.9-19.7-12.5-29.2
	c-3.2-6.5-9-9.4-16.5-9.1c-6.3,0.2-12.7,0.1-19,0c-1.6,0-3.1-0.3-4.7-0.4c-0.1-0.6-0.2-1.1-0.4-1.7c4-1.3,8-2.7,12-3.8
	c8.1-2.4,16.4-5.3,19.8-13.4c2.6-6.3,3.2-13.5,4.1-20.4c1-8,1.4-16.2,2.2-24.2c0.1-0.9,0.7-1.7,1.1-2.6
	C145.7,395.3,146.2,395.2,146.7,395.1z"/>
<path class="st12" d="M765.3,402.1c0.3,4.5,1,9,0.7,13.4c-0.5,9.2-11.8,11.7-17.5,8.6c-4.6-2.4-8.5-6.1-12.6-9.5
	c-2.7-2.3-5-6.6-8.8-4.8c-4.4,2.2-2,7.1-1.8,10.9c0.1,2.3,1.3,4.5,2.1,6.7c-0.5,0.2-0.9,0.4-1.4,0.6c-4.1-6.9-8.1-13.7-12.5-21
	c-1.5,7.2-0.4,14.2,1.6,20.9c2,6.6,4.6,13.1,7.3,20.7c-18.2-15.8-28.1-34.1-27.2-57.6c2.7-3.6,5.4-7.2,8.1-10.8
	c0.2,0.1,0.4,0,0.6-0.2c3.2,1.6,6.9,2.6,9.6,4.8c13.4,10.6,28,17.1,45.6,15.4c1.9-0.2,3.8,0.6,5.8,1
	C765,401.5,765.2,401.8,765.3,402.1z"/>
<path class="st9" d="M195.9,630.9c10.5-27.1,26.5-50.9,45-73.2c0,3.7,0.1,7.4,0.1,11.1c-0.3,1.4-0.6,2.7-0.8,4.1
	c2,0.4,3.9,0.9,5.9,1.3c0.6,0,1.2,0.1,1.7,0.1c0.5,0.4,0.9,1.2,1.5,1.2c12.3,1.3,24.1,7.2,36.8,3.6c-1.8,0.6-3.6,1.7-5.5,1.9
	c-6.9,0.5-13.9,1-20.8,1c-8.8,0.1-20.8,9.2-20.8,16.7c0,8.4-0.6,16.9-1,25.3c-2.1,0-4.4,0.3-6.4-0.2c-9.6-1.9-18.5-0.1-27.3,3.9
	C201.6,628.9,198.7,629.8,195.9,630.9z"/>
<path class="st13" d="M283.9,411.9c-2.8,4.8-5.8,9.6-8.5,14.4c-5.3,9.3-13.7,13.7-23.9,15.6c-2.6,0.5-5.1,2-7.6,3
	c-5.3,1-10.5,2.4-15.8,2.8c-2.5,0.2-5.4-1-7.8-2.2c-2.6-1.3-3.1-3.7-1.6-6.3c5.6-9.8,11.2-19.6,16.9-29.4
	c0.6,11.3,4.8,11.6,11.7,9.6c9.3-2.8,17.6-8,20.8-18.3c1.6-5.2,5.7-7.6,10.3-9.3c5.8-2.1,7.7-0.7,7.6,5.4c-0.1,4-0.6,8-0.9,12.1
	c-0.3,0.6-0.7,1.2-1,1.8c-0.1,0.1-0.4,0.2-0.4,0.2C283.8,411.5,283.9,411.7,283.9,411.9z"/>
<path class="st11" d="M932.9,788.4c-4.2,1.2-8.3,2.5-12.5,3.6c-5.6,1.5-11.4,3.3-13.7,8.9c-2.1,5.1-2.9,10.8-3.6,16.4
	c-0.9,7.3-1,14.7-1.5,22.1c-0.5,0.2-1.1,0.3-1.6,0.5c-1.3-3.3-2.8-6.5-3.9-9.9c-3-8.9-5.5-18-8.8-26.8c-1.7-4.5-5.3-7.2-10.9-7.3
	c-5.1-0.1-10.2-1.2-15.2-2.1c-1.1-0.2-2-1.4-4.2-3.1c4.3-1.2,7.4-2.1,10.5-2.9c4.8-1.2,9.6-2.8,14.4-3.6c4.9-0.8,6.4-3.5,6.1-8
	c-0.6-8.3-1.4-16.5-2-24.8c-0.1-1.6,0.2-3.2,1.4-5.2c1.2,1.8,2.6,3.5,3.5,5.4c3.2,7.5,5.9,15.2,9.3,22.5c3.5,7.5,7.8,12.2,17.7,11.9
	c3.7-0.1,7.3-0.1,11,0c1.3,0,2.6,0.4,3.9,0.7C932.8,787.2,932.9,787.8,932.9,788.4z"/>
<path class="st14" d="M241,568.8c0-3.7-0.1-7.4-0.1-11.1c1.3-0.6,2.7-1.8,3.9-1.6c7.8,1,15.6,2.5,23.4,3.4c6,0.7,12.1,1.4,18,0.7
	c17.3-2,34.6-4.5,51.8-7.2c15.1-2.4,30.2-5.5,44.3-12c1.7-0.8,3-2.4,4.4-3.6c0.1,2.1,0.2,4.2,0.4,6.4c-8.7,6.5-18,12.1-28.8,14.3
	c-11.3,2.3-22.6,4.5-33.9,6.6c-17,3.2-33.9,6.3-50.9,9.4c-0.8,0.1-1.7,0.2-2.5-0.1C261.4,570,251.3,568.6,241,568.8z"/>
<path class="st15" d="M285.1,409.2c0.3-4,0.8-8,0.9-12.1c0.2-6.1-1.8-7.5-7.6-5.4c-4.6,1.7-8.7,4.1-10.3,9.3
	c-3.2,10.3-11.4,15.5-20.8,18.3c-6.9,2.1-11.1,1.7-11.7-9.6c0.2-0.8,0.4-1.6,0.7-2.4c7.8-17.7,9-18.6,27.6-24.4
	c9.3-2.9,18.7-5.3,28.4-3.9c5.3,0.8,10.5,3.2,15.7,4.8c-1.6,1.3-3.2,2.4-4.7,3.8c-2.2,2-4.3,4.1-6.4,6.1c-2.8,3.6-5.5,7.2-8.3,10.8
	C287.5,406.2,286.3,407.7,285.1,409.2z"/>
<path class="st16" d="M509.3,280c-2-3.3-4.1-6.6-6.1-9.9c-0.7-1.1-1.5-2.2-2.2-3.3c-3.9-8.6-8.5-16.9-11.6-25.7
	c-4.6-12.9-8.3-26.1-11.9-39.3c-1.1-4-2.4-8.9,2.3-12.3c2.6,23.5,10,45.4,21.5,66.1c6.5,11.8,12.5,24,22.3,33.3
	c7.5,7.1,16.1,13.1,24.6,19.1c13.2,9.3,28.1,15.5,42.6,22.4c9.8,4.6,19,10.9,27.4,17.7c10.8,8.7,22.9,14.6,36.1,17.8
	c10.9,2.6,22.2,3.4,33.3,5.2c4.2,0.7,8.3,2,12.4,3c0,0.3,0.1,0.6,0.1,0.9c0,1,0,1.9,0,2.9c-6.7-1.3-13.4-2.5-20.1-3.8
	c-2.5,0.2-5.1,0.5-7.6,0.7c-1.2-0.6-2.4-1.5-3.8-1.8c-9.6-2.5-19.2-4.8-28.8-7.2c-2.2-0.6-4.4-1.2-6.6-1.8c-2-1.4-4-2.9-6-4.3
	c-10.6-7.3-20.9-15.3-32-21.8c-13.3-7.7-27.3-14.1-41-21.1c-2.7-1-5.4-1.9-8.1-2.9c-1-0.7-1.9-1.3-2.9-2c-0.9-1.1-1.6-2.3-2.7-3.2
	c-7.2-6.3-14.5-12.4-21.7-18.6c-1.2-1-2.4-2-3.7-3C513.1,284.7,511.2,282.4,509.3,280z"/>
<path class="st17" d="M539.9,916c-1.2-7.4-5.7-11.5-12.9-13c2-0.9,4-1.9,6-2.8c5.3-1,10.7-1.8,16-3c3-0.7,5.8-2.2,8.7-3.3
	c0.7,8.2,5.6,14.3,10.1,20.6c6.7,9.4,14.9,17.3,24.6,23.6c0.6,0.4,1,1.2,1.4,1.8c-21.5-0.2-41.4-6.6-61.3-15c1-0.8,1.6-1.2,2.2-1.7
	c5-0.8,10.1-1,15.4-4C546.2,917.9,543,916.9,539.9,916z"/>
<path class="st7" d="M580,205c-5.7-7.3-10.9-14.9-11-24.8c1.8-2.7,4.2-5.2,5.4-8.1c8-19.6,21-35.8,34.6-51.7c0.9-1.1,2.7-1.5,4-2.3
	c1.6,3.2,2.8,6.7,4.9,9.6c5.4,7.5,5.2,11.5-1.7,17.5c-2.2,1.9-5,3.4-7.2,5.4c-5.2,4.7-10.1,9.8-15.2,14.6
	c-5.5,5.1-10.9,10.5-16.9,15c-2.5,1.9-3.5,3.1-2.5,5.9c1.4,4.2,2.9,8.4,4.2,12.6C579.3,200.8,579.6,202.9,580,205z"/>
<path class="st17" d="M195.9,630.9c2.8-1.1,5.7-2,8.4-3.2c8.7-4,17.7-5.8,27.3-3.9c2.1,0.4,4.3,0.1,6.4,0.2c1.3,0.7,2.7,1.4,4,2
	c-14.2,1.9-25.5,8.7-34.1,20.2c-8.5,11.2-13.9,23.8-18,37.2c-1.2,3.9-4.4,7.1-6.7,10.6C181.9,671.8,185.2,650.6,195.9,630.9z"/>
<path class="st18" d="M326,538.8c-1.6-0.9-3.2-2.2-4.9-2.6c-14.7-3.2-27.2-10-37.5-21c-1.4-1.5-3.7-2.5-5.8-3.2
	c-4.3-1.4-7.4-6.4-7.2-10.9c2.6,1.2,5.5,2.9,8.6,3.7c8.5,2.4,15.6,7.2,22.1,12.9c11.1,9.9,23.8,15.2,38.9,14.1c11.3,1,22.6,2,33.9,3
	c1.7,0.4,3.4,0.8,5.1,1.2c-0.6,0.3-1.3,0.6-1.9,0.9c-7.3,1.7-14.7,3.5-22,5.2c-4.1-0.4-8.2-0.7-12.2-1.1c-0.6-0.2-1.3-0.3-1.9-0.5
	c-0.7-0.2-1.4-0.5-2-0.7C334.7,539.6,330.4,539.2,326,538.8z"/>
<path class="st17" d="M438,371.7c1.6,2.1,3.1,4.2,4.7,6.3c-3.7,0.7-8.2,0.2-11,2.2c-12.2,8.9-20.4,20.7-22.9,35.9
	c-2-0.7-3.9-1.4-5.9-2.1c-0.7-0.6-1.3-1.3-2-1.9c-0.2-10.2-0.9-20.3-5.1-29.7C410,378.8,424,375.2,438,371.7z"/>
<path class="st19" d="M317.1,837c-2.9-12.5-3-24.9,1.9-37.1c4.7-11.8,12.9-20.2,24.1-26c-2.7,4.3-5.2,8.8-8,13
	c-7.5,10.9-9.9,23.4-10.7,36.2c-0.3,5.1,1.9,10.3,2.7,15.5c0.3,1.8,0,3.7,0,5.5C323.6,841.8,320.3,839.4,317.1,837z"/>
<path class="st9" d="M395.9,382.3c4.2,9.5,4.9,19.6,5.1,29.7c-1.7-0.9-3.7-1.4-5-2.7c-4.4-4.1-8.8-8.1-12.6-12.6
	c-5.6-6.5-12.7-10.3-20.3-13.6c7-1.4,13.9-3.3,20.9-3.8C387.8,379.1,391.9,381.2,395.9,382.3z"/>
<path class="st3" d="M700,377.9c0-1,0-1.9,0-2.9c9.8,0.7,17.1,7.1,24.5,12.3c11.7,8.3,24.5,8,37.6,7.1c5.9-0.4,11.8-1.4,17.6-2.4
	c3.8-0.7,7.5-2,11.3-3c0,0-0.1,0-0.1,0c0.3,0.4,0.5,0.7,0.8,1.1c-0.1,4.4-3.3,6.9-9.8,8c-5.7,1-11.4,2.1-17.1,3.2
	c-1.9-0.3-3.9-1.1-5.8-1c-17.5,1.7-32.2-4.9-45.6-15.4c-2.7-2.2-6.4-3.2-9.6-4.8C702.6,379.3,701.3,378.6,700,377.9z"/>
<path class="st11" d="M190.6,412.9c-2.3-3.6-3.9-7.6-6.8-10.3c-2.8-2.6-6.8-3.8-11.3-6.1c4.6-2.7,10.1-4.3,12.8-7.9
	c2.9-3.7,3.2-9.4,5.9-14.7c0.9,2.4,2.3,4.7,2.7,7.2c0.8,6.3,2.6,11.4,10.4,11.1c0.8,0,2.2,1.2,2.3,2c0.1,0.8-0.9,2.5-1.6,2.6
	c-9.1,1.1-12.2,7.2-12.9,15.2C192.1,412.2,191.6,412.4,190.6,412.9z"/>
<path class="st20" d="M355.2,542.3c7.3-1.7,14.7-3.5,22-5.2c-2.6,1.3-5,3.1-7.7,3.8c-12.3,2.9-24.5,5.8-36.9,8
	c-12.4,2.2-25.1,2.4-37.3,5.4c-14.6,3.5-28.3-0.1-42.3-2.5c-2.3-0.4-4.6-0.7-6.9-0.7c-2.7,0.1-3.8-0.8-4.1-3.6
	c-0.3-3.4,1.7-3.4,4-3.5c12.2,5.4,24.2,11.4,38.2,8.2c1.6-0.4,3.3-0.8,4.9-1.2c3.3-0.1,6.7-0.1,10-0.5c12.4-1.4,24.8-3,37.2-4.6
	c3.7-0.5,7.3-1.3,10.9-1.9C349.8,543.4,352.5,542.8,355.2,542.3z"/>
<path class="st11" d="M414.7,224.3c0.9,1.5,1.9,3,2.7,4.5c2.3,4.2,5.3,7.1,10.7,6.3c1.1-0.2,2.5,1,3.7,1.6c-0.6,1.2-1.2,2.3-1.9,3.5
	c-1.8,2.9-3.7,5.6-5.3,8.6c-0.8,1.5-1,3.3-1.4,5.1c-0.4-0.2-16.7-9.7-17.4-10.2c2.7-2.8,6.3-5,7.4-8.1c1.2-3.2-0.1-7.2-0.2-10.9
	C413.6,224.5,414.2,224.4,414.7,224.3z"/>
<path class="st19" d="M387.9,892c2.4,0.9,5.1,1.4,7.2,2.8c7.9,4.9,15.8,8.6,25.2,4.2c0.4-0.2,0.7-0.6,1.1-0.9
	c-4.6-2.8-9.1-5.5-13.6-8.2c0.3-0.5,0.6-1,0.9-1.6c4.7,2.1,9.5,4.1,14.1,6.3c3.2,1.5,6.2,3.5,9.2,5.2c-1.4-0.2-2.8-0.4-3.3-0.5
	c1.9,2.7,4,5.7,6.1,8.7C417.4,908,401.2,904.5,387.9,892z"/>
<path class="st11" d="M867,754.4c-5.2,3.8-10.7,7.4-8.8,15.6c-0.5,0-1,0.1-1.5,0.1c-1.1-1.1-2.6-2-3.4-3.3c-2-3.7-5-5.1-9.1-4.9
	c-1.3,0-2.7-1.1-4.1-1.7c0.9-1.1,1.6-2.7,2.7-3.1c5-1.8,4.3-5.6,3.9-9.5c-0.2-1.8,0.3-3.6,0.5-5.4c1.4,1.2,3.4,2,4,3.5
	c1.9,4.9,5.1,7,10.4,6.3c1.6-0.2,3.3,0.5,5,0.8C866.8,753.4,866.9,753.9,867,754.4z"/>
<path class="st11" d="M853,311.7c0.1-6.3,3.3-9.7,9.3-9.7c5.3,0,9.8,4.2,9.7,9.2c-0.1,5-5.5,9.9-10.7,9.7
	C856.6,320.8,852.9,316.8,853,311.7z"/>
<path class="st11" d="M188,857.8c0-5.3,3.2-8.8,8-8.7c4,0.1,8.8,5.5,8.8,10.1c0,3.7-4.7,7.8-8.8,7.8C190.8,867,188,863.8,188,857.8z
	"/>
<path class="st10" d="M281,747c-0.4,1.2-0.5,2.7-1.3,3.6c-6.3,8.4-9.3,17.9-8.7,28.4c0.4,7.3,1.2,14.5,1.7,21.8
	c0.1,0.7-0.5,1.5-0.7,2.2c-1-0.8-2-1.5-3-2.3c-0.7-6.7-2-13.4-1.9-20.1c0.2-12.2,3.4-23.4,12.3-32.5
	C279.9,747.7,280.5,747.4,281,747z"/>
<path class="st21" d="M539.9,916c3.1,1,6.2,1.9,10.4,3.2c-5.3,3.1-10.4,3.2-15.4,4c-5.9-0.4-11.9-0.8-17.8-1.2
	c1.2-5.2,5.7-4.4,9.3-4.9C530.9,916.4,535.4,916.3,539.9,916z"/>
<path class="st22" d="M434.9,908.1c-2.1-3-4.2-6-6.1-8.7c0.5,0.1,1.9,0.3,3.3,0.5c5.3,1.4,10.5,2.9,15.8,4.3
	c4.3,1.9,8.7,3.8,12.9,5.9c0.8,0.4,1.4,1.4,2.1,2.2c-8.3-1.1-16.6-2.2-24.9-3.2C437,908.7,436,908.4,434.9,908.1L434.9,908.1z"/>
<path class="st11" d="M819.1,844c-5,0-6.9-2.3-7.2-7.1c-0.2-4.5,2.6-5.4,5.9-5.7c3.7-0.3,6.2,2.8,6.2,7.4
	C824,842.1,822.9,844.5,819.1,844z"/>
<path class="st19" d="M462.9,912.2c-0.7-0.7-1.2-1.7-2.1-2.2c-4.3-2-8.6-3.9-12.9-5.9c1.8,0.2,3.6,0.5,6.9,0.9
	c-4.6-5.5-8.2-9.8-11.9-14.1c0,0,0,0,0,0c1.9,0.9,4,1.5,5.5,2.9c7.2,6.3,14.3,12.8,21.5,19.2C467.6,912.8,465.3,912.5,462.9,912.2z"
	/>
<path class="st8" d="M880,571c-1.1,0.8-2.2,1.6-3.7,2.7c2.6-12.2,2.1-23.8-2.5-35.1c5.1,5.1,6.3,11.6,7.2,18.3
	c0.3,1.7,0.7,3.5,1,5.2C881.3,565,880.7,568,880,571z"/>
<path class="st23" d="M500.9,266.8c0.7,1.1,1.5,2.2,2.2,3.3c-4.1,4.6-8.1,9.2-12.2,13.9C494.3,278.3,497.6,272.5,500.9,266.8z"/>
<path class="st11" d="M148.4,329c2.1,3.4,3.7,5.3,4.4,7.4c0.2,0.8-2.8,3.4-3.1,3.2c-2-1.3-4.1-2.9-5.3-4.9
	C144,334.1,146.2,332,148.4,329z"/>
<path class="st11" d="M849.8,222.6c1.5,2.7,2.8,4.1,2.9,5.6c0.1,0.8-1.7,1.8-2.7,2.7c-1-1.1-2.6-2-2.8-3.2
	C847.1,226.5,848.5,225.2,849.8,222.6z"/>
<path class="st19" d="M435,908.1c1,0.3,2,0.6,3,0.9C437,908.6,436,908.4,435,908.1z"/>
<path class="st2" d="M732.2,132.9c-0.7-0.4-1.3-0.9-2-1.3C730.9,132,731.5,132.5,732.2,132.9z"/>
<path class="st7" d="M791.8,390c-0.3-0.4-0.5-0.7-0.8-1.1C791.3,389.3,791.5,389.6,791.8,390z"/>
<path class="st10" d="M710,606.9c1.7,1.9,3.4,3.8,5.2,5.7c-2.7,3.3-5.2,6.7-8.2,9.8c-6.8,7.1-13.4,14.4-16.4,23.8
	c-2.2,6.9-2.7,14.2-4.6,21.2c-2.4,8.7-5.4,17.3-8.2,25.8c-0.4,1.1-1.7,1.8-2.5,2.7c0.5-2.3,1.1-4.5,1.6-6.8c0.4-2,0.8-4.1,1.2-6.2
	c-1.4,0.6-1.6,1.3-1.8,2c-3.4,8.2-5.7,17.1-10.4,24.5c-10.2,16.2-21.5,31.8-32.7,47.3c-6.1,8.5-12.7,16.5-19.2,24.7
	c-2.5,3.2-5.3,6.2-8,9.4c-9.5-4.6-19.6-4.8-29.8-3.5c-6.3,0.8-12.7,1.7-19,2.5c-0.7-0.4-1.7-0.6-2.1-1.2c-3.8-5.9-7.9-11.7-11-17.9
	c-2.9-6-4.7-12.6-7-18.9c1.5-0.1,3.1,0.1,4.4-0.4c13.1-5.6,26.6-10.3,39-17.2c19.5-10.8,35.8-25.8,48.9-44
	c11.6-16.2,22.7-32.6,34.3-48.7C675.5,625.4,689.8,612.2,710,606.9z"/>
<path class="st13" d="M537,752c2.3,6.3,4,12.9,7,18.9c3.1,6.3,7.2,12,11,17.9c0.4,0.6,1.4,0.8,2.1,1.2c2.8,5.9,6.3,11.6,8.2,17.8
	c2.5,7.9,3.9,16.2,5.8,24.3c-4-0.7-4,3.1-5.7,5.1c-0.2-1.5-0.4-3-0.7-4.4c-0.8-3.5,0.8-7.9-4.6-11c1.3,7.3,0.9,13.7,4.7,19.3
	c-0.7,2.7-1.4,5.4-2.2,8.1c-0.6,0.1-1.2,0.2-1.8,0.3c-5-8-10-16.1-14.9-24c-0.2,2.1-0.1,4.4-0.7,6.6c-1,3.5-1.6,7.8-7,7
	c-1-1.5-2.2-2.9-3-4.6c-2.4-5-5.5-9.8-6.8-15c-2.6-10.7-4.2-21.6-6.2-32.4c0.2-1.6,0.9-3.3,0.5-4.6c-2-6.9-3.8-13.9-6.6-20.6
	c-3.6-8.7-2-16.1,4.1-22.9c3.7,2.3,7.6,4.4,11.2,6.9C533.4,747.6,535.1,750,537,752z M557,838.5c0-10.7-0.4-20.6,0.1-30.5
	c0.4-7.8-3-13.6-7.8-19.2c-3.8-4.5-7.3-9.2-11.5-14.6C544.3,795.8,550.6,816.8,557,838.5z M539.2,788.9c0.2-0.1,0.4-0.1,0.5-0.2
	c-1.1-7-2.1-13.9-3.3-20.9c-0.4-2.5-1.8-5-4.6-3.4c-1.5,0.9-2.8,4.5-2.2,6C532.4,776.8,535.9,782.8,539.2,788.9z"/>
<path class="st17" d="M522,787c2,10.8,3.6,21.7,6.2,32.4c1.3,5.3,4.4,10.1,6.8,15c0.8,1.6,2,3,3,4.6c3,4.7,5.9,9.4,9.1,14
	c0.7,1,2.4,1.3,3.7,1.9c0.4-1.2,1-2.3,1.3-3.5c0.3-1.4,0.3-2.8,0.4-4.2c0.4,0,0.9,0,1.3,0.1c1.1,4.9-1.9,10.6,2.5,14.8
	c-4.4-1.6-9.5-2.2-13-4.9c-16.1-12.5-24.8-29.5-27.2-49.7c-1-8.5-5.2-14.7-12.6-19c-3.3-2-6.1-1-7,3.2c-0.8,4-0.6,8.1-0.8,12.2
	c-0.1,1.6,0,3.3,0,5c-0.6-0.5-1.2-1-1.9-1.5c-3.7-3.7-7.3-7.4-11-11c-1.9-5.6-3.3-11.4-5.7-16.8c-2.2-4.7-5.4-9-8.2-13.4
	c1.2,0,2.4-0.2,3.5,0.2c11.4,3.6,22.8,7.2,34.2,11C512.6,779.1,518.5,781.3,522,787z"/>
<path class="st17" d="M761,564.1c8.7-6.3,16.3-13.2,16-25.2c0-1.3,0.1-2.6,0.2-3.9c0.3-2.2,0.6-4.5,0.8-6.7c0.5-0.2,1-0.5,1.5-0.7
	c3.5,5.8,6.9,11.6,10.4,17.4c-1.1,2-2.1,4-3.2,6c-4.3,4.1-8.8,8.1-12.9,12.5c-5.1,5.5-8.8,11.7-6,19.6c1.4,8.7,6.5,15.1,12.6,20.8
	c3.9,3.6,2.7,7.8,1.8,12.1c-1.1,3-2.3,6-3.4,9l0,0c-1.3,1.3-2.7,2.7-4,4l0,0c-0.3,0.3-0.7,0.7-1,1l0,0c-2,1-4,2.1-6,3.1
	c1.3-3.8,3.3-7.5,3.9-11.4c1.4-8.4-2.5-15-8.4-20.7c-6.5-6.3-9.9-13.7-9.6-23c0.3-9,0.8-7.9-7.9-8c1.5-0.7,3-1.4,4.5-2
	C754,566.7,757.5,565.4,761,564.1z"/>
<path class="st18" d="M605.8,791.1c2.7-3.1,5.4-6.2,8-9.4c6.5-8.2,13.2-16.2,19.2-24.7c11.2-15.6,22.4-31.2,32.7-47.3
	c4.7-7.4,7-16.3,10.4-24.5c0.3-0.7,0.5-1.5,1.8-2c-0.4,2.1-0.8,4.1-1.2,6.2c-0.5,2.3-1,4.5-1.6,6.8c-3.1,6.7-5.3,14.2-9.5,20.1
	c-9.7,13.5-16,28.5-21.2,44.1c-2.2,6.6-4.7,13.2-6.5,19.9c-1.8,6.8-6.4,10.1-12.8,11.8c-2.4,0.6-4.8,1.4-7.1,2.2
	c-2.7,0-5.3,0.1-8,0.1C608.6,793.1,607.2,792.1,605.8,791.1z"/>
<path class="st19" d="M533.1,900.2c-2,0.9-4,1.9-6,2.8c-10.5-0.4-20.9-0.6-31.4-1.2c-2.3-0.1-4.5-1.7-6.7-2.6
	c-0.3-2.6-0.6-5.3-0.8-7.9c3.9-0.1,7.9-0.1,11.8-0.2c5.5-1.6,11.1-3.2,16.6-4.8c8.2-2.4,16.4-4.8,24.5-7.3c1.2,0.5,2.4,0.9,3.6,1.4
	c1.2,1.5,2.4,2.9,3.6,4.4c0.2,2.1,0.5,4.2,0.7,6.2C543.7,894,538.4,897.1,533.1,900.2z"/>
<path class="st17" d="M843,592c-1.4,1.3-2.8,2.6-4.2,4c-2.9,0.1-5.7,0.2-8.6,0.3c4.8-0.7,7.9-3.8,7.6-9.2
	c-0.4-6.4-1.6-12.8-2.8-19.1c-0.9-4.8-5.2-4.9-8.4-3.7c-8.9,3.3-17.8,7-26.2,11.4c-3.1,1.6-4.9,5.5-7.3,8.3
	c0.1-12.9,7.9-18.9,17.9-19.1c6.1-0.1,12.4-1.4,18.3-3c5.9-1.6,10-5.7,11.7-11.9c5.6,0.6,4.3,5.2,5.2,8.7
	C849.2,570.2,849.8,581.5,843,592z"/>
<path class="st24" d="M761,564.1c-3.5,1.3-7,2.6-10.5,3.9c-1.5,0.6-3,1.3-4.5,2c-3.4,0.6-6.8,1.3-10.2,1.9c2.8-4.7,5.6-9.4,8.4-14
	c11.2-18,14.8-37.3,9.9-58.1c-0.3-1.2-0.3-2.4,0.1-3.7c4.7,8.8,9.3,17.5,10,27.7c0.7,11.5-1.8,22-8.4,31.5c-0.7,0.9-1.3,2-1.5,3.1
	c-0.2,1.7-0.7,4.1,0.2,5c0.9,0.9,3.3,0.4,5.1,0.5C760,564.1,760.5,564.1,761,564.1z"/>
<path class="st25" d="M556.3,861.9c-4.5-4.2-1.5-9.9-2.5-14.8c-0.4,0-0.9,0-1.3-0.1c-0.1,1.4-0.1,2.9-0.4,4.2
	c-0.3,1.2-0.8,2.3-1.3,3.5c-1.2-0.6-3-0.9-3.7-1.9c-3.2-4.5-6.1-9.3-9.1-14c5.5,0.8,6-3.5,7-7c0.6-2.2,0.5-4.6,0.7-6.6
	c4.9,7.9,9.9,16,14.9,24c0.6-0.1,1.2-0.2,1.8-0.3c0.7-2.7,1.4-5.4,2.2-8.1c0.2-1.3,0.5-2.6,0.7-3.9c1.7-1.9,1.7-5.7,5.7-5.1
	c-0.3,4.9-0.3,9.8-1,14.7c-0.6,4.6-2,9-3.1,13.6c-0.6,0.1-1.3,0.3-1.9,0.4c-0.5-1.2-1-2.5-1.2-2.9c-2.2,2.4-4,4.3-5.7,6.2
	c-0.3-0.4-0.7-0.9-1-1.3C556.8,862.4,556.5,862.2,556.3,861.9z"/>
<path class="st10" d="M610,794.1c2.7,0,5.3-0.1,8-0.1c1.6,2,2.9,4.5,5,5.9c11.7,8,19.6,18.9,23.3,32.3c1.4,5,0.6,10.7,0.5,16.1
	c0,0.8-1.5,2.4-2,2.3c-1.1-0.2-2.5-1.1-2.9-2.1c-1.3-3.4-1.9-7-3.2-10.3c-6-15.7-15.1-29.4-27.1-41.1
	C610.9,796.3,610.5,795.1,610,794.1z"/>
<path class="st19" d="M532,870.6c1.4,0.5,2.8,1.1,4.2,1.6c0.4,1.8,0.8,3.7,1.2,5.5c-8.7,2.7-17.3,5.5-26,8.1
	c-3.2,0.9-6.5,2.1-9.6,1.9c-1.9-0.1-4.3-2.3-5.3-4.2c-0.5-1,1.2-3.9,2.6-5c3.8-2.8,8-5.1,12.1-7.6c2.3-0.1,4.6-0.3,6.9-0.4
	C522.6,870.6,527.3,870.6,532,870.6z"/>
<path class="st21" d="M514.5,854c-5.2-6-10.5-12-15.7-18c0.2-3.4-0.6-7.2,4-8.6c0.7,0,1.5-0.1,2.2-0.1c0.7,0.1,1.3,0.1,2,0.2
	c3.7,4.7,7.4,9.5,11,14.2c0.9,1.1,1.6,2.4,2.4,3.6c0.2,1.6,0.1,3.2,0.6,4.6c1.1,3.4,2.4,6.8,3.7,10.2
	C521.3,858.2,517.9,856.1,514.5,854z"/>
<path class="st19" d="M507,827.6c-0.7-0.1-1.3-0.1-2-0.2c-0.7,0-1.5,0.1-2.2,0.1c-4.5,1.4-3.8,5.2-4,8.6
	c-6.2-4.3-9.7-10.3-10.6-17.6c-0.2-2,2-4.2,3.1-6.3c0.8-1.6,1.7-3.2,2.6-4.9c0.6,0.5,1.2,1,1.9,1.5c3.3,5.1,6.6,10.2,9.8,15.3
	C506.2,825.1,506.5,826.4,507,827.6z"/>
<path class="st17" d="M514.5,854c3.4,2.1,6.8,4.2,10.2,6.3c0.1,0.1,0.3,0.2,0.4,0.3c0.1,0.1,0.3,0,0.4,0.1c-0.2-2.9-0.5-5.7-0.7-8.6
	c6,3.4,8.5,8.5,7.4,15.1c-0.2,1.1-0.1,2.3-0.2,3.5c-4.7,0-9.3-0.1-14-0.1c2.1-1.6,4.2-3.2,6.4-4.8c-0.4-0.4-0.8-0.9-1.1-1.3
	c-1.3-0.1-2.6-0.3-3.9-0.4c-5.6-4.1-11.4-4.3-17.4-1.2c-0.9,0.4-1.8,0.8-2.8,1.2c-1.5-2.2-1.8-4.1,0.9-5.7c1.1-0.6,2-1.5,2.9-2.3
	C506.8,855.3,510.6,854.7,514.5,854z"/>
<path class="st18" d="M533.1,900.2c5.3-3.1,10.6-6.1,15.9-9.2c4-2,7.9-4,11.9-5.9c1.2,0.1,2.5,0.3,5.2,0.6c-2.6,2.6-4.4,4.4-6.2,6.2
	c-0.7,0.7-1.3,1.3-2,2c0,0-0.1,0-0.1,0c-2.9,1.1-5.7,2.6-8.7,3.3C543.8,898.4,538.5,899.2,533.1,900.2z"/>
<path class="st23" d="M782.9,620.1c-0.7,7.8-9.2,16.9-17.6,18.9c-2,0.5-4.1,0.6-6.2,0.8c1-1.2,2-2.5,3-3.7c4.8-0.5,9.6-1,12-6.2
	c0,0,0,0,0,0c0.3-0.3,0.7-0.7,1-1c0,0,0,0,0,0c1.3-1.3,2.7-2.7,4-4c0,0,0,0,0,0C780.3,623.4,781.6,621.7,782.9,620.1z"/>
<path class="st15" d="M755.9,618.1c-5.6-1.4-11.2-2.8-16.8-4.2c0-1.3,0-2.6,0-3.9c3.5,1.5,6.9,3.5,10.5,4.4c2.9,0.7,6.1,0.1,9.4,0.1
	C758,615.7,756.9,616.9,755.9,618.1z"/>
<path class="st8" d="M560.9,885c-4,2-7.9,4-11.9,5.9c-0.2-2.1-0.5-4.2-0.7-6.2C552.5,884.8,556.7,884.9,560.9,885z"/>
<path class="st8" d="M537.3,877.8c-0.4-1.8-0.8-3.7-1.2-5.5c3.9,0.3,7.9,0.5,11.8,0.8c-2.3,1.7-4.5,3.4-6.8,5
	C539.9,878,538.6,877.9,537.3,877.8z"/>
<path class="st25" d="M728.9,600c-2.9-5.3-1.9-10.8-0.8-16.3c0.1-0.3,1.2-0.5,1.8-0.7c0,4,0,8.1,0.2,12.1c0.1,1.9,0.7,3.7,1.1,5.6
	c-0.4,0.4-0.8,0.9-1.3,1.3c0,0,0,0,0,0C729.6,601.3,729.2,600.7,728.9,600z"/>
<path class="st25" d="M524.8,852c0.2,2.9,0.5,5.7,0.7,8.6c-0.2,0-0.3,0-0.4-0.1c-0.1-0.1-0.3-0.2-0.4-0.3c-1.2-3.4-2.6-6.8-3.7-10.2
	c-0.5-1.5-0.4-3.1-0.6-4.6C521.9,847.6,523.3,849.8,524.8,852z"/>
<path class="st26" d="M809.3,615.4c0.3-1.5,0.5-2.9,0.8-4.4c2.8,10.1,0.6,19-6.4,26.7c-0.3-0.3-0.6-0.6-0.9-0.9
	C807,630.3,811.5,623.9,809.3,615.4z"/>
<path class="st9" d="M541.1,878.1c2.3-1.7,4.5-3.4,6.8-5c1.2,0.6,2.4,1.2,3.6,1.8c-0.6,1.1-1.1,2.5-2,3.2c-1.4,1-3.2,1.5-4.9,2.3
	c-1.2-0.5-2.4-0.9-3.6-1.4C541.1,878.7,541.1,878.4,541.1,878.1z"/>
<path class="st4" d="M730,602c0.4-0.4,0.8-0.9,1.3-1.3c2.6,3.1,5.3,6.1,7.9,9.2c0,1.3,0,2.6,0,3.9c-2.4-2.4-5-4.6-7.1-7.2
	C730.9,605.5,730.6,603.6,730,602z"/>
<path class="st26" d="M775.9,648c1.2-0.3,2.3-0.5,3.5-0.8c5.3,2,9.7-0.7,14.3-2.6c0.3,0.3,0.6,0.7,0.9,1
	C788.7,648.7,782.8,652.3,775.9,648z"/>
<path class="st4" d="M830.3,596.3c2.9-0.1,5.7-0.2,8.6-0.3c0,1,0,2-0.1,3c-4.9,0.1-10.1,0.9-13.2-4.4c0.1-0.2,0.3-0.4,0.4-0.6
	C827.5,594.7,828.9,595.5,830.3,596.3z"/>
<path class="st4" d="M774,630c-2.4,5.2-7.2,5.7-12,6.2c-1.7-0.1-3.5-0.2-5.4-0.3c3.9-1,7.6-1.9,11.3-2.8C770,632,772,631,774,630z"
	/>
<path class="st26" d="M803.6,637.7c-3,2.6-6,5.3-9.1,7.9c-0.3-0.3-0.6-0.7-0.9-1c3-2.6,6.1-5.2,9.1-7.9
	C803.1,637.1,803.3,637.4,803.6,637.7z"/>
<path class="st17" d="M557.9,893.9c0.7-0.7,1.3-1.3,2-2C559.3,892.6,558.6,893.2,557.9,893.9z"/>
<path class="st15" d="M762.3,613.5c-0.3,0-0.6-0.1-0.8-0.2c0,0,0-0.3,0-0.4c0.3,0,0.5,0.1,0.8,0.2
	C762.3,613.1,762.3,613.3,762.3,613.5z"/>
<path class="st4" d="M825.6,594.6c-0.3-0.4-0.7-0.8-1-1.2c0.5,0.2,1,0.4,1.5,0.6C825.9,594.2,825.7,594.4,825.6,594.6z"/>
<path class="st17" d="M557.1,862.7c0.3,0.4,0.7,0.9,1,1.3C557.8,863.5,557.4,863.1,557.1,862.7z"/>
<path class="st6" d="M537,752c-1.9-2.1-3.6-4.4-5.8-6.1c-3.5-2.6-7.4-4.7-11.2-6.9c-2.8-1-5.5-2.5-8.3-2.8
	c-15.9-1.6-31.8-2.9-47.7-4.3c0-5.6,0-11.3,0-16.9c8.9-13.4,22.7-14.3,36.6-13.7c7.4,0.3,14.6,2.7,22,4c1.6,0.3,3.4-0.2,5-0.4
	c-0.5-1.8-0.5-4-1.6-5.3c-4.9-5.3-9.9-10.7-15.4-15.4c-5-4.2-10.6-8-16.3-11.2c-7.5-4.2-15.3-7.6-23.1-11.3
	c-8.5-4-17.1-7.9-25.6-11.9c-8.8-13.6-17.5-27.3-26.3-40.9c-0.4-6.7-1.4-13.4-1.2-20.1c0.4-10.6,1.8-21,5.3-31.2
	c1.9-5.6,6.2-6.2,10.4-7.7c5-1.7,10.4-2.6,14.8-5.1c3.9-2.2,7.8-5.6,9.7-9.5c4.1-8,7.5-16.5,7.6-25.9c0.1-4.6-0.7-8.5-4.9-11.2
	c-0.7-0.4-0.9-1.7-1.3-2.6c4.8-12.4,4.4-14.4-4-20.7c-7.8-5.1-15.7-10.1-23.5-15.2c-4.1-2.7-8.3-5.3-12.4-7.9c-1.3-1.7-2.6-3.3-4-5
	c3.9-11.2,0.8-21-6.1-30c-0.3-0.3-0.7-0.7-1-1l0,0c2.5-15.2,10.7-27,22.9-35.9c2.7-2,7.3-1.5,11-2.2c8.2,10.1,5.8,20.5-7.3,28.9
	c2.2,0.4,3.7,1.2,5,0.8c12.5-3.3,21.3-10.5,24-23.8c1.8,2.8,4.3,5.3,5.3,8.4c3.6,10.7,7,21.5,9.9,32.4c4.8,17.7,12.5,33.7,27,45.3
	c8.6,6.8,18.6,10.9,30,9.9c6.2-0.5,10.2-6.4,9.4-12.6c-1.1-8.8-7-14-13-19.3c-4.5-3.9-8.7-8-13.1-12c-11.2-8.4-17.7-20.3-25.1-31.8
	c-8-12.5-17.3-24.2-26-36.2c-1-2.9-3.3-6.2-2.7-8.7c3.6-14.3,11.3-25.9,23.6-34.3c0,0.6,0,1.2,0,1.8c-0.3,0.4-0.5,0.8-0.8,1.2
	c0,0,0,0.1,0,0.1c-0.8,1.2-1.6,2.4-2.4,3.6l0.3,0.3c0,0-0.3-0.3-0.3-0.3c-13,19.1-5.3,38.9,11.3,49.5c3.7,0.7,7.4,1.3,11,2
	c-0.2,2.4-0.5,4.9-0.7,7.3c-0.7,10-1.1,19.8,5.9,28.5c14,17.5,31.5,25.2,54.1,22.4c19.9-2.5,39-7.4,57.8-14.2
	c0.8,0.1,1.6,0.1,3.5,0.3c-17.9,12.8-36.2,22-58.7,22.9c4.9,5.1,9.3,9.4,13.4,13.9c2.4,2.6,4.8,2.3,8,1.3
	c12.2-3.7,24.6-6.9,36.9-10.3c0.1,0.7,0.1,1.4,0.2,2.1c0,0,0.1,0,0.1,0c-3.7-0.3-5.4,1.4-5,5.1l0,0c-1.4,0.2-3.2,0-4.1,0.8
	c-8.3,6.5-16.7,13-24.6,20c-8.1,7.1-9,16.6-6.7,26.5c1.5,6.2,5,11.2,10.3,15.3c5,3.9,8.9,9.2,13.2,13.9l0.3,0l0.2,0.2
	c-1.7,3.9-3.4,7.7-4.9,11.6c-0.2,0.5,0.8,1.5,1.2,2.2c0.1,0.7,0.2,1.4,0.2,2.1c1.9-0.8,4.2-1.2,5.7-2.4c7.2-5.8,6.9-13.6,4.9-21.6
	c-0.1-0.7-0.1-1.3-0.2-2c-0.1-0.9-0.2-1.9-0.3-2.4c2.3,2.1,4.7,4.3,7.1,6.4c0.3-0.2,0.6-0.5,0.9-0.7c-0.8-2.8-1.6-5.7-2.5-8.5
	c0.8,0.2,1.7,0.4,2.5,0.5c0.4,0.6,0.9,1.2,1.3,1.8c0.3,0.3,0.7,0.7,1,1c0.7,0.3,1.4,0.6,2.1,0.9c2.5,0.9,5,1.8,7.5,2.6
	c0.1-0.4,0.3-0.9,0.4-1.3c-2.6-0.5-5.3-0.9-7.9-1.4c-0.6-0.4-1.1-0.9-1.7-1.3c-0.3-0.3-0.7-0.7-1-1c-0.4-0.6-0.8-1.2-1.2-1.8
	c-0.5-1.9-1.1-3.9-1.6-5.8c-0.1-0.8-0.1-1.6-0.2-2.3c0.2-0.6,0.3-1.1,0.5-1.7c0.4-1.6,0.8-3.3,1.3-4.9c2.4-2.6,4.7-5.2,7.1-7.8
	c0.6-0.2,1.3-0.3,1.9-0.5c3.7-0.3,7.3-0.6,11-0.9c1.9-0.3,3.9-0.6,5.8-0.8c17.2-1.2,27.7-10.4,30.7-27.1c0.5-1,1-2,1.5-3
	c1.6,1.1,3.6,1.9,4.7,3.4c7.6,9.6,14.9,19.6,17.8,31.8c1.3,5.6,3,11.6,2.1,17.1c-1.5,9.9-5,19.4-7.3,29.2
	c-1.8,7.5-3.2,15.1-4.2,22.8c-0.4,3.2,0.4,6.5,0.7,9.8c0.8,2.3,1.5,4.7,2.3,7c2.6,5.7,5.2,11.3,7.8,17
	c-20.2,5.2-34.5,18.4-46.3,34.8c-11.6,16.1-22.8,32.5-34.3,48.7c-13,18.2-29.3,33.2-48.9,44c-12.4,6.8-26,11.6-39,17.2
	C540.1,752.2,538.5,751.9,537,752z"/>
<path class="st19" d="M629,455.1c-12.3,3.4-24.7,6.6-36.9,10.3c-3.2,1-5.5,1.3-8-1.3c-4.2-4.5-8.5-8.8-13.4-13.9
	c22.6-0.9,40.8-10.1,58.7-22.9c-1.9-0.2-2.7-0.2-3.5-0.3c2.4-13.1-0.6-25.4-4.8-38.3c-8.1,13.9-28.9,30.6-37.8,30.4
	c7-8,12.4-16.7,14-27.2c1.1-6.7,1.4-12.9-4.8-18.1c-3.8-3.2-6.2-8.1-9.2-12.3c0.5-0.5,0.9-0.9,1.4-1.4c8.3,12.7,20.4,18.2,35.1,20.4
	c0-5.7,0.2-10.9-0.1-16c-0.1-1.4-1.6-3.4-3-4c-16.1-7.1-30.9-16-44.5-27.1c-6.4-5.2-12.2-11.1-18.3-16.7c13.7,7,27.7,13.4,41,21.1
	c11.1,6.5,21.4,14.4,32,21.8c-0.7,1.6-1.8,3.1-2.1,4.7c-2.3,11.8-0.9,23.4,3.2,34.6c0.3,0.3,0.5,0.6,0.8,1l0,0
	c0.3,0.4,0.5,0.9,0.8,1.3c0.1,0.6,0.1,1.1,0.2,1.7c4.8,14,8.9,28,5.2,43c-0.4,1.3-0.8,2.6-1.1,4c-0.3,0.7-0.6,1.4-0.9,2
	c-0.4,1-0.8,2-1.1,3c-0.3,0-0.6,0-0.9,0C630.4,455,629.7,455.1,629,455.1z"/>
<path class="st17" d="M699.8,583c-0.3-3.3-1.1-6.6-0.7-9.8c1.1-7.6,2.5-15.3,4.2-22.8c2.3-9.8,5.8-19.3,7.3-29.2
	c0.8-5.5-0.8-11.5-2.1-17.1c-2.9-12.2-10.1-22.2-17.8-31.8c-1.2-1.5-3.1-2.3-4.7-3.4c-1-3-1.9-6-2.9-9c-0.4-1.4-0.7-2.7-1.1-4.1
	c-0.1-0.6-0.1-1.3-0.2-1.9c0-1,0-2-0.1-2.9c-0.3-1-0.5-2-0.8-3c-0.3-0.7-0.6-1.4-0.9-2.2c0,0,0.1,0.1,0.1,0.1c1.3-0.3,2.5-0.7,3.8-1
	c0.8,0.7,1.5,1.4,2.3,2.2c0.2,0.3,0.5,0.5,0.7,0.8c4.5,4.3,9.1,8.5,13.6,12.9c1.3,1.2,2.3,2.7,3.4,4.1c2.8,5.2,5.3,10.4,8.4,15.5
	c8.1,13.4,15,27.2,13.6,43.5c-0.5,5.3-1.2,10.5-1.9,15.7c-2.1,3.6-4,7.5-6.4,10.9c-3.1,4.4-6.5,8.4-9.8,12.6
	c-0.6,0.9-1.2,1.8-1.8,2.7c-0.4,0.8-0.7,1.5-1.1,2.3l0.1-0.1c-0.4,0.7-0.7,1.4-1.1,2.1l0.1-0.1C702.6,574.3,701.2,578.6,699.8,583z"
	/>
<path class="st12" d="M843,592c6.8-10.6,6.2-21.8,3.3-33.4c-0.9-3.5,0.5-8.1-5.2-8.7c1.3-12.1-5.6-19.6-14.3-26.2
	c-2.3-1.7-4.4-3.9-6.5-5.8c3.3-1.5,1.2-3.4,0.4-5.3c-1-2.4-2.4-4.7-2.6-7.2c-0.9-10.4-1.3-20.8-2.2-31.2c-0.4-3.9-1.2-8-2.9-11.4
	c-2.8-5.2-6.6-9.8-9.9-14.7c11.8,5.9,18.8,15.8,23,28c3.9,11.4,4.1,23.2,4.1,35c0,7.5,2.2,14,7.6,19.5c5.9,5.9,12.1,11.5,17,18.2
	C864.8,562.5,862.5,585.2,843,592z"/>
<path class="st12" d="M789.9,545c-3.5-5.8-6.9-11.6-10.4-17.4c-0.5,0.2-1,0.5-1.5,0.7c-0.3,2.2-0.6,4.5-0.8,6.7
	c-2.8-9.2-5.8-18.4-8.2-27.8c-1.5-5.8-2.1-11.9-3-17.9c-1.3-8.9-2.6-17.8-3.9-26.7c-0.1-0.8,0.1-1.6,1-2.5c1.3,3.5,2.5,6.9,3.8,10.4
	c4.2,11,11.1,20.2,20.1,27.6C799.6,508.3,797.9,534.5,789.9,545z"/>
<path class="st12" d="M633.1,364c2.2,0.6,4.4,1.2,6.6,1.8c9.6,2.4,19.2,4.8,28.8,7.2c1.3,0.3,2.5,1.2,3.8,1.8
	c-2.1,8.5-4.3,17-6.4,25.5c-0.5-0.1-1-0.1-1.6-0.2c0-0.7-0.1-1.4-0.1-2.1c0.2-1.1,0.4-2.1,0.6-3.2c-0.1-0.2-0.3-0.5-0.4-0.7
	c-0.4-3-0.9-6.1-1.3-9.1c-0.5-1.3-1.1-2.6-1.6-3.8c-1.3,0.8-3.1,1.3-3.9,2.4c-2.2,3.3-4,6.8-6,10.3c-0.6,0.6-1.1,1.2-1.7,1.8
	c-1.2,0.7-2.3,1.5-3.5,2.2c-2.1,0.1-4.2,0.2-6.4,0.3c-0.7-0.3-1.3-0.6-2-0.9c-0.1-0.3-0.4-0.4-0.7-0.4
	C629.9,386.7,631.5,375.3,633.1,364z"/>
<path class="st17" d="M803,448.2c3.4,4.9,7.2,9.5,9.9,14.7c1.8,3.4,2.6,7.5,2.9,11.4c1,10.4,1.3,20.8,2.2,31.2
	c0.2,2.5,1.6,4.8,2.6,7.2c0.8,1.9,2.9,3.8-0.4,5.3c-5.3-6.2-11.1-11.9-15.7-18.5c-5.2-7.4-5.7-15.9-3.7-24.7
	c1.8-7.9,1.3-16-1.2-23.8c-0.3-1-0.6-2.1-1.2-3.9C800.4,447.5,801.7,447.8,803,448.2z"/>
<path class="st17" d="M612.3,538.9c-4.4-4.7-8.2-10-13.2-13.9c-5.3-4.2-8.8-9.1-10.3-15.3c-2.3-9.9-1.4-19.4,6.7-26.5
	c7.9-7,16.3-13.5,24.6-20c1-0.8,2.7-0.5,4.1-0.8c-1.7,1.9-3.4,3.8-5.2,5.7c-0.3,0.4-0.7,0.7-1,1.1c-1.4,1.6-2.9,3.2-4.3,4.8
	c-0.2,0.3-0.5,0.6-0.7,1c-0.3,0.4-0.6,0.8-0.9,1.2c0,0,0,0.1,0,0.1c-1.8,3.3-3.5,6.6-5.3,9.8c-0.2,0.4-0.3,0.8-0.5,1.1
	c-0.7,3-1.4,6-2.1,9c-0.3,4-0.6,8-1,12c0.3,1.7,0.4,3.6,1,5.2c2.5,7.3,5.1,14.6,7.7,22c0,0-0.1-0.1,0-0.1
	C612,536.4,612.1,537.6,612.3,538.9z"/>
<path class="st8" d="M665.9,400.3c2.1-8.5,4.3-17,6.4-25.5c2.6-0.2,5.1-0.5,7.6-0.7c-2.3,7.3-4.7,14.6-7,21.9
	c-0.3,1.4-0.5,2.8-0.8,4.1c-2.9,9.7,0.4,18.5,3.5,27.4c0.4-3.2,0.7-6.4,1.1-9.6c0.3,5.3,0.7,10.5,1,15.8c-0.5,0.2-1,0.3-1.6,0.5
	c-0.7-0.7-1.4-1.5-2.2-2c-1.1-0.7-2.4-1.2-3.7-1.5c-0.9-0.2-2.8,0.2-2.9,0c-1.3-3.8-5.2-7.2-2.2-11.8c1.2,2.7,2.5,5.4,3.7,8.1
	c0.1,0.5,0.2,0.9,0.3,1.4c0.2-0.1,0.4-0.2,0.6-0.3c-0.3-0.4-0.6-0.8-0.9-1.2C668,418.1,666.9,409.2,665.9,400.3z"/>
<path class="st8" d="M633.1,364c-1.6,11.4-3.2,22.7,4.2,32.9c-1.4,0.4-2.9,0.8-4.3,1.2c0,0.7,0,1.3,0,2c0,0,0,0,0,0c-1,1-2,2-3,3
	c-0.1-0.6-0.1-1.1-0.2-1.7c-0.3-0.4-0.5-0.9-0.8-1.3c0,0,0,0,0,0c-0.3-0.3-0.5-0.6-0.8-1c-4.1-11.3-5.5-22.8-3.2-34.6
	c0.3-1.6,1.4-3.1,2.1-4.7C629.1,361.1,631.1,362.5,633.1,364z"/>
<path class="st24" d="M817.3,525.4c5.6,0.9,11.8,10.1,10.7,18.5c-0.9,7.1-9.9,13.2-18.8,13c2.6-4.6,6.4-9.3,7.8-14.5
	C818.4,537.1,817.3,531.3,817.3,525.4z"/>
<path class="st4" d="M672.1,400.1c0.3-1.4,0.5-2.8,0.8-4.1c2.8-5.4,6.7-9.1,13.3-9.8c2.6-0.3,5.2-2.2,7.3-4c3-2.6,6.1-3.4,9.8-2
	c-2.7,3.6-5.4,7.2-8.1,10.8c-4.8,3-9.5,6-14.3,9c-0.3,0.4-0.6,0.7-0.9,1.1c0,0,0.1-0.1,0.1-0.1C677.4,400.7,674.8,400.4,672.1,400.1
	z"/>
<path class="st18" d="M724.1,539.5c0.6-5.2,1.4-10.5,1.9-15.7c1.5-16.4-5.5-30.1-13.6-43.5c-3-5-5.6-10.3-8.4-15.5
	c10.3,11.7,20.3,23.7,24.3,39.2C731.5,516.4,730.3,528.3,724.1,539.5z"/>
<path class="st15" d="M683.1,460c1,3,1.9,6,2.9,9c-0.5,1-1,2-1.5,3c-0.3-0.7-0.6-1.5-1.2-3.2c-1,8.8-3.8,15.9-9.9,21.1
	c-5.4,4.6-11.5,8.3-19.2,6.2c0.7-0.3,1.4-0.5,2-0.8c2.1-1.1,4.2-2.2,6.3-3.2c0.3,0.1,0.4,0,0.5-0.2c0.4-0.3,0.8-0.5,1.2-0.8
	c0,0-0.1,0.1-0.1,0.1c0.5-0.3,1.1-0.7,1.6-1c0,0,0.4-0.2,0.4-0.2c0.5-0.4,1.1-0.7,1.6-1.1c0,0,0.3-0.2,0.3-0.2
	c1.7-1.5,3.4-3.1,5.2-4.6c0.3-0.3,0.6-0.7,1-1c0.3-0.3,0.6-0.7,0.9-1c0,0,0.3-0.1,0.3-0.1s0-0.3,0-0.3c1.2-1.9,2.4-3.8,3.6-5.7
	c0.3-0.2,0.4-0.4,0.3-0.7c0.2-0.4,0.4-0.8,0.7-1.2c0.1-0.5,0.2-1,0.4-1.5C681.1,468.4,682.1,464.2,683.1,460z"/>
<path class="st27" d="M630,403c1-1,2-2,3-3c1,2,2,4,3,6c0,0.7,0,1.3,0,2c0,0,0,0,0,0c2.4,10.5,4.9,21.1,4,32c0,0,0,0,0,0
	c-0.4,0.9-0.8,1.9-1.2,2.8c0,0.4,0.1,0.8,0.1,1.2c-0.5,0.2-1,0.4-1.4,0.6c0,0-0.1,0-0.1,0c-0.8,0.5-1.5,1-2.3,1.5
	C638.9,431.1,634.8,417,630,403z"/>
<path class="st24" d="M672.1,400.1c2.7,0.3,5.3,0.6,8,0.9c-0.5,2.4-1,4.9-1.4,7.3c-0.5,2.6-1,5.1-1.5,7.7c-0.1,0.6-0.3,1.3-0.4,1.9
	c-0.4,3.2-0.7,6.4-1.1,9.6C672.6,418.7,669.2,409.8,672.1,400.1z"/>
<path class="st8" d="M612.3,538.9c-0.2-1.3-0.3-2.5-0.5-3.8c4.8,2.7,5.8-2.1,8.1-4.1c2,8,2.3,15.7-4.9,21.6
	c-1.5,1.3-3.8,1.6-5.7,2.4c-0.1-0.7-0.2-1.4-0.2-2.1c4.3-3.8,5.9-8.3,3.6-13.8l-0.2-0.2L612.3,538.9z"/>
<path class="st27" d="M832.5,412.9c13.2,4.2,22,19.1,18.8,36.8C851,434.4,843.5,422.9,832.5,412.9z"/>
<path class="st15" d="M657.6,475.9c-0.2,0.3-0.5,0.6-0.7,1c-0.3,0.4-0.6,0.8-0.9,1.1c-0.3,0.4-0.6,0.7-1,1.1
	c-1.8,1.3-3.6,2.6-5.4,3.9c-0.2-0.2-0.3-0.5-0.5-0.7c0.4-0.7,0.7-1.5,1.1-2.2c0.2-0.3,0.5-0.7,0.7-1c0.3-0.4,0.5-0.7,0.8-1.1
	c0.3-0.1,0.3-0.2,0.3-0.5c0.3-0.5,0.6-1,0.9-1.5c0.2-0.3,0.4-0.5,0.6-0.8c0.5-1.1,0.9-2.1,1.4-3.2c0.4-1.3,0.7-2.7,1.1-4
	c0.3-1,0.5-2,0.8-3c0.3-0.7,0.6-1.4,0.9-2c0.2-0.3,0.2-0.6,0.1-1c0-1.7,0.1-3.3,0.1-5c0.3-1,0.5-2,0.8-3c0.4-0.3,0.8-0.6,1.1-0.9
	c0.4,5.2,0.7,10.4,1.1,15.6c-0.4,1.2-0.9,2.4-1.3,3.7C659.1,473.5,658.4,474.7,657.6,475.9z"/>
<path class="st4" d="M654.1,496.2c7.7,2.1,13.8-1.6,19.2-6.2c6.1-5.2,9-12.3,9.9-21.1c0.6,1.7,0.9,2.4,1.2,3.2
	c-3,16.8-13.4,26-30.7,27.1c-2,0.1-3.9,0.5-5.8,0.8c0.1-0.6,0.2-1.2,0.3-1.8C650.2,497.5,652.2,496.8,654.1,496.2z"/>
<path class="st26" d="M767.9,583.1c-2.8-8,0.9-14.2,6-19.6c4.1-4.4,8.6-8.3,12.9-12.5c3.7,2.4,1.8,3.8-0.9,5
	c-4.6,4.2-9.6,8-13.6,12.6c-2,2.4-2.3,6.3-3.3,9.5C768.6,579.8,768.3,581.4,767.9,583.1z"/>
<path class="st20" d="M802.8,636.8c-3,2.6-6.1,5.2-9.1,7.9c-4.6,1.9-9,4.6-14.3,2.6c16.2-1.6,28.1-14.3,29.9-31.8
	C811.5,623.9,807,630.3,802.8,636.8z"/>
<path class="st8" d="M625,523.8c0.8,2.8,1.6,5.7,2.5,8.5c-0.3,0.2-0.6,0.5-0.9,0.7c-2.4-2.1-4.7-4.3-7.1-6.4
	c0.1,0.5,0.2,1.5,0.3,2.4c-1.2-1-3.6-2.5-3.4-2.9c1-2.2,2.3-4.3,4.1-5.9c0.8-0.7,2.8-0.2,4.3-0.2C624.8,521.3,624.9,522.5,625,523.8
	z"/>
<path class="st15" d="M769,578.2c1-3.2,1.3-7.1,3.3-9.5c4-4.7,9-8.5,13.6-12.6c-1.1,1.8-2,3.7-3.2,5.3
	C778.2,567,773.6,572.6,769,578.2z"/>
<path class="st8" d="M611.9,535.2c-2.6-7.3-5.2-14.6-7.7-22c-0.6-1.7-0.7-3.5-1-5.2c3.1,0.1,3.6,2,3.5,4.7c0,2.5,0.8,4.9,1.3,7.4
	C609.3,525.1,610.6,530.2,611.9,535.2z"/>
<path class="st4" d="M640,440c0.9-11-1.6-21.5-4-32c0.4,0,0.7,0,1,0c0.3,0.7,0.6,1.3,0.9,2c0.7,2,1.4,4,2.2,6c0.3,0.7,0.6,1.3,0.8,2
	c0.1,0.7,0.2,1.4,0.2,2.1c0.2,0.3,0.5,0.6,0.7,1c0,0,0,0,0,0C641.3,427.4,640.7,433.7,640,440z"/>
<path class="st8" d="M640,440c0.6-6.3,1.3-12.6,1.9-19c5.7,1.3,1.6,5.8,2.5,8.7c1,3.2-0.5,7.4-1.6,11c-0.4,1.4-2.5,2.2-3.9,3.3
	c0-0.4-0.1-0.8-0.1-1.2C639.2,441.9,639.6,440.9,640,440L640,440z"/>
<path class="st8" d="M661.1,468.6c-0.4-5.2-0.7-10.4-1.1-15.6c0.6,0.1,1.7,0,1.8,0.3c1.4,4,2.8,8.1,4,12.2c0.3,1.2,0.1,2.5,0.1,4.1
	C663.9,469.3,662.5,468.9,661.1,468.6z"/>
<path class="st8" d="M651.5,393.8c2-3.4,3.8-7,6-10.3c0.8-1.2,2.6-1.6,3.9-2.4c0.5,1.3,1.1,2.6,1.6,3.8c-2.6,2.1-5.1,4.3-7.7,6.3
	C654.1,392.2,652.8,393,651.5,393.8z"/>
<path class="st22" d="M668.9,427.1c-1.2-2.7-2.5-5.4-3.7-8.1c-0.2-1-0.3-2-0.5-3c-0.2-0.8-0.4-1.5-0.6-2.3c-0.1-1.9-0.2-3.8-0.4-5.6
	c0.2-2.6,0.4-5.2,0.6-7.9c0.5,0.1,1,0.1,1.6,0.2C666.9,409.2,668,418.1,668.9,427.1L668.9,427.1z"/>
<path class="st8" d="M684,444.9c-1.3,0.3-2.5,0.7-3.8,1c-3.5-2.2-3.7-2.7-1.8-9.2C680.7,440,682.3,442.5,684,444.9z"/>
<path class="st26" d="M699.8,583c1.4-4.4,2.8-8.7,4.2-13.1c-0.4,5.3-0.8,10.6-1.2,15.9c-0.2,1.4-0.5,2.8-0.7,4.2
	C701.4,587.6,700.6,585.3,699.8,583z"/>
<path class="st8" d="M650.3,480.1c-0.4,0.7-0.7,1.5-1.1,2.2c0.2,0.2,0.3,0.5,0.5,0.7c1.8-1.3,3.6-2.6,5.4-3.9
	c1.1,5.4-3.6,5.2-6.5,6.6c-0.3,0.2-1.5-1.3-2.3-2C647.6,482.5,648.9,481.3,650.3,480.1z"/>
<path class="st8" d="M683.1,460c-1,4.2-2,8.4-3,12.6c-2.7-5.9,1.5-11.1,1.9-16.7C682.4,457.3,682.8,458.6,683.1,460z"/>
<path class="st8" d="M648.3,498.1c-0.1,0.6-0.2,1.2-0.3,1.8c-3.7,0.3-7.3,0.6-11,0.9c1.5-3.2,3.1-6,7.4-3
	C645.3,498.4,647,498,648.3,498.1z"/>
<path class="st8" d="M635.1,501.3c-2.4,2.6-4.7,5.2-7.1,7.8c1.2-3,2.5-6.1,3.9-9.1C632,500,634,500.9,635.1,501.3z"/>
<path class="st20" d="M702.8,585.8c0.4-5.3,0.8-10.6,1.2-15.9c0,0-0.1,0.1-0.1,0.1c0.4-0.7,0.7-1.4,1.1-2.1c0,0-0.1,0.1-0.1,0.1
	c0.4,0,0.7,0,1.1,0L706,568C704.9,573.9,703.9,579.9,702.8,585.8z"/>
<path class="st8" d="M632,456c0.7,1.7,1.5,3.4,2.7,6.3c-3.3-1.2-4.9-1.7-6.5-2.3c0-0.3,0-0.6-0.1-0.8c0.4-0.7,0.8-1.3,1.2-2
	c0,0-0.1,0-0.1,0c0.6-0.4,1.2-0.8,1.8-1.3C631.3,456,631.6,456,632,456z"/>
<path class="st4" d="M782.9,620.1c-1.3,1.6-2.6,3.2-3.9,4.9c1.1-3,2.3-6,3.4-9c0.7-0.3,1.4-0.7,3.2-1.5
	C784.4,616.9,783.6,618.5,782.9,620.1z"/>
<path class="st8" d="M606.7,485.9c1.8-3.3,3.5-6.6,5.3-9.8C612.7,480.7,611,484,606.7,485.9z"/>
<path class="st8" d="M604.1,496c0.7-3,1.4-6,2.1-9c0.2,2.3,0.7,4.7,0.5,7C606.7,494.7,605,495.3,604.1,496z"/>
<path class="st8" d="M664.3,400.1c-0.2,2.6-0.4,5.2-0.6,7.9c-2.7-3.2-2.5-7.5,0.4-10C664.2,398.7,664.3,399.4,664.3,400.1z"/>
<path class="st8" d="M662.5,492.1c-2.1,1.1-4.2,2.2-6.3,3.2c-0.7-1.1-1.4-2.2-2.6-4.1C657.2,491.7,659.8,491.9,662.5,492.1z"/>
<path class="st8" d="M619.1,468c1.7-1.9,3.4-3.8,5.2-5.7c0,0,0,0,0,0c0.3-0.1,0.6-0.2,0.9-0.3c0.3,0,0.6,0.1,0.8,0.1
	C624.3,464.9,623.6,468.7,619.1,468z"/>
<path class="st8" d="M677.1,416c0.5-2.6,1-5.1,1.5-7.7C679.3,411.1,682.6,414.4,677.1,416z"/>
<path class="st8" d="M656.8,465c-0.3,1-0.5,2-0.8,3c-1.4-0.7-2.8-1.3-4.2-2c0.2-0.5,0.5-1,0.7-1.5C654,464.7,655.4,464.8,656.8,465z
	"/>
<path class="st19" d="M625,523.8c-0.1-1.3-0.2-2.5-0.3-3.8c0.6-0.6,1.2-1.3,1.8-1.9c0.5,1.9,1.1,3.9,1.6,5.8
	c-0.2,0.2-0.4,0.3-0.6,0.5C626.7,524.2,625.9,524,625,523.8z"/>
<path class="st8" d="M678.8,476c-1.2,1.9-2.4,3.8-3.6,5.7C675,478.9,674.1,475.6,678.8,476z"/>
<path class="st8" d="M673.1,484c-1.7,1.5-3.4,3.1-5.2,4.6C667.5,484.7,670.6,484.7,673.1,484z"/>
<path class="st8" d="M613.7,473.9c1.4-1.6,2.9-3.2,4.3-4.8C616.6,470.7,615.1,472.3,613.7,473.9z"/>
<path class="st8" d="M639.6,456.7c0.1,1.2,0.1,2.4,0.2,3.6c-0.4,0-0.9,0.1-1.3,0.1c-0.1-1.2-0.1-2.4-0.2-3.6
	C638.7,456.7,639.2,456.7,639.6,456.7z"/>
<path class="st20" d="M706,565.7c0.6-0.9,1.2-1.8,1.8-2.7c-0.6,1.6-1.3,3.3-1.9,4.9c0,0,0.1,0.1,0.1,0.1
	C706,567.2,706,566.5,706,565.7z"/>
<path class="st8" d="M655,472c-0.5,1.1-0.9,2.1-1.4,3.2c-0.7-0.7-1.4-1.5-2.1-2.2C652.7,472.6,653.8,472.3,655,472z"/>
<path class="st8" d="M669.8,481.3c-0.8,0.2-1.3,0.5-1.7,0.3c-0.2-0.1-0.3-0.7-0.4-1.1c0-0.1,0.6-0.4,0.8-0.3
	C669,480.4,669.3,480.8,669.8,481.3z"/>
<path class="st8" d="M672.8,441.8c-0.3-0.7-0.6-1.2-0.5-1.5c0.1-0.3,0.7-0.4,1-0.6c0.1,0.3,0.5,0.6,0.4,0.8
	C673.6,440.9,673.3,441.2,672.8,441.8z"/>
<path class="st8" d="M641.1,483.2c0.3,0.7,0.7,1.2,0.6,1.5c-0.1,0.3-0.7,0.5-1,0.7c-0.2-0.3-0.5-0.6-0.4-0.8
	C640.4,484.2,640.7,483.8,641.1,483.2z"/>
<path class="st8" d="M657.6,475.9c0.7-1.2,1.4-2.4,2.2-3.6C659.1,473.5,658.4,474.7,657.6,475.9z"/>
<path class="st8" d="M638,397.2c0.7,0.3,1.3,0.6,2,0.9c-0.3,0.5-0.6,0.9-1,1.4C638.7,398.7,638.3,398,638,397.2z"/>
<path class="st8" d="M646.4,397.8c1.2-0.7,2.3-1.5,3.5-2.2C648.7,396.4,647.5,397.1,646.4,397.8z"/>
<path class="st27" d="M633.1,452c0.3-0.7,0.6-1.4,0.9-2C633.7,450.7,633.4,451.4,633.1,452z"/>
<path class="st8" d="M638,410c-0.3-0.7-0.6-1.3-0.9-2C637.4,408.7,637.7,409.3,638,410z"/>
<path class="st8" d="M641,418c-0.3-0.7-0.6-1.3-0.8-2C640.5,416.7,640.8,417.3,641,418z"/>
<path class="st8" d="M681.8,451c0,1,0,2,0.1,2.9C681.8,453,681.8,452,681.8,451z"/>
<path class="st8" d="M658.8,454c-0.3,1-0.5,2-0.8,3C658.3,456.1,658.6,455,658.8,454z"/>
<path class="st27" d="M626,462.1c-0.3,0-0.6-0.1-0.8-0.1c0.6-0.7,1.2-1.3,1.9-2l0.2,0.3C626.8,460.9,626.4,461.5,626,462.1z"/>
<path class="st27" d="M633,400c0-0.7,0-1.3,0-2C633,398.7,633,399.3,633,400z"/>
<path class="st8" d="M680.1,445.8c0.3,0.7,0.6,1.4,0.9,2.2C680.7,447.3,680.4,446.6,680.1,445.8z"/>
<path class="st8" d="M667.6,488.8c-0.5,0.4-1.1,0.7-1.6,1.1C666.5,489.6,667.1,489.2,667.6,488.8z"/>
<path class="st4" d="M728.9,600c0.4,0.7,0.7,1.3,1.1,2C729.6,601.3,729.2,600.7,728.9,600z"/>
<path class="st4" d="M636,408c0-0.7,0-1.3,0-2C636,406.7,636,407.3,636,408z"/>
<path class="st8" d="M664.1,413.6c0.2,0.8,0.4,1.5,0.6,2.3C664.5,415.1,664.3,414.4,664.1,413.6z"/>
<path class="st8" d="M642,421c-0.2-0.3-0.5-0.6-0.7-1C641.5,420.4,641.7,420.7,642,421z"/>
<path class="st27" d="M632,456c-0.4,0-0.7,0-1.1,0c0-0.3,0.1-0.7,0.1-1c0.3,0,0.6,0,0.9,0C632,455.3,632,455.7,632,456z"/>
<path class="st8" d="M626.8,514c-0.2,0.6-0.3,1.1-0.5,1.7C626.4,515.2,626.6,514.6,626.8,514z"/>
<path class="st8" d="M664.2,491.1c-0.4,0.3-0.8,0.5-1.2,0.8C663.4,491.6,663.8,491.4,664.2,491.1z"/>
<path class="st4" d="M637.4,444.5c0,0,0.1,0,0.1,0C637.5,444.6,637.4,444.5,637.4,444.5z"/>
<path class="st8" d="M687,447.8c-0.2-0.3-0.5-0.5-0.7-0.8C686.5,447.3,686.8,447.6,687,447.8z"/>
<path class="st8" d="M674.9,482c-0.3,0.3-0.6,0.7-0.9,1C674.3,482.7,674.6,482.4,674.9,482z"/>
<path class="st8" d="M651.9,478c-0.3,0.4-0.5,0.7-0.8,1.1C651.3,478.8,651.6,478.4,651.9,478z"/>
<path class="st8" d="M656,478c0.3-0.4,0.6-0.8,0.9-1.1C656.6,477.2,656.3,477.6,656,478z"/>
<path class="st8" d="M653.1,476c-0.3,0.5-0.6,1-0.9,1.5C652.4,477,652.7,476.5,653.1,476z"/>
<path class="st8" d="M612.1,476c0.3-0.4,0.6-0.8,0.9-1.2C612.7,475.2,612.4,475.6,612.1,476z"/>
<path class="st8" d="M679.8,474c-0.2,0.4-0.4,0.8-0.7,1.2C679.3,474.9,679.5,474.5,679.8,474z"/>
<path class="st8" d="M657.9,462c0.1,0.3,0.1,0.7-0.1,1c-0.1-0.2-0.2-0.5-0.2-0.7C657.6,462.2,657.8,462.1,657.9,462z"/>
<path class="st27" d="M628,459.2c0,0.3,0.1,0.6,0.1,0.8c-0.3,0.1-0.6,0.2-0.9,0.3c0,0-0.2-0.3-0.2-0.3
	C627.4,459.7,627.7,459.4,628,459.2z"/>
<path class="st22" d="M664.4,394.1c0.1,0.2,0.3,0.5,0.4,0.7C664.5,394.7,664.4,394.5,664.4,394.1z"/>
<path class="st8" d="M665.6,490.1c-0.5,0.3-1.1,0.7-1.6,1C664.6,490.8,665.1,490.5,665.6,490.1z"/>
<path class="st24" d="M680,401.1c0.3-0.4,0.6-0.7,0.9-1.1C680.6,400.4,680.3,400.7,680,401.1z"/>
<path class="st7" d="M585,213c-1.7-2.7-3.3-5.3-5-8C581.7,207.7,583.3,210.3,585,213z"/>
<path class="st13" d="M242,626c-1.3-0.7-2.7-1.3-4-2c0.4-8.4,1-16.9,1-25.3c0-7.5,11.9-16.6,20.8-16.7c6.9,0,13.9-0.5,20.8-1
	c1.9-0.1,3.6-1.2,5.5-1.9c0.4,0,0.8,0,1.2,0c3.6,8.9,8.2,17.5,10.6,26.7c3.8,14.5,11,25.7,24.6,32.2c6.7,3.2,14,5.5,20.3,9.3
	c6.1,3.7,11.4,8.8,17.1,13.3c-0.3,0.3-0.7,0.5-1,0.8c-0.7-0.1-1.5-0.2-1.7-0.2c3.4,4.9,6.8,9.8,10.2,14.8c-6-3.5-12-7-18-10.5
	c-0.2,0.1-0.5,0.2-0.7,0.4c2.5,3.1,5,6.1,7.4,9.2c0.7,0.3,1.4,0.6,2,0.9l-0.1-0.1c0.2,0.8,0.1,1.9,0.6,2.3c5,5,6.2,11.1,5.3,17.8
	c-7.7,8.5-15.3,16.9-22.7,25c6.3-1.1,12.7-2.2,19.1-3.4c2.6-0.5,5.1-1,7.6-1.5c9-1.7,18-3.3,27-5c-0.1,0.8,0,1.8-0.4,2.4
	c-5.2,7.9-4.8,16.1-1.6,24.6c2.5,6.8,7.1,11.2,13.7,14c8.7,3.6,17.3,7.3,19.3,18.1c-7.3-0.1-14.7-0.3-22-0.4c-0.3-1.3-0.4-2.6-1-3.8
	c-3.8-7.4-7.7-14.8-11.9-22.7c1,7.1,1.9,13.9,2.9,20.7c-8.7-0.7-17.3-1.4-26-2c-1.5-1.7-2.8-3.7-4.6-4.9c-9.9-7-16.2-17.1-23.5-26.3
	c-3.2-4.1-6-8.7-11.8-9.8c-0.5-1.2-0.9-2.4-1.6-3.4c-5.9-8.5-15.5-13.9-19.6-23.8c-0.2-0.4-1.2-0.5-1.8-0.7
	c-1.9-3.8-3.8-7.6-5.8-11.4c-3.5-6.8-6.4-14-10.6-20.3c-9.4-13.9-19.6-27-37-31.7C248.3,628.7,245.2,627.2,242,626z M334.9,716.5
	c0.8,0.4,1.5,0.9,2.3,1.3c0.8-1.4,1.4-3.1,2.5-4.3c6.3-6.7,9-14.8,10.2-23.8c2-14.8-4.9-30.2-18-37c-6.8-3.5-12.3-8.3-17.4-13.8
	c-2.7-2.9-5-6.3-8-8.8c-3.5-2.9-7.7-5-11.5-7.4c-0.3,0.4-0.6,0.9-0.9,1.3c0.4,0.9,0.7,1.8,1.2,2.6c7.7,11.7,12.9,24.6,16.2,38.2
	c1.6,6.5,2.7,13.3,4.9,19.6c0.9,2.6,3.8,5.1,6.5,6.2c2.5,1,5.8-0.2,8.6,0c2.3,0.2,5.1,0.4,6.5,1.8c1,1,0.6,4,0.1,5.9
	c-0.6,2.2-2,4.2-3,6.3C333.4,708.7,333.4,712.6,334.9,716.5z"/>
<path class="st15" d="M426,770.2c-2-10.7-10.6-14.5-19.3-18.1c-6.7-2.7-11.2-7.2-13.7-14c-3.2-8.5-3.5-16.7,1.6-24.6
	c0.4-0.6,0.3-1.6,0.4-2.4c15.7-3.6,28.5,1,38.6,13.6c6.3,7.9,12.9,15.5,19.4,23.2c0,0.8-0.2,1.9,0.1,2.5c3.2,5,6.9,9.7,9.6,14.9
	c4.3,8.1,10.3,15.5,10.3,25.3C458.3,781.7,442.2,775.8,426,770.2z"/>
<path class="st25" d="M503,856c-1,0.8-1.9,1.7-2.9,2.3c-2.7,1.6-2.4,3.5-0.9,5.7c-0.4,3.7-0.8,7.3-1.2,11c-3,1-6,2.1-9,3.1
	c-2.1-2.7-4.2-5.3-6.5-8.2c-3.9,2.7-8.2,0-12.5-2c-0.4-2-0.7-3.9-1.1-5.9c-0.6-9.2,3.9-14,13.2-14.5c-1.2-5.2-2.1-9.8-3.1-14.3
	c0.4,0,1.1-0.1,1.2,0.1c6.3,7.3,12.5,14.6,18.2,21.2C500.2,855,501.6,855.5,503,856z"/>
<path class="st12" d="M478.9,833.2c1,4.5,2,9.1,3.1,14.3c-9.3,0.5-13.8,5.3-13.2,14.5c-1.6-1.7-3.3-3.5-4.9-5.2
	c-2.4-2.6-4.8-5.3-7.2-7.9c-1.3-3.1-2.7-6.2-3.8-9.4c-1.5-4.4-2.8-9-4.2-13.5c-0.4-1.8-0.8-3.7-1.2-5.5c0.4-1,0.7-2,1.1-3
	c11.2,3.5,12.1,16.1,21.1,21.7c-0.2-2.9-1-5.6-1.7-8.3c-1-3.7-1.9-7.3-2.9-11C469.7,824.4,474.3,828.8,478.9,833.2z M471.5,845.1
	c0.2,0.1,0.5,0.3,0.7,0.4c0,0,0.3-0.3,0.3-0.3c-0.1-0.2-0.3-0.5-0.4-0.7C471.8,844.7,471.6,844.9,471.5,845.1z"/>
<path class="st22" d="M488.9,878.1c3-1,6-2.1,9-3.1c2.9,0.3,4.4-0.7,4.1-3.9c-0.2-2.7-0.1-5.5-0.1-8.3c6-3.1,11.9-2.9,17.4,1.2
	c-2.7,2.3-5.5,4.6-8.2,6.9c-4.1,2.5-8.3,4.8-12.1,7.6c-1.4,1.1-3.1,3.9-2.6,5c0.9,1.9,3.3,4.1,5.3,4.2c3.2,0.2,6.5-1,9.6-1.9
	c8.7-2.6,17.4-5.4,26-8.1c1.3,0.1,2.6,0.2,3.8,0.3c-0.1,0.3-0.1,0.6,0,0.8c-8.2,2.4-16.4,4.9-24.5,7.3c-5.5,1.6-11.1,3.2-16.6,4.8
	c-9.3-1.6-18.8-3-27.1-8c-1-2.3-2-4.6-3.1-6.8c5.8,0.1,11.7-1.1,16.9,2.5C487.2,878.9,488.2,878.3,488.9,878.1z"/>
<path class="st13" d="M473,790.7c0-9.8-6-17.3-10.3-25.3c-2.8-5.2-6.5-9.9-9.6-14.9c-0.4-0.6-0.1-1.7-0.1-2.5c1.3,1,2.7,2,4,3
	c3.1,5.7,5.5,12,12,15c2.8,4.5,6.1,8.7,8.2,13.4c2.4,5.4,3.8,11.2,5.7,16.8C479.6,794.4,476.3,792.5,473,790.7z"/>
<path class="st15" d="M465.1,819.9c1,3.7,1.9,7.3,2.9,11c0.7,2.7,1.5,5.4,1.7,8.3c-8.9-5.6-9.8-18.3-21.1-21.7c-0.3,0.9-0.7,2-1.1,3
	c-0.7-2.6-3.9-5.4,0.5-7.6C454.8,812.5,460.1,815.9,465.1,819.9z"/>
<path class="st17" d="M368,762c8.7,0.7,17.3,1.4,26,2c2.6,2.1,7.6,0.7,8,5.8c-9.3,0.4-18.7,0.9-28,1.1c-1.7,0-3.3-0.8-5-1.3
	C368.7,767.1,368.4,764.5,368,762z"/>
<path class="st28" d="M488.9,878.1c-0.7,0.2-1.8,0.8-2.2,0.5c-5.2-3.7-11.2-2.5-16.9-2.5c-1.8-3.5-3.7-6.9-5.5-10.4
	c1.9,0.7,3.7,1.5,5.6,2.2c4.4,2,8.7,4.6,12.5,2C484.7,872.8,486.8,875.4,488.9,878.1z"/>
<path class="st18" d="M402,769.8c-0.4-5.1-5.4-3.8-8-5.8c-0.9-6.8-1.9-13.6-2.9-20.7c4.2,8,8.1,15.3,11.9,22.7
	c0.6,1.1,0.7,2.5,1,3.8C403.3,769.8,402.7,769.8,402,769.8z"/>
<path class="st18" d="M469.9,867.9c-1.9-0.7-3.7-1.5-5.6-2.2c-2.5-5.6-5.1-11.2-7.6-16.8c2.4,2.6,4.8,5.3,7.2,7.9
	c1.6,1.8,3.3,3.5,4.9,5.2C469.2,864,469.5,866,469.9,867.9z"/>
<path class="st19" d="M440,888c-8.6-4.7-17.3-9.1-24.4-16c0.4-0.6,0.8-1.1,1.2-1.7c7.7,5.6,15.4,11.1,23.1,16.7
	C440,887.2,440,887.7,440,888C440,888,440,888,440,888z"/>
<path class="st28" d="M472.9,882.9c8.3,5,17.7,6.4,27.1,8c-3.9,0.1-7.9,0.1-11.8,0.2c-3.5-0.3-7-0.6-10.5-1
	C476.1,887.8,474.5,885.4,472.9,882.9z"/>
<path class="st22" d="M477.7,890.2c3.5,0.3,7,0.6,10.5,1c0.3,2.6,0.6,5.3,0.8,7.9C485.2,896.2,481.4,893.2,477.7,890.2z"/>
<path class="st19" d="M448,812.9c-4.4,2.3-1.2,5-0.5,7.6c0.4,1.8,0.8,3.7,1.2,5.5c-1.2-2.2-2.7-4.3-3.7-6.6
	c-1.2-2.8-2.1-5.8-3.5-9.7C444,811,446,811.9,448,812.9z"/>
<path class="st19" d="M441,889c-0.3-0.3-0.7-0.7-1-1c0,0,0,0,0,0C440.3,888.3,440.7,888.7,441,889L441,889z"/>
<path class="st19" d="M441,889c0.3,0.3,0.7,0.7,1,1l0,0C441.7,889.7,441.3,889.3,441,889C441,889,441,889,441,889z"/>
<path class="st19" d="M442,890c0.3,0.3,0.7,0.7,1,1c0,0,0,0,0,0C442.7,890.7,442.3,890.3,442,890C442,890,442,890,442,890z"/>
<path class="st23" d="M373.9,534.9c-11.3-1-22.6-2-33.9-3c-1.4-0.6-2.7-1.6-4.1-1.8c-7.9-1.3-15.3-2.7-22-8.1
	c-7.8-6.4-16.8-11.3-24.9-17.4c-3.1-2.3-5.1-5.9-7.7-9.1c4-0.2,8.5,0.6,9.1-0.7c1.6-3.1,2.5-7.3,1.7-10.6c-1.1-4.5-4-8.7-6.4-12.8
	c-2-3.4-2.7-6,1-9c4.5-3.6,9.1-7.5,7.4-14.2c6.9,12.4,13.8,25,20.9,37.3c5.6,9.8,11.2,19.8,17.6,29.2c5,7.4,13.1,11,21.7,13.3
	c6.1,1.6,12.1,3.4,18.2,5.2C373.1,533.4,373.5,534.3,373.9,534.9z"/>
<path class="st23" d="M416,447c1.3,1.7,2.6,3.3,4,5c-8.9-1.9-17.8-3.7-26.7-5.9c-1.5-0.4-3.1-2-3.8-3.4c-2.8-5.9-5.8-11.6-11.4-15.3
	c-2.2-1.5-2.5-3.2-0.6-5.4c3-3.6,2-7-1.6-9.4c-10.6-7.1-21.3-14.1-31.9-21.1c-2.3-1.5-4.6-3.2-6.9-4.7c0.2-0.4,0.3-0.9,0.5-1.3
	c6.1,2,12.3,3.7,18.4,6c10.6,3.9,18.7,11.2,26.3,19.2c4.5,4.7,9.6,8.3,16.8,5.5c1.2-0.4,2.6-0.1,4-0.1c3.4,3.2,6.7,6.5,10.4,10
	c-8.1,3.5-9,8.3-3.7,14.1C411.8,442.4,413.9,444.7,416,447z"/>
<path class="st21" d="M455.9,475.1c8.4,6.2,8.8,8.2,4,20.7c-0.3,0.1-0.6,0.1-0.9,0.2c-1.3,0-2.7,0-4,0c0.1-0.7,0.1-1.3,0.2-2
	c0.3-0.4,0.5-0.8,0.8-1.1c0.3-1.8,0.9-3.6,0.8-5.4c-0.1-1.4-1.2-4-1.8-4c-5,0.1-10.1,0.5-15,1.3c-2.9,0.4-5.6,1.7-8.4,2.6
	c2.4,5.6,5.2,6,11,1.7c2.2-1.6,5.3-2,8-2.9c0.5,1.9,1,3.9,1.5,5.8c-3.7,2-7.3,3.9-11,5.9c-4.3-2.2-9-3.7-12.6-6.7
	c-1.8-1.5-2.4-5.7-2-8.4c1.1-6.6,8-10.6,14.7-9.6C446,474,450.9,474.5,455.9,475.1z"/>
<path class="st25" d="M347.1,544c-3.6,0.7-7.2,1.5-10.9,1.9c-12.4,1.6-24.8,3.1-37.2,4.6c-3.3,0.4-6.7,0.3-10,0.5
	c-0.3-2.5-0.7-5.1-1-7.6c-0.2-1.9-0.4-3.8-0.6-6c1-0.2,2.2-0.4,3.7-0.7c-0.5-1.3-0.9-2.3-1.3-3.4c0.2-0.2,0.4-0.5,0.6-0.7
	c5.7,3.2,11.3,6.5,17.1,9.6c1.3,0.7,3.2,1,4.7,0.8c1-0.2,1.8-1.7,2.7-2.7c-0.2-0.4-0.5-0.9-0.7-1.3c4,0,7.9,0,11.8,0
	c4.3,0.4,8.7,0.8,13,1.2c0.7,0.2,1.4,0.5,2,0.7c0.6,0.2,1.3,0.3,1.9,0.5C344.4,542.1,345.7,543,347.1,544z"/>
<path class="st21" d="M364.7,451.8c-6.8-2.9-14-4.7-19.9-10.1c-3.4-3.1-8.4-4.4-12.7-6.5c-1.1-0.5-2.9-1.7-2.8-2
	c0.5-1.4,1.4-3.6,2.5-3.8c4.6-0.9,9.5-2.2,14-1.4c5.3,1,10.8,3.3,15.2,6.4C366.6,438.4,367.7,444.6,364.7,451.8z"/>
<path class="st18" d="M365,504c3.5,5.9,9.1,6.4,14.9,5.9c8.1-0.6,15.7,1.6,23.5,3.5c6.8,1.7,14.1,1.8,21.1,2.5
	c2.7,0.3,5.5,0.5,8.7,0.8c-13.2,5.7-25,1.8-37.1-1.9c-4.8-1.5-10.5-0.3-15.6-1.1c-5.3-0.8-10.6-2.3-15.7-4.1c-1-0.3-1.2-3.1-1.8-4.8
	C363.8,504.6,364.4,504.3,365,504z"/>
<path class="st18" d="M416,447c-2.1-2.3-4.2-4.6-6.4-6.9c-5.3-5.7-4.4-10.6,3.7-14.1c-3.7-3.5-7-6.8-10.4-10c0-0.7,0-1.4,0-2.1
	c2,0.7,3.9,1.4,5.9,2.1c0,0,0,0,0,0c0.3,0.3,0.7,0.7,1,1C416.8,426.1,419.9,435.8,416,447z"/>
<path class="st18" d="M441,497.9c3.7-2,7.3-3.9,11-5.9c-1,2-2,4-3.2,6.4c1.9-0.7,4-1.6,6.2-2.4c1.3,0,2.7,0,4,0c-0.6,1-1.3,2-1.9,3
	C451.4,502.6,446.3,498.9,441,497.9z"/>
<path class="st23" d="M300.8,456.4c-1.5-4.9-3.1-9.8-4.6-14.8c0.6-0.2,1.3-0.4,1.9-0.6c1.7,4.9,3.4,9.7,5.1,14.6
	C302.4,455.9,301.6,456.1,300.8,456.4z"/>
<path class="st18" d="M447,517c-0.3,0.3-0.7,0.6-1,1c-3.2,0.4-6.4,0.9-9.6,1.4c-0.1-0.4-0.2-0.8-0.3-1.3c3.6-1,7.3-2,10.9-3
	C447,515.7,447,516.3,447,517z"/>
<path class="st23" d="M281.6,492.2c-0.1,0-0.2-0.1-0.3-0.1c0-0.1,0.1-0.2,0.1-0.3c0,0,0.2,0.1,0.3,0.1
	C281.7,492,281.6,492.1,281.6,492.2z"/>
<path class="st25" d="M289.8,533.2c-0.6-0.2-1.1-0.3-1.7-0.5c0.1-0.2,0.1-0.4,0.2-0.6c0.7,0.2,1.4,0.3,2.1,0.5
	C290.3,532.7,290.1,533,289.8,533.2z"/>
<path class="st18" d="M448.1,514c0,0.3-0.1,0.7-0.1,1c-0.3,0-0.7,0-1,0C447.4,514.7,447.7,514.3,448.1,514z"/>
<path class="st10" d="M305.1,693c0.6,0.2,1.6,0.3,1.8,0.7c4.1,10,13.7,15.4,19.6,23.8c0.7,1,1.1,2.3,1.6,3.4
	c-6.8,2-13.9,3.5-20.4,6.3c-5.6,2.5-10.7,6.4-15.7,10.1c-3.9,2.9-7.3,6.4-11,9.7c4.8-5.6,8.9-12.2,14.6-16.7
	c11.2-9,11.4-20.5,10-32.9C305.4,695.9,305.2,694.4,305.1,693z"/>
<path class="st29" d="M554.1,316.8c6.1,5.6,11.9,11.5,18.3,16.7c13.6,11.1,28.5,20,44.5,27.1c1.4,0.6,2.9,2.5,3,4
	c0.4,5.1,0.1,10.3,0.1,16c-14.7-2.2-26.9-7.7-35.1-20.4c-0.5,0.5-0.9,0.9-1.4,1.4c3,4.2,5.4,9.1,9.2,12.3c6.2,5.2,5.8,11.4,4.8,18.1
	c-1.7,10.5-7,19.2-14,27.2c8.8,0.2,29.7-16.5,37.8-30.4c4.1,12.9,7.2,25.2,4.8,38.3c-18.7,6.8-37.9,11.8-57.8,14.2
	c-22.7,2.8-40.1-4.9-54.1-22.4c-6.9-8.6-6.5-18.5-5.9-28.5c0.2-2.4,0.5-4.9,0.7-7.3c0.4-1.3,0.7-2.7,1.1-4c0.7-1.6,1.9-3.2,2-4.8
	c0.9-13.4,1.5-26.8,2.2-40.2c1.6,2.8,4,5.4,4.5,8.4c1.5,8,2.1,16.1,3,23.8c0.9-1.7,2-3.9,3.1-6.1c-0.4,5.3,2,9.4,5.6,12.8
	c12.4,11.6,34.7,18.9,53.6,10.2c3.3-0.6,6.5-1.2,9.8-1.7c-0.1-0.5-0.2-1.1-0.3-1.6c-3.2,0-6.4,0-9.6,0c-2-0.8-4-1.6-5.9-2.5
	c-13.5-6-26.9-12.1-40.4-18.1c2.4-0.4,4.8-0.5,7.1-1.2c5.1-1.4,10.1-3,15.2-4.6c4.6,0.1,8.8-0.8,11.2-5.3c3.8-3.5,2.7-7.3-2.5-9.2
	c0.5,2.8,0.9,5.6,1.4,8.4c-3.6,3.7-7.3,4-12.4,2.5c-6.6-2-13.8-2.4-20.7-3.4c-2.4-0.8-4.7-1.6-7.1-2.3l0.1,0c-0.7-0.7-1.4-1.4-2-2
	l0,0.1c-0.7-1.5-1.4-3-2.1-4.6l0,0.1c-0.1-0.4-0.1-0.9-0.2-1.3c3.7-4.6,7.4-9.1,11.1-13.7c3-2.9,6.1-5.7,9.1-8.6
	C548.7,314.9,551.4,315.9,554.1,316.8z"/>
<path class="st10" d="M520,436c4.4,4,8.7,8.1,13.1,12c6.1,5.3,12,10.5,13,19.3c0.8,6.2-3.2,12.1-9.4,12.6c-11.4,1-21.4-3.1-30-9.9
	c-14.6-11.6-22.3-27.6-27-45.3c-2.9-10.9-6.3-21.7-9.9-32.4c-1-3-3.5-5.6-5.3-8.4c-0.8-5-1.6-10-2.3-15c1,0,2,0,3,0
	c3.3,5.6,7.1,11.1,9.8,17c6.9,14.7,12.9,29.9,20.1,44.4c3,6.1,7.7,11.7,15.7,12.4C516.3,443.3,519.5,441.2,520,436z"/>
<path class="st25" d="M465.1,369c-1,0-2,0-3,0c-2.7-2.9-5.4-5.9-8.1-8.8c0-1.6,0.1-3.2-0.2-4.7c-0.4-2-1.4-4-1.7-6
	c-1.4-10,3.2-17.6,9.7-24.4c5.7-3,11.3-6,17-8.9c8.6-4.3,15.9-10,20.1-18.9c0.2-0.3,0.7-0.5,2.4-1.6c-0.6,5.9-0.2,11.1-2,15.3
	c-2.2,5.1-6.3,9.4-9.5,14c-12.3,8.3-20.1,20-23.6,34.3c-0.6,2.5,1.7,5.8,2.7,8.7C467.6,368.3,466.4,368.7,465.1,369z"/>
<path class="st12" d="M514.2,334.1c-0.7,13.4-1.4,26.8-2.2,40.2c-0.1,1.6-1.3,3.2-2,4.8c-9.4-7.8-15.6-17.5-14.8-29.9
	c0.5-7.5,2.9-15,5-22.4c2.3-8.3,5.3-16.4,8.1-24.5c0.3-0.8,1.1-1.5,1.7-2.2c0.8,4.9,1.5,9.9,2.3,14.8
	C512.9,321.3,513.6,327.7,514.2,334.1z"/>
<path class="st29" d="M512.2,314.9c-0.8-4.9-1.5-9.9-2.3-14.8c0-0.7,0-1.3,0-2c0.6-1.1,1.2-2.2,1.9-3.3c1.5,1,3.4,1.6,4.4,3
	c5.3,7.3,12.5,12.2,20.3,16.4c1.2,0.7,2,2,3,3.1c0,0-0.2,0-0.2,0C529.9,320.4,520.8,320.3,512.2,314.9z"/>
<path class="st24" d="M461.8,325.1c-6.5,6.9-11.1,14.5-9.7,24.4c0.3,2,1.3,4,1.7,6c0.3,1.5,0.1,3.1,0.2,4.7
	c-17.5-12.9-11.3-31.2-1.2-43.9c0.1,0.1,0.2,0.3,0.2,0.4C450.1,326.9,454.3,327,461.8,325.1z"/>
<path class="st25" d="M497.9,381.1c-16.6-10.5-24.3-30.3-11.3-49.5c-0.6,3.2-1.2,6.4-1.7,9.5c-0.9,4.8-3.3,10.1-2.3,14.4
	c2.5,10.1,8.2,18.7,17.6,24.3C499.4,380.3,498.7,380.7,497.9,381.1z"/>
<path class="st27" d="M445.6,305.6c-10.2,9.8-15.9,21-17.5,35.3C423.6,325.8,432.8,307.2,445.6,305.6z"/>
<path class="st15" d="M500.2,379.9c-9.4-5.5-15.1-14.1-17.6-24.3c-1.1-4.3,1.4-9.6,2.3-14.4c-0.8,15.7,5,28.4,17.9,38.7
	C501.4,379.9,500.8,379.9,500.2,379.9z"/>
<path class="st24" d="M511.9,294.9c-0.6,1.1-1.2,2.2-1.9,3.3c-0.2-6.1-0.5-12.1-0.7-18.2c1.9,2.4,3.9,4.8,5.8,7.1
	C514,289.7,512.9,292.3,511.9,294.9z"/>
<path class="st25" d="M486.6,331.7c0.8-1.2,1.6-2.4,2.4-3.6C488.2,329.3,487.4,330.5,486.6,331.7z"/>
<path class="st25" d="M489.1,328c0.3-0.4,0.5-0.8,0.8-1.2C489.6,327.2,489.3,327.6,489.1,328z"/>
<path class="st15" d="M283.9,411.9c-0.1-0.2-0.2-0.5-0.2-0.7c0-0.1,0.2-0.2,0.4-0.2C284.1,411.3,284,411.6,283.9,411.9z"/>
<path class="st25" d="M457,751c-1.3-1-2.7-2-4-3c-6.5-7.7-13.1-15.3-19.4-23.2c-10.1-12.6-22.8-17.2-38.6-13.6c-9,1.7-18,3.3-27,5
	c-0.6-0.6-1.7-1.1-1.8-1.8c-0.9-6.1-1.6-12.3-2.3-18.4c0.9-6.7-0.3-12.8-5.3-17.8c-0.5-0.5-0.4-1.5-0.6-2.3c3.3,1,6.6,2,10.4,3.1
	c-0.5-1.4-0.8-2.2-1.1-3.1c-3.4-5-6.9-9.9-10.2-14.8c0.2,0,0.9,0.1,1.7,0.2c0.3,0.1,0.7,0.3,1,0.4c0-0.4,0-0.8,0-1.2
	c-5.7-4.5-10.9-9.6-17.1-13.3c-6.3-3.8-13.6-6.1-20.3-9.3c-13.6-6.6-20.8-17.8-24.6-32.2c-2.4-9.2-7-17.8-10.6-26.7
	c10.2-2,20.3-4.1,30.5-6c12.9-2.4,25.9-4.5,38.8-7.1c5.6-1.1,11-3.3,16.5-5c2,2.9,3.3,6.7,6,8.4c6.7,4.1,13.9,7.3,21,10.8
	c1.4,1.6,3,3,4.2,4.8c5.1,8,10.1,16,15.2,24c8.8,13.6,17.5,27.3,26.3,40.9c0.6,1.3,1.2,2.7,1.9,4c6.2,11.3,11,23.2,12.5,36.1
	c1,8.3,1.6,16.6,2.4,25c-0.4,5.7-0.9,11.4-1.3,17.1C459.8,738.3,458.4,744.7,457,751z"/>
<path class="st26" d="M241,568.8c10.3-0.2,20.4,1.3,30,5.1c0.7,0.3,1.7,0.2,2.5,0.1c17-3.1,33.9-6.2,50.9-9.4
	c11.3-2.1,22.6-4.3,33.9-6.6c10.8-2.2,20-7.8,28.8-14.3c0.6,1.8,1.3,3.6,1.9,5.3c-9.2,4.4-18.1,10.1-27.8,12.8
	c-13.4,3.9-27.4,5.7-41.3,8.2c-12.8,2.3-25.8,3.5-38.4,6.5c-6.8,1.6-13,1.1-19.5-0.3c-4.6-1.1-9.4-1.2-14.2-1.8
	c-0.6,0-1.2-0.1-1.7-0.1c-2-0.4-3.9-0.9-5.9-1.3C240.5,571.5,240.7,570.1,241,568.8z"/>
<path class="st20" d="M247.8,574.3c4.7,0.6,9.6,0.8,14.2,1.8c6.6,1.5,12.7,1.9,19.5,0.3c12.6-2.9,25.6-4.2,38.4-6.5
	c13.8-2.4,27.8-4.3,41.3-8.2c9.7-2.8,18.6-8.5,27.8-12.8c-1,1.3-2.1,2.6-3.1,3.9c-4.3,2.7-8.6,5.4-12.9,8.1
	c-5.5,1.7-10.9,3.8-16.5,5c-12.9,2.6-25.9,4.7-38.8,7.1c-10.2,1.9-20.4,4-30.5,6c-0.4,0-0.8,0-1.2,0c-12.7,3.6-24.5-2.3-36.8-3.6
	C248.7,575.4,248.3,574.7,247.8,574.3z"/>
<path class="st13" d="M373,560.9c4.3-2.7,8.6-5.4,12.9-8.1c6.7,8.1,10.7,17.6,14.1,27.3c-7-3.5-14.3-6.7-21-10.8
	C376.3,567.7,375,563.8,373,560.9z"/>
<path class="st5" d="M447,515c0.3,0,0.7,0,1,0c-0.3,0.7-0.7,1.3-1,2C447,516.3,447,515.7,447,515z"/>
<path class="st19" d="M703.3,380.1c-3.7-1.3-6.8-0.6-9.8,2c-2.1,1.8-4.7,3.7-7.3,4c-6.6,0.7-10.5,4.4-13.3,9.8
	c2.3-7.3,4.7-14.6,7-21.9c6.7,1.3,13.4,2.5,20.1,3.8c1.3,0.7,2.6,1.4,3.9,2.1C703.8,380.1,703.5,380.2,703.3,380.1z M688.5,378.8
	c-0.7-0.7-1.4-1.4-2.1-2.1c-2.3,2.5-4.6,5.1-6.8,7.6c0.7,0.6,1.4,1.3,2,1.9C683.8,383.7,686.1,381.2,688.5,378.8z"/>
<path class="st20" d="M240.2,572.9c2,0.4,3.9,0.8,5.9,1.3C244.1,573.7,242.1,573.3,240.2,572.9z"/>
<path class="st19" d="M511.9,294.9c1.1-2.6,2.1-5.2,3.2-7.8c1.2,1,2.5,2,3.7,3c7.3,6.2,14.5,12.4,21.7,18.6c1,0.9,1.8,2.2,2.7,3.2
	c-1.2,1.8-2.4,3.6-3.6,5.4c-1-1-1.8-2.4-3-3.1c-7.8-4.2-14.9-9.1-20.3-16.4C515.3,296.5,513.3,295.9,511.9,294.9z"/>
<path class="st20" d="M539.5,317.4c1.2-1.8,2.4-3.6,3.6-5.4c1,0.7,1.9,1.3,2.9,2c-3,2.9-6,5.7-9.1,8.6c0.8-1.7,1.6-3.4,2.3-5.1
	L539.5,317.4z"/>
<path class="st24" d="M347.1,544c-1.4-0.9-2.8-1.9-4.2-2.8c4.1,0.4,8.2,0.7,12.2,1.1C352.5,542.8,349.8,543.4,347.1,544z"/>
<path class="st24" d="M341,540.7c-0.7-0.2-1.4-0.5-2-0.7C339.7,540.2,340.4,540.4,341,540.7z"/>
<path class="st9" d="M457,751c1.4-6.3,2.8-12.7,4.2-19c0.9,0,1.9,0,2.8-0.1c15.9,1.4,31.8,2.7,47.7,4.3c2.8,0.3,5.6,1.8,8.3,2.8
	c-6.1,6.8-7.6,14.1-4.1,22.9c2.7,6.6,4.6,13.6,6.6,20.6c0.4,1.4-0.3,3.1-0.5,4.6c-3.5-5.8-9.4-7.9-15.3-9.9
	c-11.4-3.8-22.8-7.4-34.2-11c-1.1-0.3-2.3-0.1-3.5-0.2C462.4,763,460.1,756.7,457,751z"/>
<path class="st23" d="M557,838.5c-6.4-21.7-12.7-42.7-19.1-64.3c4.2,5.4,7.7,10.1,11.5,14.6c4.7,5.6,8.1,11.4,7.8,19.2
	C556.6,817.9,557,827.8,557,838.5z"/>
<path class="st23" d="M539.2,788.9c-3.2-6.1-6.8-12.1-9.5-18.4c-0.6-1.5,0.7-5.1,2.2-6c2.7-1.7,4.1,0.9,4.6,3.4
	c1.2,6.9,2.2,13.9,3.3,20.9C539.5,788.8,539.3,788.9,539.2,788.9z"/>
<path class="st18" d="M565.3,837.1c-0.2,1.3-0.5,2.6-0.7,3.9c-3.8-5.6-3.4-12-4.7-19.3c5.5,3.1,3.8,7.5,4.6,11
	C564.9,834.1,565.1,835.6,565.3,837.1z"/>
<path class="st4" d="M779,624.9c-1.3,1.3-2.7,2.7-4,4C776.3,627.6,777.6,626.3,779,624.9z"/>
<path class="st4" d="M775,628.9c-0.3,0.3-0.7,0.7-1,1C774.3,629.6,774.6,629.3,775,628.9z"/>
<path class="st18" d="M511.1,870.9c2.7-2.3,5.5-4.6,8.2-6.9c1.3,0.1,2.6,0.2,3.9,0.4c0.4,0.4,0.8,0.9,1.1,1.3
	c-2.1,1.6-4.2,3.2-6.4,4.8C515.7,870.7,513.4,870.8,511.1,870.9z"/>
<path class="st0" d="M502.8,827.4c0.7,0,1.5-0.1,2.2-0.1C504.2,827.4,503.5,827.4,502.8,827.4z"/>
<path class="st28" d="M501.9,862.8c0,2.8-0.1,5.5,0.1,8.3c0.3,3.2-1.2,4.2-4.1,3.9c0.4-3.7,0.8-7.3,1.2-11
	C500,863.6,501,863.2,501.9,862.8z"/>
<path class="st10" d="M462.4,714.9c-0.8-8.3-1.4-16.7-2.4-25c-1.6-12.9-6.3-24.8-12.5-36.1c-0.7-1.3-1.3-2.7-1.9-4
	c8.5,3.9,17.1,7.8,25.6,11.9c7.7,3.7,15.6,7.1,23.1,11.3c5.8,3.2,11.3,7,16.3,11.2c5.5,4.7,10.5,10.1,15.4,15.4
	c1.1,1.2,1.1,3.5,1.6,5.3c-1.7,0.1-3.4,0.6-5,0.4c-7.3-1.3-14.6-3.7-22-4c-13.9-0.6-27.8,0.3-36.6,13.7
	C463.5,715,463,715,462.4,714.9z"/>
<path class="st18" d="M465.1,369c1.3-0.3,2.6-0.7,3.9-1c8.7,12,18,23.8,26,36.2c7.4,11.4,13.9,23.4,25.1,31.8
	c-0.5,5.2-3.7,7.3-9.3,6.8c-8.1-0.7-12.7-6.3-15.7-12.4c-7.2-14.5-13.2-29.7-20.1-44.4C472.1,380.1,468.4,374.7,465.1,369z"/>
<path class="st23" d="M462.4,714.9c0.5,0,1,0.1,1.6,0.1c0,5.6,0,11.3,0,16.9c-0.9,0-1.9,0-2.8,0.1
	C461.6,726.3,462,720.6,462.4,714.9z"/>
<path class="st19" d="M612.7,539.1c2.3,5.5,0.7,10-3.6,13.8c-0.4-0.7-1.4-1.7-1.2-2.2C609.4,546.8,611.1,543,612.7,539.1z"/>
<path class="st17" d="M628,459.2c-0.3,0.3-0.7,0.6-1,0.9c-0.6,0.7-1.2,1.3-1.9,2c-0.3,0.1-0.6,0.2-0.9,0.3c-0.4-3.8,1.3-5.4,5-5.1
	C628.8,457.8,628.4,458.5,628,459.2z"/>
<path class="st19" d="M632,528c2.6,0.5,5.3,0.9,7.9,1.4c-0.1,0.4-0.3,0.9-0.4,1.3C637,529.8,634.5,528.9,632,528
	C632,528,632,528,632,528z"/>
<path class="st17" d="M631.1,455c0,0.3-0.1,0.7-0.1,1c-0.6,0.4-1.2,0.8-1.8,1.3c-0.1-0.7-0.1-1.4-0.2-2.1
	C629.7,455.1,630.4,455,631.1,455z"/>
<path class="st19" d="M628.9,526.2c-0.4-0.6-0.9-1.2-1.3-1.8c0.2-0.1,0.4-0.3,0.6-0.5c0.4,0.6,0.8,1.2,1.2,1.8
	C629.2,525.8,629,526,628.9,526.2z"/>
<path class="st19" d="M630.3,526.7c0.6,0.4,1.1,0.9,1.7,1.3c0,0,0,0,0,0c-0.7-0.3-1.4-0.6-2.1-0.9C630,527,630.1,526.9,630.3,526.7z
	"/>
<path class="st17" d="M409.9,417.1c-0.3-0.3-0.7-0.7-1-1C409.3,416.4,409.6,416.7,409.9,417.1z"/>
<path class="st19" d="M629.9,527.1c-0.3-0.3-0.7-0.7-1-1c0.1-0.2,0.3-0.3,0.4-0.5c0.3,0.3,0.7,0.7,1,1
	C630.1,526.9,630,527,629.9,527.1z"/>
<path class="st27" d="M629,400c0.3,0.4,0.5,0.9,0.8,1.3C629.5,400.9,629.3,400.4,629,400z"/>
<path class="st27" d="M628.2,399c0.3,0.3,0.5,0.6,0.8,1C628.7,399.7,628.5,399.3,628.2,399z"/>
<path class="st26" d="M705,567.9c-0.4,0.7-0.7,1.4-1.1,2.1C704.3,569.3,704.6,568.6,705,567.9z"/>
<path class="st26" d="M706,565.7c0,0.8,0,1.5,0,2.3c-0.4,0-0.7,0-1.1,0C705.3,567.2,705.7,566.5,706,565.7z"/>
<path class="st22" d="M669,427c0.3,0.4,0.6,0.8,0.9,1.2c-0.2,0.1-0.4,0.2-0.6,0.3C669.2,428,669,427.5,669,427
	C668.9,427.1,669,427,669,427z"/>
<path class="st4" d="M640,440c-0.4,0.9-0.8,1.9-1.1,2.8C639.2,441.9,639.6,440.9,640,440z"/>
<path class="st23" d="M334.9,716.5c-1.5-3.9-1.5-7.8,0.2-11.7c0.9-2.1,2.4-4.1,3-6.3c0.5-1.9,0.9-5-0.1-5.9
	c-1.5-1.4-4.3-1.6-6.5-1.8c-2.9-0.2-6.2,1-8.6,0c-2.6-1.1-5.6-3.6-6.5-6.2c-2.2-6.3-3.3-13-4.9-19.6c-3.4-13.6-8.5-26.4-16.2-38.2
	c-0.5-0.8-0.8-1.7-1.2-2.6c0.3-0.4,0.6-0.9,0.9-1.3c3.9,2.4,8,4.5,11.5,7.4c3,2.5,5.3,5.9,8,8.8c5.1,5.4,10.6,10.3,17.4,13.8
	c13.1,6.7,20,22.2,18,37c-1.2,9-3.9,17.1-10.2,23.8c-1.1,1.2-1.7,2.8-2.5,4.3C336.5,717.4,335.7,716.9,334.9,716.5z"/>
<path class="st18" d="M363.9,696c0.8,6.1,1.5,12.3,2.3,18.4c0.1,0.7,1.1,1.2,1.8,1.8c-2.5,0.5-5.1,1.1-7.6,1.5
	c-6.4,1.1-12.8,2.3-19.1,3.4C348.5,713,356.2,704.5,363.9,696z"/>
<path class="st18" d="M367.3,675.9c0.3,0.9,0.6,1.7,1.1,3.1c-3.8-1.1-7.1-2.1-10.4-3.1c0,0,0.1,0.1,0.1,0.1c-0.7-0.3-1.4-0.6-2-0.9
	c-2.5-3.1-5-6.1-7.4-9.2c0.2-0.1,0.5-0.2,0.7-0.4C355.3,668.9,361.3,672.4,367.3,675.9z"/>
<path class="st25" d="M356,675c0.7,0.3,1.4,0.6,2,0.9C357.4,675.6,356.7,675.3,356,675z"/>
<path class="st15" d="M471.5,845.1c0.2-0.2,0.4-0.4,0.6-0.6c0.2,0.2,0.3,0.4,0.4,0.7c0,0.1-0.2,0.3-0.3,0.3
	C471.9,845.4,471.7,845.3,471.5,845.1z"/>
<path class="st23" d="M454.9,496c-2.1,0.8-4.3,1.7-6.2,2.4c1.2-2.4,2.2-4.4,3.2-6.4c-0.5-1.9-1-3.9-1.5-5.8c-2.7,0.9-5.8,1.3-8,2.9
	c-5.8,4.3-8.6,3.9-11-1.7c2.8-0.9,5.5-2.1,8.4-2.6c5-0.8,10-1.2,15-1.3c0.6,0,1.7,2.5,1.8,4c0.1,1.8-0.5,3.6-0.8,5.4
	c-0.3,0.4-0.5,0.8-0.8,1.1C455.1,494.7,455,495.3,454.9,496z"/>
<path class="st18" d="M455.1,494c0.3-0.4,0.5-0.8,0.8-1.1C455.7,493.2,455.4,493.6,455.1,494z"/>
<path class="st28" d="M584.1,383.1c-18.9,8.8-41.3,1.5-53.6-10.2c-3.6-3.4-6.1-7.5-5.6-12.8c-0.4-3.5-0.9-6.9-1.4-11
	c5.6,3.9,9.9,6.9,14.3,9.9c13.5,6,26.9,12.1,40.4,18.1c2,0.9,3.9,1.7,5.9,2.5c-2.7,0.3-5.6,1.3-8,0.6c-8.8-2.6-17.5-5.8-26.2-8.9
	c-1.7-0.6-3.4-1.5-5.1-2.3C556.4,378.1,569.5,383.1,584.1,383.1z M538.9,366.1c0.3,0.3,0.7,0.7,1,1c0.7,0.6,1.4,1.1,2.2,1.7
	c0.2-0.3,0.3-0.6,0.5-0.9c-0.9-0.3-1.7-0.6-2.6-0.9c-0.3-0.3-0.7-0.6-1-1c-0.7-0.3-1.3-0.7-2-1c-0.2-0.1-0.3-0.1-0.5-0.2
	c0.1,0.1,0.3,0.2,0.4,0.3C537.6,365.4,538.3,365.7,538.9,366.1z"/>
<path class="st19" d="M537.8,359.1c-4.4-3-8.7-6.1-14.3-9.9c0.5,4,0.9,7.5,1.4,11c-1.1,2.2-2.2,4.3-3.1,6.1
	c-0.9-7.7-1.6-15.8-3-23.8c-0.5-3-3-5.6-4.5-8.4c-0.7-6.4-1.3-12.7-2-19.1c8.6,5.3,17.7,5.5,27.1,2.4c-0.8,1.7-1.6,3.4-2.3,5.1
	c-3.7,4.6-7.4,9.1-11.1,13.7c0.1,0.4,0.1,0.9,0.2,1.3c0,0,0-0.1,0-0.1c0.7,1.5,1.4,3,2.1,4.6c0,0,0-0.1,0-0.1c0.7,0.7,1.4,1.4,2,2
	c0,0-0.1,0-0.1,0c2.4,1.3,4.7,2.5,7.1,3.8c7.7,1.9,15.3,3.7,23,5.6c-5.1,1.5-10.1,3.2-15.2,4.6C542.6,358.6,540.1,358.8,537.8,359.1
	z"/>
<path class="st20" d="M584.1,383.1c-14.7,0-27.7-5-39.4-14c1.7,0.8,3.3,1.7,5.1,2.3c8.7,3.1,17.4,6.3,26.2,8.9
	c2.4,0.7,5.3-0.4,8-0.6c3.2,0,6.4,0,9.6,0c0.1,0.5,0.2,1.1,0.3,1.6C590.7,381.9,587.4,382.5,584.1,383.1z"/>
<path class="st7" d="M560.1,353.4c-7.7-1.9-15.3-3.7-23-5.6c0-0.5,0-1,0-1.5c6.9,1.1,14.1,1.4,20.7,3.4c5.1,1.5,8.8,1.2,12.4-2.5
	c0.4,0.3,0.7,0.5,1.1,0.8C568.8,352.6,564.7,353.5,560.1,353.4z"/>
<path class="st19" d="M571.3,348c-0.4-0.3-0.7-0.5-1.1-0.8c-0.5-2.8-0.9-5.6-1.4-8.4C573.9,340.8,575,344.6,571.3,348z"/>
<path class="st20" d="M537,346.3c0,0.5,0,1,0,1.5c-2.4-1.3-4.7-2.5-7.1-3.8C532.3,344.7,534.7,345.5,537,346.3z"/>
<path class="st20" d="M528.1,342c-0.7-1.5-1.4-3-2.1-4.6C526.7,339,527.4,340.5,528.1,342z"/>
<path class="st20" d="M530.1,344c-0.7-0.7-1.4-1.4-2-2C528.7,342.6,529.4,343.3,530.1,344z"/>
<path class="st20" d="M526,337.5c-0.1-0.4-0.1-0.9-0.2-1.3C525.9,336.7,526,337.1,526,337.5z"/>
<path class="st13" d="M359.7,660.5c0,0.4,0,0.8,0,1.2c-0.3-0.1-0.7-0.3-1-0.4C359,661,359.4,660.8,359.7,660.5z"/>
<path class="st29" d="M688.5,378.8c-2.3,2.5-4.6,5-6.9,7.4c-0.7-0.6-1.4-1.3-2-1.9c2.3-2.5,4.6-5.1,6.8-7.6
	C687,377.4,687.7,378.1,688.5,378.8z"/>
<path class="st20" d="M540.1,366.9c0.9,0.3,1.7,0.6,2.6,0.9c-0.2,0.3-0.3,0.6-0.5,0.9c-0.7-0.6-1.4-1.1-2.2-1.7L540.1,366.9z"/>
<path class="st20" d="M537,365c0.7,0.3,1.3,0.7,2,1c0,0-0.1,0.1-0.1,0.1C538.3,365.7,537.6,365.4,537,365L537,365z"/>
<path class="st20" d="M537,365c-0.1-0.1-0.3-0.2-0.4-0.3C536.7,364.8,536.9,364.9,537,365C537,365,537,365,537,365z"/>
<path class="st20" d="M539.9,367.1c-0.3-0.3-0.7-0.7-1-1c0,0,0.1-0.1,0.1-0.1c0.3,0.3,0.7,0.6,1,1
	C540.1,366.9,539.9,367.1,539.9,367.1z"/>
</svg>
